# Blender 4.3.0
# www.blender.org
mtllib flor.mtl
o Grid
v -12.500000 0.000000 12.500000
v -11.500000 0.000000 12.500000
v -10.500000 0.000000 12.500000
v -9.500000 0.000000 12.500000
v -8.500000 0.000000 12.500000
v -7.500000 0.000000 12.500000
v -6.500000 0.000000 12.500000
v -5.500000 0.000000 12.500000
v -4.500000 0.000000 12.500000
v -3.500000 0.000000 12.500000
v -2.500000 0.000000 12.500000
v -1.500000 0.000000 12.500000
v -0.500000 0.000000 12.500000
v 0.500000 0.000000 12.500000
v 1.500000 0.000000 12.500000
v 2.499999 0.000000 12.500000
v 3.500000 0.000000 12.500000
v 4.500000 0.000000 12.500000
v 5.499999 0.000000 12.500000
v 6.500000 0.000000 12.500000
v 7.499999 0.000000 12.500000
v 8.499999 0.000000 12.500000
v 9.500000 0.000000 12.500000
v 10.499999 0.000000 12.500000
v 11.499999 0.000000 12.500000
v 12.500000 0.000000 12.500000
v -12.500000 0.000000 11.500000
v -11.500000 0.000000 11.500000
v -10.500000 0.000000 11.500000
v -9.500000 0.000000 11.500000
v -8.500000 0.000000 11.500000
v -7.500000 0.000000 11.500000
v -6.500000 0.000000 11.500000
v -5.500000 0.000000 11.500000
v -4.500000 0.000000 11.500000
v -3.500000 0.000000 11.500000
v -2.500000 0.000000 11.500000
v -1.500000 0.000000 11.500000
v -0.500000 0.000000 11.500000
v 0.500000 0.000000 11.500000
v 1.500000 0.000000 11.500000
v 2.499999 0.000000 11.500000
v 3.500000 0.000000 11.500000
v 4.500000 0.000000 11.500000
v 5.499999 0.000000 11.500000
v 6.500000 0.000000 11.500000
v 7.499999 0.000000 11.500000
v 8.499999 0.000000 11.500000
v 9.500000 0.000000 11.500000
v 10.499999 0.000000 11.500000
v 11.499999 0.000000 11.500000
v 12.500000 0.000000 11.500000
v -12.500000 0.000000 10.500000
v -11.500000 0.000000 10.500000
v -10.500000 0.000000 10.500000
v -9.500000 0.000000 10.500000
v -8.500000 0.000000 10.500000
v -7.500000 0.000000 10.500000
v -6.500000 0.000000 10.500000
v -5.500000 0.000000 10.500000
v -4.500000 0.000000 10.500000
v -3.500000 0.000000 10.500000
v -2.500000 0.000000 10.500000
v -1.500000 0.000000 10.500000
v -0.500000 0.000000 10.500000
v 0.500000 0.000000 10.500000
v 1.500000 0.000000 10.500000
v 2.499999 0.000000 10.500000
v 3.500000 0.000000 10.500000
v 4.500000 0.000000 10.500000
v 5.499999 0.000000 10.500000
v 6.500000 0.000000 10.500000
v 7.499999 0.000000 10.500000
v 8.499999 0.000000 10.500000
v 9.500000 0.000000 10.500000
v 10.499999 0.000000 10.500000
v 11.499999 0.000000 10.500000
v 12.500000 0.000000 10.500000
v -12.500000 0.000000 9.500000
v -11.500000 0.000000 9.500000
v -10.500000 0.000000 9.500000
v -9.500000 0.000000 9.500000
v -8.500000 0.000000 9.500000
v -7.500000 0.000000 9.500000
v -6.500000 0.000000 9.500000
v -5.500000 0.000000 9.500000
v -4.500000 0.000000 9.500000
v -3.500000 0.000000 9.500000
v -2.500000 0.000000 9.500000
v -1.500000 0.000000 9.500000
v -0.500000 0.000000 9.500000
v 0.500000 0.000000 9.500000
v 1.500000 0.000000 9.500000
v 2.499999 0.000000 9.500000
v 3.500000 0.000000 9.500000
v 4.500000 0.000000 9.500000
v 5.499999 0.000000 9.500000
v 6.500000 0.000000 9.500000
v 7.499999 0.000000 9.500000
v 8.499999 0.000000 9.500000
v 9.500000 0.000000 9.500000
v 10.499999 0.000000 9.500000
v 11.499999 0.000000 9.500000
v 12.500000 0.000000 9.500000
v -12.500000 0.000000 8.500000
v -11.500000 0.000000 8.500000
v -10.500000 0.000000 8.500000
v -9.500000 0.000000 8.500000
v -8.500000 0.000000 8.500000
v -7.500000 0.000000 8.500000
v -6.500000 0.000000 8.500000
v -5.500000 0.000000 8.500000
v -4.500000 0.000000 8.500000
v -3.500000 0.000000 8.500000
v -2.500000 0.000000 8.500000
v -1.500000 0.000000 8.500000
v -0.500000 0.000000 8.500000
v 0.500000 0.000000 8.500000
v 1.500000 0.000000 8.500000
v 2.499999 0.000000 8.500000
v 3.500000 0.000000 8.500000
v 4.500000 0.000000 8.500000
v 5.499999 0.000000 8.500000
v 6.500000 0.000000 8.500000
v 7.499999 0.000000 8.500000
v 8.499999 0.000000 8.500000
v 9.500000 0.000000 8.500000
v 10.499999 0.000000 8.500000
v 11.499999 0.000000 8.500000
v 12.500000 0.000000 8.500000
v -12.500000 0.000000 7.500000
v -11.500000 0.000000 7.500000
v -10.500000 0.000000 7.500000
v -9.500000 0.000000 7.500000
v -8.500000 0.000000 7.500000
v -7.500000 0.000000 7.500000
v -6.500000 0.000000 7.500000
v -5.500000 0.000000 7.500000
v -4.500000 0.000000 7.500000
v -3.500000 0.000000 7.500000
v -2.500000 0.000000 7.500000
v -1.500000 0.000000 7.500000
v -0.500000 0.000000 7.500000
v 0.500000 0.000000 7.500000
v 1.500000 0.000000 7.500000
v 2.499999 0.000000 7.500000
v 3.500000 0.000000 7.500000
v 4.500000 0.000000 7.500000
v 5.499999 0.000000 7.500000
v 6.500000 0.000000 7.500000
v 7.499999 0.000000 7.500000
v 8.499999 0.000000 7.500000
v 9.500000 0.000000 7.500000
v 10.499999 0.000000 7.500000
v 11.499999 0.000000 7.500000
v 12.500000 0.000000 7.500000
v -12.500000 0.000000 6.500000
v -11.500000 0.000000 6.500000
v -10.500000 0.000000 6.500000
v -9.500000 0.000000 6.500000
v -8.500000 0.000000 6.500000
v -7.500000 0.000000 6.500000
v -6.500000 0.000000 6.500000
v -5.500000 0.000000 6.500000
v -4.500000 0.000000 6.500000
v -3.500000 0.000000 6.500000
v -2.500000 0.000000 6.500000
v -1.500000 0.000000 6.500000
v -0.500000 0.000000 6.500000
v 0.500000 0.000000 6.500000
v 1.500000 0.000000 6.500000
v 2.499999 0.000000 6.500000
v 3.500000 0.000000 6.500000
v 4.500000 0.000000 6.500000
v 5.499999 0.000000 6.500000
v 6.500000 0.000000 6.500000
v 7.499999 0.000000 6.500000
v 8.499999 0.000000 6.500000
v 9.500000 0.000000 6.500000
v 10.499999 0.000000 6.500000
v 11.499999 0.000000 6.500000
v 12.500000 0.000000 6.500000
v -12.500000 0.000000 5.500000
v -11.500000 0.000000 5.500000
v -10.500000 0.000000 5.500000
v -9.500000 0.000000 5.500000
v -8.500000 0.000000 5.500000
v -7.500000 0.000000 5.500000
v -6.500000 0.000000 5.500000
v -5.500000 0.000000 5.500000
v -4.500000 0.000000 5.500000
v -3.500000 0.000000 5.500000
v -2.500000 0.000000 5.500000
v -1.500000 0.000000 5.500000
v -0.500000 0.000000 5.500000
v 0.500000 0.000000 5.500000
v 1.500000 0.000000 5.500000
v 2.499999 0.000000 5.500000
v 3.500000 0.000000 5.500000
v 4.500000 0.000000 5.500000
v 5.499999 0.000000 5.500000
v 6.500000 0.000000 5.500000
v 7.499999 0.000000 5.500000
v 8.499999 0.000000 5.500000
v 9.500000 0.000000 5.500000
v 10.499999 0.000000 5.500000
v 11.499999 0.000000 5.500000
v 12.500000 0.000000 5.500000
v -12.500000 0.000000 4.500000
v -11.500000 0.000000 4.500000
v -10.500000 0.000000 4.500000
v -9.500000 0.000000 4.500000
v -8.500000 0.000000 4.500000
v -7.500000 0.000000 4.500000
v -6.500000 0.000000 4.500000
v -5.500000 0.000000 4.500000
v -4.500000 0.000000 4.500000
v -3.500000 0.000000 4.500000
v -2.500000 0.000000 4.500000
v -1.500000 0.000000 4.500000
v -0.500000 0.000000 4.500000
v 0.500000 0.000000 4.500000
v 1.500000 0.000000 4.500000
v 2.499999 0.000000 4.500000
v 3.500000 0.000000 4.500000
v 4.500000 0.000000 4.500000
v 5.499999 0.000000 4.500000
v 6.500000 0.000000 4.500000
v 7.499999 0.000000 4.500000
v 8.499999 0.000000 4.500000
v 9.500000 0.000000 4.500000
v 10.499999 0.000000 4.500000
v 11.499999 0.000000 4.500000
v 12.500000 0.000000 4.500000
v -12.500000 0.000000 3.500000
v -11.500000 0.000000 3.500000
v -10.500000 0.000000 3.500000
v -9.500000 0.000000 3.500000
v -8.500000 0.000000 3.500000
v -7.500000 0.000000 3.500000
v -6.500000 0.000000 3.500000
v -5.500000 0.000000 3.500000
v -4.500000 0.000000 3.500000
v -3.500000 0.000000 3.500000
v -2.500000 0.000000 3.500000
v -1.500000 0.000000 3.500000
v -0.500000 0.000000 3.500000
v 0.500000 0.000000 3.500000
v 1.500000 0.000000 3.500000
v 2.499999 0.000000 3.500000
v 3.500000 0.000000 3.500000
v 4.500000 0.000000 3.500000
v 5.499999 0.000000 3.500000
v 6.500000 0.000000 3.500000
v 7.499999 0.000000 3.500000
v 8.499999 0.000000 3.500000
v 9.500000 0.000000 3.500000
v 10.499999 0.000000 3.500000
v 11.499999 0.000000 3.500000
v 12.500000 0.000000 3.500000
v -12.500000 0.000000 2.500000
v -11.500000 0.000000 2.500000
v -10.500000 0.000000 2.500000
v -9.500000 0.000000 2.500000
v -8.500000 0.000000 2.500000
v -7.500000 0.000000 2.500000
v -6.500000 0.000000 2.500000
v -5.500000 0.000000 2.500000
v -4.500000 0.000000 2.500000
v -3.500000 0.000000 2.500000
v -2.500000 0.000000 2.500000
v -1.500000 0.000000 2.500000
v -0.500000 0.000000 2.500000
v 0.500000 0.000000 2.500000
v 1.500000 0.000000 2.500000
v 2.499999 0.000000 2.500000
v 3.500000 0.000000 2.500000
v 4.500000 0.000000 2.500000
v 5.499999 0.000000 2.500000
v 6.500000 0.000000 2.500000
v 7.499999 0.000000 2.500000
v 8.499999 0.000000 2.500000
v 9.500000 0.000000 2.500000
v 10.499999 0.000000 2.500000
v 11.499999 0.000000 2.500000
v 12.500000 0.000000 2.500000
v -12.500000 0.000000 1.500000
v -11.500000 0.000000 1.500000
v -10.500000 0.000000 1.500000
v -9.500000 0.000000 1.500000
v -8.500000 0.000000 1.500000
v -7.500000 0.000000 1.500000
v -6.500000 0.000000 1.500000
v -5.500000 0.000000 1.500000
v -4.500000 0.000000 1.500000
v -3.500000 0.000000 1.500000
v -2.500000 0.000000 1.500000
v -1.500000 0.000000 1.500000
v -0.500000 0.000000 1.500000
v 0.500000 0.000000 1.500000
v 1.500000 0.000000 1.500000
v 2.499999 0.000000 1.500000
v 3.500000 0.000000 1.500000
v 4.500000 0.000000 1.500000
v 5.499999 0.000000 1.500000
v 6.500000 0.000000 1.500000
v 7.499999 0.000000 1.500000
v 8.499999 0.000000 1.500000
v 9.500000 0.000000 1.500000
v 10.499999 0.000000 1.500000
v 11.499999 0.000000 1.500000
v 12.500000 0.000000 1.500000
v -12.500000 0.000000 0.500000
v -11.500000 0.000000 0.500000
v -10.500000 0.000000 0.500000
v -9.500000 0.000000 0.500000
v -8.500000 0.000000 0.500000
v -7.500000 0.000000 0.500000
v -6.500000 0.000000 0.500000
v -5.500000 0.000000 0.500000
v -4.500000 0.000000 0.500000
v -3.500000 0.000000 0.500000
v -2.500000 0.000000 0.500000
v -1.500000 0.000000 0.500000
v -0.500000 0.000000 0.500000
v 0.500000 0.000000 0.500000
v 1.500000 0.000000 0.500000
v 2.499999 0.000000 0.500000
v 3.500000 0.000000 0.500000
v 4.500000 0.000000 0.500000
v 5.499999 0.000000 0.500000
v 6.500000 0.000000 0.500000
v 7.499999 0.000000 0.500000
v 8.499999 0.000000 0.500000
v 9.500000 0.000000 0.500000
v 10.499999 0.000000 0.500000
v 11.499999 0.000000 0.500000
v 12.500000 0.000000 0.500000
v -12.500000 0.000000 -0.500000
v -11.500000 0.000000 -0.500000
v -10.500000 0.000000 -0.500000
v -9.500000 0.000000 -0.500000
v -8.500000 0.000000 -0.500000
v -7.500000 0.000000 -0.500000
v -6.500000 0.000000 -0.500000
v -5.500000 0.000000 -0.500000
v -4.500000 0.000000 -0.500000
v -3.500000 0.000000 -0.500000
v -2.500000 0.000000 -0.500000
v -1.500000 0.000000 -0.500000
v -0.500000 0.000000 -0.500000
v 0.500000 0.000000 -0.500000
v 1.500000 0.000000 -0.500000
v 2.499999 0.000000 -0.500000
v 3.500000 0.000000 -0.500000
v 4.500000 0.000000 -0.500000
v 5.499999 0.000000 -0.500000
v 6.500000 0.000000 -0.500000
v 7.499999 0.000000 -0.500000
v 8.499999 0.000000 -0.500000
v 9.500000 0.000000 -0.500000
v 10.499999 0.000000 -0.500000
v 11.499999 0.000000 -0.500000
v 12.500000 0.000000 -0.500000
v -12.500000 0.000000 -1.500000
v -11.500000 0.000000 -1.500000
v -10.500000 0.000000 -1.500000
v -9.500000 0.000000 -1.500000
v -8.500000 0.000000 -1.500000
v -7.500000 0.000000 -1.500000
v -6.500000 0.000000 -1.500000
v -5.500000 0.000000 -1.500000
v -4.500000 0.000000 -1.500000
v -3.500000 0.000000 -1.500000
v -2.500000 0.000000 -1.500000
v -1.500000 0.000000 -1.500000
v -0.500000 0.000000 -1.500000
v 0.500000 0.000000 -1.500000
v 1.500000 0.000000 -1.500000
v 2.499999 0.000000 -1.500000
v 3.500000 0.000000 -1.500000
v 4.500000 0.000000 -1.500000
v 5.499999 0.000000 -1.500000
v 6.500000 0.000000 -1.500000
v 7.499999 0.000000 -1.500000
v 8.499999 0.000000 -1.500000
v 9.500000 0.000000 -1.500000
v 10.499999 0.000000 -1.500000
v 11.499999 0.000000 -1.500000
v 12.500000 0.000000 -1.500000
v -12.500000 0.000000 -2.499999
v -11.500000 0.000000 -2.499999
v -10.500000 0.000000 -2.499999
v -9.500000 0.000000 -2.499999
v -8.500000 0.000000 -2.499999
v -7.500000 0.000000 -2.499999
v -6.500000 0.000000 -2.499999
v -5.500000 0.000000 -2.499999
v -4.500000 0.000000 -2.499999
v -3.500000 0.000000 -2.499999
v -2.500000 0.000000 -2.499999
v -1.500000 0.000000 -2.499999
v -0.500000 0.000000 -2.499999
v 0.500000 0.000000 -2.499999
v 1.500000 0.000000 -2.499999
v 2.499999 0.000000 -2.499999
v 3.500000 0.000000 -2.499999
v 4.500000 0.000000 -2.499999
v 5.499999 0.000000 -2.499999
v 6.500000 0.000000 -2.499999
v 7.499999 0.000000 -2.499999
v 8.499999 0.000000 -2.499999
v 9.500000 0.000000 -2.499999
v 10.499999 0.000000 -2.499999
v 11.499999 0.000000 -2.499999
v 12.500000 0.000000 -2.499999
v -12.500000 0.000000 -3.500000
v -11.500000 0.000000 -3.500000
v -10.500000 0.000000 -3.500000
v -9.500000 0.000000 -3.500000
v -8.500000 0.000000 -3.500000
v -7.500000 0.000000 -3.500000
v -6.500000 0.000000 -3.500000
v -5.500000 0.000000 -3.500000
v -4.500000 0.000000 -3.500000
v -3.500000 0.000000 -3.500000
v -2.500000 0.000000 -3.500000
v -1.500000 0.000000 -3.500000
v -0.500000 0.000000 -3.500000
v 0.500000 0.000000 -3.500000
v 1.500000 0.000000 -3.500000
v 2.499999 0.000000 -3.500000
v 3.500000 0.000000 -3.500000
v 4.500000 0.000000 -3.500000
v 5.499999 0.000000 -3.500000
v 6.500000 0.000000 -3.500000
v 7.499999 0.000000 -3.500000
v 8.499999 0.000000 -3.500000
v 9.500000 0.000000 -3.500000
v 10.499999 0.000000 -3.500000
v 11.499999 0.000000 -3.500000
v 12.500000 0.000000 -3.500000
v -12.500000 0.000000 -4.500000
v -11.500000 0.000000 -4.500000
v -10.500000 0.000000 -4.500000
v -9.500000 0.000000 -4.500000
v -8.500000 0.000000 -4.500000
v -7.500000 0.000000 -4.500000
v -6.500000 0.000000 -4.500000
v -5.500000 0.000000 -4.500000
v -4.500000 0.000000 -4.500000
v -3.500000 0.000000 -4.500000
v -2.500000 0.000000 -4.500000
v -1.500000 0.000000 -4.500000
v -0.500000 0.000000 -4.500000
v 0.500000 0.000000 -4.500000
v 1.500000 0.000000 -4.500000
v 2.499999 0.000000 -4.500000
v 3.500000 0.000000 -4.500000
v 4.500000 0.000000 -4.500000
v 5.499999 0.000000 -4.500000
v 6.500000 0.000000 -4.500000
v 7.499999 0.000000 -4.500000
v 8.499999 0.000000 -4.500000
v 9.500000 0.000000 -4.500000
v 10.499999 0.000000 -4.500000
v 11.499999 0.000000 -4.500000
v 12.500000 0.000000 -4.500000
v -12.500000 0.000000 -5.499999
v -11.500000 0.000000 -5.499999
v -10.500000 0.000000 -5.499999
v -9.500000 0.000000 -5.499999
v -8.500000 0.000000 -5.499999
v -7.500000 0.000000 -5.499999
v -6.500000 0.000000 -5.499999
v -5.500000 0.000000 -5.499999
v -4.500000 0.000000 -5.499999
v -3.500000 0.000000 -5.499999
v -2.500000 0.000000 -5.499999
v -1.500000 0.000000 -5.499999
v -0.500000 0.000000 -5.499999
v 0.500000 0.000000 -5.499999
v 1.500000 0.000000 -5.499999
v 2.499999 0.000000 -5.499999
v 3.500000 0.000000 -5.499999
v 4.500000 0.000000 -5.499999
v 5.499999 0.000000 -5.499999
v 6.500000 0.000000 -5.499999
v 7.499999 0.000000 -5.499999
v 8.499999 0.000000 -5.499999
v 9.500000 0.000000 -5.499999
v 10.499999 0.000000 -5.499999
v 11.499999 0.000000 -5.499999
v 12.500000 0.000000 -5.499999
v -12.500000 0.000000 -6.500000
v -11.500000 0.000000 -6.500000
v -10.500000 0.000000 -6.500000
v -9.500000 0.000000 -6.500000
v -8.500000 0.000000 -6.500000
v -7.500000 0.000000 -6.500000
v -6.500000 0.000000 -6.500000
v -5.500000 0.000000 -6.500000
v -4.500000 0.000000 -6.500000
v -3.500000 0.000000 -6.500000
v -2.500000 0.000000 -6.500000
v -1.500000 0.000000 -6.500000
v -0.500000 0.000000 -6.500000
v 0.500000 0.000000 -6.500000
v 1.500000 0.000000 -6.500000
v 2.499999 0.000000 -6.500000
v 3.500000 0.000000 -6.500000
v 4.500000 0.000000 -6.500000
v 5.499999 0.000000 -6.500000
v 6.500000 0.000000 -6.500000
v 7.499999 0.000000 -6.500000
v 8.499999 0.000000 -6.500000
v 9.500000 0.000000 -6.500000
v 10.499999 0.000000 -6.500000
v 11.499999 0.000000 -6.500000
v 12.500000 0.000000 -6.500000
v -12.500000 0.000000 -7.499999
v -11.500000 0.000000 -7.499999
v -10.500000 0.000000 -7.499999
v -9.500000 0.000000 -7.499999
v -8.500000 0.000000 -7.499999
v -7.500000 0.000000 -7.499999
v -6.500000 0.000000 -7.499999
v -5.500000 0.000000 -7.499999
v -4.500000 0.000000 -7.499999
v -3.500000 0.000000 -7.499999
v -2.500000 0.000000 -7.499999
v -1.500000 0.000000 -7.499999
v -0.500000 0.000000 -7.499999
v 0.500000 0.000000 -7.499999
v 1.500000 0.000000 -7.499999
v 2.499999 0.000000 -7.499999
v 3.500000 0.000000 -7.499999
v 4.500000 0.000000 -7.499999
v 5.499999 0.000000 -7.499999
v 6.500000 0.000000 -7.499999
v 7.499999 0.000000 -7.499999
v 8.499999 0.000000 -7.499999
v 9.500000 0.000000 -7.499999
v 10.499999 0.000000 -7.499999
v 11.499999 0.000000 -7.499999
v 12.500000 0.000000 -7.499999
v -12.500000 0.000000 -8.499999
v -11.500000 0.000000 -8.499999
v -10.500000 0.000000 -8.499999
v -9.500000 0.000000 -8.499999
v -8.500000 0.000000 -8.499999
v -7.500000 0.000000 -8.499999
v -6.500000 0.000000 -8.499999
v -5.500000 0.000000 -8.499999
v -4.500000 0.000000 -8.499999
v -3.500000 0.000000 -8.499999
v -2.500000 0.000000 -8.499999
v -1.500000 0.000000 -8.499999
v -0.500000 0.000000 -8.499999
v 0.500000 0.000000 -8.499999
v 1.500000 0.000000 -8.499999
v 2.499999 0.000000 -8.499999
v 3.500000 0.000000 -8.499999
v 4.500000 0.000000 -8.499999
v 5.499999 0.000000 -8.499999
v 6.500000 0.000000 -8.499999
v 7.499999 0.000000 -8.499999
v 8.499999 0.000000 -8.499999
v 9.500000 0.000000 -8.499999
v 10.499999 0.000000 -8.499999
v 11.499999 0.000000 -8.499999
v 12.500000 0.000000 -8.499999
v -12.500000 0.000000 -9.500000
v -11.500000 0.000000 -9.500000
v -10.500000 0.000000 -9.500000
v -9.500000 0.000000 -9.500000
v -8.500000 0.000000 -9.500000
v -7.500000 0.000000 -9.500000
v -6.500000 0.000000 -9.500000
v -5.500000 0.000000 -9.500000
v -4.500000 0.000000 -9.500000
v -3.500000 0.000000 -9.500000
v -2.500000 0.000000 -9.500000
v -1.500000 0.000000 -9.500000
v -0.500000 0.000000 -9.500000
v 0.500000 0.000000 -9.500000
v 1.500000 0.000000 -9.500000
v 2.499999 0.000000 -9.500000
v 3.500000 0.000000 -9.500000
v 4.500000 0.000000 -9.500000
v 5.499999 0.000000 -9.500000
v 6.500000 0.000000 -9.500000
v 7.499999 0.000000 -9.500000
v 8.499999 0.000000 -9.500000
v 9.500000 0.000000 -9.500000
v 10.499999 0.000000 -9.500000
v 11.499999 0.000000 -9.500000
v 12.500000 0.000000 -9.500000
v -12.500000 0.000000 -10.499999
v -11.500000 0.000000 -10.499999
v -10.500000 0.000000 -10.499999
v -9.500000 0.000000 -10.499999
v -8.500000 0.000000 -10.499999
v -7.500000 0.000000 -10.499999
v -6.500000 0.000000 -10.499999
v -5.500000 0.000000 -10.499999
v -4.500000 0.000000 -10.499999
v -3.500000 0.000000 -10.499999
v -2.500000 0.000000 -10.499999
v -1.500000 0.000000 -10.499999
v -0.500000 0.000000 -10.499999
v 0.500000 0.000000 -10.499999
v 1.500000 0.000000 -10.499999
v 2.499999 0.000000 -10.499999
v 3.500000 0.000000 -10.499999
v 4.500000 0.000000 -10.499999
v 5.499999 0.000000 -10.499999
v 6.500000 0.000000 -10.499999
v 7.499999 0.000000 -10.499999
v 8.499999 0.000000 -10.499999
v 9.500000 0.000000 -10.499999
v 10.499999 0.000000 -10.499999
v 11.499999 0.000000 -10.499999
v 12.500000 0.000000 -10.499999
v -12.500000 0.000000 -11.499999
v -11.500000 0.000000 -11.499999
v -10.500000 0.000000 -11.499999
v -9.500000 0.000000 -11.499999
v -8.500000 0.000000 -11.499999
v -7.500000 0.000000 -11.499999
v -6.500000 0.000000 -11.499999
v -5.500000 0.000000 -11.499999
v -4.500000 0.000000 -11.499999
v -3.500000 0.000000 -11.499999
v -2.500000 0.000000 -11.499999
v -1.500000 0.000000 -11.499999
v -0.500000 0.000000 -11.499999
v 0.500000 0.000000 -11.499999
v 1.500000 0.000000 -11.499999
v 2.499999 0.000000 -11.499999
v 3.500000 0.000000 -11.499999
v 4.500000 0.000000 -11.499999
v 5.499999 0.000000 -11.499999
v 6.500000 0.000000 -11.499999
v 7.499999 0.000000 -11.499999
v 8.499999 0.000000 -11.499999
v 9.500000 0.000000 -11.499999
v 10.499999 0.000000 -11.499999
v 11.499999 0.000000 -11.499999
v 12.500000 0.000000 -11.499999
v -12.500000 0.000000 -12.500000
v -11.500000 0.000000 -12.500000
v -10.500000 0.000000 -12.500000
v -9.500000 0.000000 -12.500000
v -8.500000 0.000000 -12.500000
v -7.500000 0.000000 -12.500000
v -6.500000 0.000000 -12.500000
v -5.500000 0.000000 -12.500000
v -4.500000 0.000000 -12.500000
v -3.500000 0.000000 -12.500000
v -2.500000 0.000000 -12.500000
v -1.500000 0.000000 -12.500000
v -0.500000 0.000000 -12.500000
v 0.500000 0.000000 -12.500000
v 1.500000 0.000000 -12.500000
v 2.499999 0.000000 -12.500000
v 3.500000 0.000000 -12.500000
v 4.500000 0.000000 -12.500000
v 5.499999 0.000000 -12.500000
v 6.500000 0.000000 -12.500000
v 7.499999 0.000000 -12.500000
v 8.499999 0.000000 -12.500000
v 9.500000 0.000000 -12.500000
v 10.499999 0.000000 -12.500000
v 11.499999 0.000000 -12.500000
v 12.500000 0.000000 -12.500000
vn -0.0000 1.0000 -0.0000
vt -12.000002 -12.000002
vt -11.000002 -12.000002
vt -11.000002 -11.000002
vt -12.000002 -11.000002
vt -10.000002 -12.000002
vt -10.000002 -11.000002
vt -9.000001 -12.000002
vt -9.000001 -11.000002
vt -8.000002 -12.000002
vt -8.000002 -11.000002
vt -7.000002 -12.000002
vt -7.000002 -11.000002
vt -6.000002 -12.000002
vt -6.000002 -11.000002
vt -5.000003 -12.000002
vt -5.000003 -11.000002
vt -4.000002 -12.000002
vt -4.000002 -11.000002
vt -3.000003 -12.000002
vt -3.000003 -11.000002
vt -2.000003 -12.000002
vt -2.000003 -11.000002
vt -1.000003 -12.000002
vt -1.000003 -11.000002
vt -0.000003 -12.000002
vt -0.000003 -11.000002
vt 0.999997 -12.000002
vt 0.999997 -11.000002
vt 1.999997 -12.000002
vt 1.999997 -11.000002
vt 2.999998 -12.000002
vt 2.999998 -11.000002
vt 3.999998 -12.000002
vt 3.999998 -11.000002
vt 4.999999 -12.000002
vt 4.999999 -11.000002
vt 5.999999 -12.000002
vt 5.999999 -11.000002
vt 7.000000 -12.000002
vt 7.000000 -11.000002
vt 8.000001 -12.000002
vt 8.000001 -11.000002
vt 9.000001 -12.000002
vt 9.000001 -11.000002
vt 10.000001 -12.000002
vt 10.000001 -11.000002
vt 11.000002 -12.000002
vt 11.000002 -11.000002
vt 12.000003 -12.000002
vt 12.000003 -11.000002
vt 13.000002 -12.000002
vt 13.000002 -11.000002
vt 12.000001 -11.000002
vt -11.000002 -10.000002
vt -12.000002 -10.000002
vt -10.000002 -10.000002
vt -9.000001 -10.000002
vt -8.000002 -10.000002
vt -7.000002 -10.000002
vt -6.000002 -10.000002
vt -5.000003 -10.000002
vt -4.000002 -10.000002
vt -3.000003 -10.000002
vt -2.000003 -10.000002
vt -1.000003 -10.000002
vt -0.000003 -10.000002
vt 0.999997 -10.000002
vt 1.999997 -10.000002
vt 2.999998 -10.000002
vt 3.999998 -10.000002
vt 4.999999 -10.000002
vt 5.999999 -10.000002
vt 7.000000 -10.000002
vt 8.000001 -10.000002
vt 9.000001 -10.000002
vt 10.000001 -10.000002
vt 11.000002 -10.000002
vt 12.000003 -10.000002
vt 13.000002 -10.000002
vt 12.000001 -10.000002
vt -11.000002 -9.000001
vt -12.000002 -9.000001
vt -10.000002 -9.000001
vt -9.000001 -9.000001
vt -8.000002 -9.000001
vt -7.000002 -9.000001
vt -6.000002 -9.000001
vt -5.000003 -9.000001
vt -4.000002 -9.000001
vt -3.000003 -9.000001
vt -2.000003 -9.000001
vt -1.000003 -9.000001
vt -0.000003 -9.000001
vt 0.999997 -9.000001
vt 1.999997 -9.000001
vt 2.999998 -9.000001
vt 3.999998 -9.000001
vt 4.999999 -9.000001
vt 5.999999 -9.000001
vt 7.000000 -9.000001
vt 8.000001 -9.000001
vt 9.000001 -9.000001
vt 10.000001 -9.000001
vt 11.000002 -9.000001
vt 12.000003 -9.000001
vt 13.000002 -9.000001
vt 12.000001 -9.000001
vt -11.000002 -8.000002
vt -12.000002 -8.000002
vt -10.000002 -8.000002
vt -9.000001 -8.000002
vt -8.000002 -8.000002
vt -7.000002 -8.000002
vt -6.000002 -8.000002
vt -5.000003 -8.000002
vt -4.000002 -8.000002
vt -3.000003 -8.000002
vt -2.000003 -8.000002
vt -1.000003 -8.000002
vt -0.000003 -8.000002
vt 0.999997 -8.000002
vt 1.999997 -8.000002
vt 2.999998 -8.000002
vt 3.999998 -8.000002
vt 4.999999 -8.000002
vt 5.999999 -8.000002
vt 7.000000 -8.000002
vt 8.000001 -8.000002
vt 9.000001 -8.000002
vt 10.000001 -8.000002
vt 11.000002 -8.000002
vt 12.000003 -8.000002
vt 13.000002 -8.000002
vt 12.000001 -8.000002
vt -11.000002 -7.000002
vt -12.000002 -7.000002
vt -10.000002 -7.000002
vt -9.000001 -7.000002
vt -8.000002 -7.000002
vt -7.000002 -7.000002
vt -6.000002 -7.000002
vt -5.000003 -7.000002
vt -4.000002 -7.000002
vt -3.000003 -7.000002
vt -2.000003 -7.000002
vt -1.000003 -7.000002
vt -0.000003 -7.000002
vt 0.999997 -7.000002
vt 1.999997 -7.000002
vt 2.999998 -7.000002
vt 3.999998 -7.000002
vt 4.999999 -7.000002
vt 5.999999 -7.000002
vt 7.000000 -7.000002
vt 8.000001 -7.000002
vt 9.000001 -7.000002
vt 10.000001 -7.000002
vt 11.000002 -7.000002
vt 12.000003 -7.000002
vt 13.000002 -7.000002
vt 12.000001 -7.000002
vt -11.000002 -6.000002
vt -12.000002 -6.000002
vt -10.000002 -6.000002
vt -9.000001 -6.000002
vt -8.000002 -6.000002
vt -7.000002 -6.000002
vt -6.000002 -6.000002
vt -5.000003 -6.000002
vt -4.000002 -6.000002
vt -3.000003 -6.000002
vt -2.000003 -6.000002
vt -1.000003 -6.000002
vt -0.000003 -6.000002
vt 0.999997 -6.000002
vt 1.999997 -6.000002
vt 2.999998 -6.000002
vt 3.999998 -6.000002
vt 4.999999 -6.000002
vt 5.999999 -6.000002
vt 7.000000 -6.000002
vt 8.000001 -6.000002
vt 9.000001 -6.000002
vt 10.000001 -6.000002
vt 11.000002 -6.000002
vt 12.000003 -6.000002
vt 13.000002 -6.000002
vt 12.000001 -6.000002
vt -11.000002 -5.000003
vt -12.000002 -5.000003
vt -10.000002 -5.000003
vt -9.000001 -5.000003
vt -8.000002 -5.000003
vt -7.000002 -5.000003
vt -6.000002 -5.000003
vt -5.000003 -5.000003
vt -4.000002 -5.000003
vt -3.000003 -5.000003
vt -2.000003 -5.000003
vt -1.000003 -5.000003
vt -0.000003 -5.000003
vt 0.999997 -5.000003
vt 1.999997 -5.000003
vt 2.999998 -5.000003
vt 3.999998 -5.000003
vt 4.999999 -5.000003
vt 5.999999 -5.000003
vt 7.000000 -5.000003
vt 8.000001 -5.000003
vt 9.000001 -5.000003
vt 10.000001 -5.000003
vt 11.000002 -5.000003
vt 12.000003 -5.000003
vt 13.000002 -5.000003
vt 12.000001 -5.000003
vt -11.000002 -4.000002
vt -12.000002 -4.000002
vt -10.000002 -4.000002
vt -9.000001 -4.000002
vt -8.000002 -4.000002
vt -7.000002 -4.000002
vt -6.000002 -4.000002
vt -5.000003 -4.000002
vt -4.000002 -4.000002
vt -3.000003 -4.000002
vt -2.000003 -4.000002
vt -1.000003 -4.000002
vt -0.000003 -4.000002
vt 0.999997 -4.000002
vt 1.999997 -4.000002
vt 2.999998 -4.000002
vt 3.999998 -4.000002
vt 4.999999 -4.000002
vt 5.999999 -4.000002
vt 7.000000 -4.000002
vt 8.000001 -4.000002
vt 9.000001 -4.000002
vt 10.000001 -4.000002
vt 11.000002 -4.000002
vt 12.000003 -4.000002
vt 13.000002 -4.000002
vt 12.000001 -4.000002
vt -11.000002 -3.000003
vt -12.000002 -3.000003
vt -10.000002 -3.000003
vt -9.000001 -3.000003
vt -8.000002 -3.000003
vt -7.000002 -3.000003
vt -6.000002 -3.000003
vt -5.000003 -3.000003
vt -4.000002 -3.000003
vt -3.000003 -3.000003
vt -2.000003 -3.000003
vt -1.000003 -3.000003
vt -0.000003 -3.000003
vt 0.999997 -3.000003
vt 1.999997 -3.000003
vt 2.999998 -3.000003
vt 3.999998 -3.000003
vt 4.999999 -3.000003
vt 5.999999 -3.000003
vt 7.000000 -3.000003
vt 8.000001 -3.000003
vt 9.000001 -3.000003
vt 10.000001 -3.000003
vt 11.000002 -3.000003
vt 12.000003 -3.000003
vt 13.000002 -3.000003
vt 12.000001 -3.000003
vt -11.000002 -2.000003
vt -12.000002 -2.000003
vt -10.000002 -2.000003
vt -9.000001 -2.000003
vt -8.000002 -2.000003
vt -7.000002 -2.000003
vt -6.000002 -2.000003
vt -5.000003 -2.000003
vt -4.000002 -2.000003
vt -3.000003 -2.000003
vt -2.000003 -2.000003
vt -1.000003 -2.000003
vt -0.000003 -2.000003
vt 0.999997 -2.000003
vt 1.999997 -2.000003
vt 2.999998 -2.000003
vt 3.999998 -2.000003
vt 4.999999 -2.000003
vt 5.999999 -2.000003
vt 7.000000 -2.000003
vt 8.000001 -2.000003
vt 9.000001 -2.000003
vt 10.000001 -2.000003
vt 11.000002 -2.000003
vt 12.000003 -2.000003
vt 13.000002 -2.000003
vt 12.000001 -2.000003
vt -11.000002 -1.000003
vt -12.000002 -1.000003
vt -10.000002 -1.000003
vt -9.000001 -1.000003
vt -8.000002 -1.000003
vt -7.000002 -1.000003
vt -6.000002 -1.000003
vt -5.000003 -1.000003
vt -4.000002 -1.000003
vt -3.000003 -1.000003
vt -2.000003 -1.000003
vt -1.000003 -1.000003
vt -0.000003 -1.000003
vt 0.999997 -1.000003
vt 1.999997 -1.000003
vt 2.999998 -1.000003
vt 3.999998 -1.000003
vt 4.999999 -1.000003
vt 5.999999 -1.000003
vt 7.000000 -1.000003
vt 8.000001 -1.000003
vt 9.000001 -1.000003
vt 10.000001 -1.000003
vt 11.000002 -1.000003
vt 12.000003 -1.000003
vt 13.000002 -1.000003
vt 12.000001 -1.000003
vt -11.000002 -0.000003
vt -12.000002 -0.000003
vt -10.000002 -0.000003
vt -9.000001 -0.000003
vt -8.000002 -0.000003
vt -7.000002 -0.000003
vt -6.000002 -0.000003
vt -5.000003 -0.000003
vt -4.000002 -0.000003
vt -3.000003 -0.000003
vt -2.000003 -0.000003
vt -1.000003 -0.000003
vt -0.000003 -0.000003
vt 0.999997 -0.000003
vt 1.999997 -0.000003
vt 2.999998 -0.000003
vt 3.999998 -0.000003
vt 4.999999 -0.000003
vt 5.999999 -0.000003
vt 7.000000 -0.000003
vt 8.000001 -0.000003
vt 9.000001 -0.000003
vt 10.000001 -0.000003
vt 11.000002 -0.000003
vt 12.000003 -0.000003
vt 13.000002 -0.000003
vt 12.000001 -0.000003
vt -11.000002 0.999997
vt -12.000002 0.999997
vt -10.000002 0.999997
vt -9.000001 0.999997
vt -8.000002 0.999997
vt -7.000002 0.999997
vt -6.000002 0.999997
vt -5.000003 0.999997
vt -4.000002 0.999997
vt -3.000003 0.999997
vt -2.000003 0.999997
vt -1.000003 0.999997
vt -0.000003 0.999997
vt 0.999997 0.999997
vt 1.999997 0.999997
vt 2.999998 0.999997
vt 3.999998 0.999997
vt 4.999999 0.999997
vt 5.999999 0.999997
vt 7.000000 0.999997
vt 8.000001 0.999997
vt 9.000001 0.999997
vt 10.000001 0.999997
vt 11.000002 0.999997
vt 12.000003 0.999997
vt 13.000002 0.999997
vt 12.000001 0.999997
vt -11.000002 1.999997
vt -12.000002 1.999997
vt -10.000002 1.999997
vt -9.000001 1.999997
vt -8.000002 1.999997
vt -7.000002 1.999997
vt -6.000002 1.999997
vt -5.000003 1.999997
vt -4.000002 1.999997
vt -3.000003 1.999997
vt -2.000003 1.999997
vt -1.000003 1.999997
vt -0.000003 1.999997
vt 0.999997 1.999997
vt 1.999997 1.999997
vt 2.999998 1.999997
vt 3.999998 1.999997
vt 4.999999 1.999997
vt 5.999999 1.999997
vt 7.000000 1.999997
vt 8.000001 1.999997
vt 9.000001 1.999997
vt 10.000001 1.999997
vt 11.000002 1.999997
vt 12.000003 1.999997
vt 13.000002 1.999997
vt 12.000001 1.999997
vt -11.000002 2.999998
vt -12.000002 2.999998
vt -10.000002 2.999998
vt -9.000001 2.999998
vt -8.000002 2.999998
vt -7.000002 2.999998
vt -6.000002 2.999998
vt -5.000003 2.999998
vt -4.000002 2.999998
vt -3.000003 2.999998
vt -2.000003 2.999998
vt -1.000003 2.999998
vt -0.000003 2.999998
vt 0.999997 2.999998
vt 1.999997 2.999998
vt 2.999998 2.999998
vt 3.999998 2.999998
vt 4.999999 2.999998
vt 5.999999 2.999998
vt 7.000000 2.999998
vt 8.000001 2.999998
vt 9.000001 2.999998
vt 10.000001 2.999998
vt 11.000002 2.999998
vt 12.000003 2.999998
vt 13.000002 2.999998
vt 12.000001 2.999998
vt -11.000002 3.999998
vt -12.000002 3.999998
vt -10.000002 3.999998
vt -9.000001 3.999998
vt -8.000002 3.999998
vt -7.000002 3.999998
vt -6.000002 3.999998
vt -5.000003 3.999998
vt -4.000002 3.999998
vt -3.000003 3.999998
vt -2.000003 3.999998
vt -1.000003 3.999998
vt -0.000003 3.999998
vt 0.999997 3.999998
vt 1.999997 3.999998
vt 2.999998 3.999998
vt 3.999998 3.999998
vt 4.999999 3.999998
vt 5.999999 3.999998
vt 7.000000 3.999998
vt 8.000001 3.999998
vt 9.000001 3.999998
vt 10.000001 3.999998
vt 11.000002 3.999998
vt 12.000003 3.999998
vt 13.000002 3.999998
vt 12.000001 3.999998
vt -11.000002 4.999999
vt -12.000002 4.999999
vt -10.000002 4.999999
vt -9.000001 4.999999
vt -8.000002 4.999999
vt -7.000002 4.999999
vt -6.000002 4.999999
vt -5.000003 4.999999
vt -4.000002 4.999999
vt -3.000003 4.999999
vt -2.000003 4.999999
vt -1.000003 4.999999
vt -0.000003 4.999999
vt 0.999997 4.999999
vt 1.999997 4.999999
vt 2.999998 4.999999
vt 3.999998 4.999999
vt 4.999999 4.999999
vt 5.999999 4.999999
vt 7.000000 4.999999
vt 8.000001 4.999999
vt 9.000001 4.999999
vt 10.000001 4.999999
vt 11.000002 4.999999
vt 12.000003 4.999999
vt 13.000002 4.999999
vt 12.000001 4.999999
vt -11.000002 5.999999
vt -12.000002 5.999999
vt -10.000002 5.999999
vt -9.000001 5.999999
vt -8.000002 5.999999
vt -7.000002 5.999999
vt -6.000002 5.999999
vt -5.000003 5.999999
vt -4.000002 5.999999
vt -3.000003 5.999999
vt -2.000003 5.999999
vt -1.000003 5.999999
vt -0.000003 5.999999
vt 0.999997 5.999999
vt 1.999997 5.999999
vt 2.999998 5.999999
vt 3.999998 5.999999
vt 4.999999 5.999999
vt 5.999999 5.999999
vt 7.000000 5.999999
vt 8.000001 5.999999
vt 9.000001 5.999999
vt 10.000001 5.999999
vt 11.000002 5.999999
vt 12.000003 5.999999
vt 13.000002 5.999999
vt 12.000001 5.999999
vt -11.000002 7.000000
vt -12.000002 7.000000
vt -10.000002 7.000000
vt -9.000001 7.000000
vt -8.000002 7.000000
vt -7.000002 7.000000
vt -6.000002 7.000000
vt -5.000003 7.000000
vt -4.000002 7.000000
vt -3.000003 7.000000
vt -2.000003 7.000000
vt -1.000003 7.000000
vt -0.000003 7.000000
vt 0.999997 7.000000
vt 1.999997 7.000000
vt 2.999998 7.000000
vt 3.999998 7.000000
vt 4.999999 7.000000
vt 5.999999 7.000000
vt 7.000000 7.000000
vt 8.000001 7.000000
vt 9.000001 7.000000
vt 10.000001 7.000000
vt 11.000002 7.000000
vt 12.000003 7.000000
vt 13.000002 7.000000
vt 12.000001 7.000000
vt -11.000002 8.000001
vt -12.000002 8.000001
vt -10.000002 8.000001
vt -9.000001 8.000001
vt -8.000002 8.000001
vt -7.000002 8.000001
vt -6.000002 8.000001
vt -5.000003 8.000001
vt -4.000002 8.000001
vt -3.000003 8.000001
vt -2.000003 8.000001
vt -1.000003 8.000001
vt -0.000003 8.000001
vt 0.999997 8.000001
vt 1.999997 8.000001
vt 2.999998 8.000001
vt 3.999998 8.000001
vt 4.999999 8.000001
vt 5.999999 8.000001
vt 7.000000 8.000001
vt 8.000001 8.000001
vt 9.000001 8.000001
vt 10.000001 8.000001
vt 11.000002 8.000001
vt 12.000003 8.000001
vt 13.000002 8.000001
vt 12.000001 8.000001
vt -11.000002 9.000001
vt -12.000002 9.000001
vt -10.000002 9.000001
vt -9.000001 9.000001
vt -8.000002 9.000001
vt -7.000002 9.000001
vt -6.000002 9.000001
vt -5.000003 9.000001
vt -4.000002 9.000001
vt -3.000003 9.000001
vt -2.000003 9.000001
vt -1.000003 9.000001
vt -0.000003 9.000001
vt 0.999997 9.000001
vt 1.999997 9.000001
vt 2.999998 9.000001
vt 3.999998 9.000001
vt 4.999999 9.000001
vt 5.999999 9.000001
vt 7.000000 9.000001
vt 8.000001 9.000001
vt 9.000001 9.000001
vt 10.000001 9.000001
vt 11.000002 9.000001
vt 12.000003 9.000001
vt 13.000002 9.000001
vt 12.000001 9.000001
vt -11.000002 10.000001
vt -12.000002 10.000001
vt -10.000002 10.000001
vt -9.000001 10.000001
vt -8.000002 10.000001
vt -7.000002 10.000001
vt -6.000002 10.000001
vt -5.000003 10.000001
vt -4.000002 10.000001
vt -3.000003 10.000001
vt -2.000003 10.000001
vt -1.000003 10.000001
vt -0.000003 10.000001
vt 0.999997 10.000001
vt 1.999997 10.000001
vt 2.999998 10.000001
vt 3.999998 10.000001
vt 4.999999 10.000001
vt 5.999999 10.000001
vt 7.000000 10.000001
vt 8.000001 10.000001
vt 9.000001 10.000001
vt 10.000001 10.000001
vt 11.000002 10.000001
vt 12.000003 10.000001
vt 13.000002 10.000001
vt 12.000001 10.000001
vt -11.000002 11.000002
vt -12.000002 11.000002
vt -10.000002 11.000002
vt -9.000001 11.000002
vt -8.000002 11.000002
vt -7.000002 11.000002
vt -6.000002 11.000002
vt -5.000003 11.000002
vt -4.000002 11.000002
vt -3.000003 11.000002
vt -2.000003 11.000002
vt -1.000003 11.000002
vt -0.000003 11.000002
vt 0.999997 11.000002
vt 1.999997 11.000002
vt 2.999998 11.000002
vt 3.999998 11.000002
vt 4.999999 11.000002
vt 5.999999 11.000002
vt 7.000000 11.000002
vt 8.000001 11.000002
vt 9.000001 11.000002
vt 10.000001 11.000002
vt 11.000002 11.000002
vt 12.000003 11.000002
vt 13.000002 11.000002
vt 12.000001 11.000002
vt -11.000002 12.000003
vt -12.000002 12.000003
vt -10.000002 12.000003
vt -9.000001 12.000003
vt -8.000002 12.000003
vt -7.000002 12.000003
vt -6.000002 12.000003
vt -5.000003 12.000003
vt -4.000002 12.000003
vt -3.000003 12.000003
vt -2.000003 12.000003
vt -1.000003 12.000003
vt -0.000003 12.000003
vt 0.999997 12.000003
vt 1.999997 12.000003
vt 2.999998 12.000003
vt 3.999998 12.000003
vt 4.999999 12.000003
vt 5.999999 12.000003
vt 7.000000 12.000003
vt 8.000001 12.000003
vt 9.000001 12.000003
vt 10.000001 12.000003
vt 11.000002 12.000003
vt 12.000003 12.000003
vt 13.000002 12.000003
vt 12.000001 12.000003
vt -12.000002 12.000001
vt -11.000002 12.000001
vt -11.000002 13.000002
vt -12.000002 13.000002
vt -10.000002 12.000001
vt -10.000002 13.000002
vt -9.000001 12.000001
vt -9.000001 13.000002
vt -8.000002 12.000001
vt -8.000002 13.000002
vt -7.000002 12.000001
vt -7.000002 13.000002
vt -6.000002 12.000001
vt -6.000002 13.000002
vt -5.000003 12.000001
vt -5.000003 13.000002
vt -4.000002 12.000001
vt -4.000002 13.000002
vt -3.000003 12.000001
vt -3.000003 13.000002
vt -2.000003 12.000001
vt -2.000003 13.000002
vt -1.000003 12.000001
vt -1.000003 13.000002
vt -0.000003 12.000001
vt -0.000003 13.000002
vt 0.999997 12.000001
vt 0.999997 13.000002
vt 1.999997 12.000001
vt 1.999997 13.000002
vt 2.999998 12.000001
vt 2.999998 13.000002
vt 3.999998 12.000001
vt 3.999998 13.000002
vt 4.999999 12.000001
vt 4.999999 13.000002
vt 5.999999 12.000001
vt 5.999999 13.000002
vt 7.000000 12.000001
vt 7.000000 13.000002
vt 8.000001 12.000001
vt 8.000001 13.000002
vt 9.000001 12.000001
vt 9.000001 13.000002
vt 10.000001 12.000001
vt 10.000001 13.000002
vt 11.000002 12.000001
vt 11.000002 13.000002
vt 12.000003 12.000001
vt 12.000003 13.000002
vt 13.000002 12.000001
vt 13.000002 13.000002
vt 12.000001 13.000002
s 0
f 1/1/1 2/2/1 28/3/1 27/4/1
f 2/2/1 3/5/1 29/6/1 28/3/1
f 3/5/1 4/7/1 30/8/1 29/6/1
f 4/7/1 5/9/1 31/10/1 30/8/1
f 5/9/1 6/11/1 32/12/1 31/10/1
f 6/11/1 7/13/1 33/14/1 32/12/1
f 7/13/1 8/15/1 34/16/1 33/14/1
f 8/15/1 9/17/1 35/18/1 34/16/1
f 9/17/1 10/19/1 36/20/1 35/18/1
f 10/19/1 11/21/1 37/22/1 36/20/1
f 11/21/1 12/23/1 38/24/1 37/22/1
f 12/23/1 13/25/1 39/26/1 38/24/1
f 13/25/1 14/27/1 40/28/1 39/26/1
f 14/27/1 15/29/1 41/30/1 40/28/1
f 15/29/1 16/31/1 42/32/1 41/30/1
f 16/31/1 17/33/1 43/34/1 42/32/1
f 17/33/1 18/35/1 44/36/1 43/34/1
f 18/35/1 19/37/1 45/38/1 44/36/1
f 19/37/1 20/39/1 46/40/1 45/38/1
f 20/39/1 21/41/1 47/42/1 46/40/1
f 21/41/1 22/43/1 48/44/1 47/42/1
f 22/43/1 23/45/1 49/46/1 48/44/1
f 23/45/1 24/47/1 50/48/1 49/46/1
f 24/47/1 25/49/1 51/50/1 50/48/1
f 25/49/1 26/51/1 52/52/1 51/53/1
f 27/4/1 28/3/1 54/54/1 53/55/1
f 28/3/1 29/6/1 55/56/1 54/54/1
f 29/6/1 30/8/1 56/57/1 55/56/1
f 30/8/1 31/10/1 57/58/1 56/57/1
f 31/10/1 32/12/1 58/59/1 57/58/1
f 32/12/1 33/14/1 59/60/1 58/59/1
f 33/14/1 34/16/1 60/61/1 59/60/1
f 34/16/1 35/18/1 61/62/1 60/61/1
f 35/18/1 36/20/1 62/63/1 61/62/1
f 36/20/1 37/22/1 63/64/1 62/63/1
f 37/22/1 38/24/1 64/65/1 63/64/1
f 38/24/1 39/26/1 65/66/1 64/65/1
f 39/26/1 40/28/1 66/67/1 65/66/1
f 40/28/1 41/30/1 67/68/1 66/67/1
f 41/30/1 42/32/1 68/69/1 67/68/1
f 42/32/1 43/34/1 69/70/1 68/69/1
f 43/34/1 44/36/1 70/71/1 69/70/1
f 44/36/1 45/38/1 71/72/1 70/71/1
f 45/38/1 46/40/1 72/73/1 71/72/1
f 46/40/1 47/42/1 73/74/1 72/73/1
f 47/42/1 48/44/1 74/75/1 73/74/1
f 48/44/1 49/46/1 75/76/1 74/75/1
f 49/46/1 50/48/1 76/77/1 75/76/1
f 50/48/1 51/50/1 77/78/1 76/77/1
f 51/50/1 52/52/1 78/79/1 77/80/1
f 53/55/1 54/54/1 80/81/1 79/82/1
f 54/54/1 55/56/1 81/83/1 80/81/1
f 55/56/1 56/57/1 82/84/1 81/83/1
f 56/57/1 57/58/1 83/85/1 82/84/1
f 57/58/1 58/59/1 84/86/1 83/85/1
f 58/59/1 59/60/1 85/87/1 84/86/1
f 59/60/1 60/61/1 86/88/1 85/87/1
f 60/61/1 61/62/1 87/89/1 86/88/1
f 61/62/1 62/63/1 88/90/1 87/89/1
f 62/63/1 63/64/1 89/91/1 88/90/1
f 63/64/1 64/65/1 90/92/1 89/91/1
f 64/65/1 65/66/1 91/93/1 90/92/1
f 65/66/1 66/67/1 92/94/1 91/93/1
f 66/67/1 67/68/1 93/95/1 92/94/1
f 67/68/1 68/69/1 94/96/1 93/95/1
f 68/69/1 69/70/1 95/97/1 94/96/1
f 69/70/1 70/71/1 96/98/1 95/97/1
f 70/71/1 71/72/1 97/99/1 96/98/1
f 71/72/1 72/73/1 98/100/1 97/99/1
f 72/73/1 73/74/1 99/101/1 98/100/1
f 73/74/1 74/75/1 100/102/1 99/101/1
f 74/75/1 75/76/1 101/103/1 100/102/1
f 75/76/1 76/77/1 102/104/1 101/103/1
f 76/77/1 77/78/1 103/105/1 102/104/1
f 77/78/1 78/79/1 104/106/1 103/107/1
f 79/82/1 80/81/1 106/108/1 105/109/1
f 80/81/1 81/83/1 107/110/1 106/108/1
f 81/83/1 82/84/1 108/111/1 107/110/1
f 82/84/1 83/85/1 109/112/1 108/111/1
f 83/85/1 84/86/1 110/113/1 109/112/1
f 84/86/1 85/87/1 111/114/1 110/113/1
f 85/87/1 86/88/1 112/115/1 111/114/1
f 86/88/1 87/89/1 113/116/1 112/115/1
f 87/89/1 88/90/1 114/117/1 113/116/1
f 88/90/1 89/91/1 115/118/1 114/117/1
f 89/91/1 90/92/1 116/119/1 115/118/1
f 90/92/1 91/93/1 117/120/1 116/119/1
f 91/93/1 92/94/1 118/121/1 117/120/1
f 92/94/1 93/95/1 119/122/1 118/121/1
f 93/95/1 94/96/1 120/123/1 119/122/1
f 94/96/1 95/97/1 121/124/1 120/123/1
f 95/97/1 96/98/1 122/125/1 121/124/1
f 96/98/1 97/99/1 123/126/1 122/125/1
f 97/99/1 98/100/1 124/127/1 123/126/1
f 98/100/1 99/101/1 125/128/1 124/127/1
f 99/101/1 100/102/1 126/129/1 125/128/1
f 100/102/1 101/103/1 127/130/1 126/129/1
f 101/103/1 102/104/1 128/131/1 127/130/1
f 102/104/1 103/105/1 129/132/1 128/131/1
f 103/105/1 104/106/1 130/133/1 129/134/1
f 105/109/1 106/108/1 132/135/1 131/136/1
f 106/108/1 107/110/1 133/137/1 132/135/1
f 107/110/1 108/111/1 134/138/1 133/137/1
f 108/111/1 109/112/1 135/139/1 134/138/1
f 109/112/1 110/113/1 136/140/1 135/139/1
f 110/113/1 111/114/1 137/141/1 136/140/1
f 111/114/1 112/115/1 138/142/1 137/141/1
f 112/115/1 113/116/1 139/143/1 138/142/1
f 113/116/1 114/117/1 140/144/1 139/143/1
f 114/117/1 115/118/1 141/145/1 140/144/1
f 115/118/1 116/119/1 142/146/1 141/145/1
f 116/119/1 117/120/1 143/147/1 142/146/1
f 117/120/1 118/121/1 144/148/1 143/147/1
f 118/121/1 119/122/1 145/149/1 144/148/1
f 119/122/1 120/123/1 146/150/1 145/149/1
f 120/123/1 121/124/1 147/151/1 146/150/1
f 121/124/1 122/125/1 148/152/1 147/151/1
f 122/125/1 123/126/1 149/153/1 148/152/1
f 123/126/1 124/127/1 150/154/1 149/153/1
f 124/127/1 125/128/1 151/155/1 150/154/1
f 125/128/1 126/129/1 152/156/1 151/155/1
f 126/129/1 127/130/1 153/157/1 152/156/1
f 127/130/1 128/131/1 154/158/1 153/157/1
f 128/131/1 129/132/1 155/159/1 154/158/1
f 129/132/1 130/133/1 156/160/1 155/161/1
f 131/136/1 132/135/1 158/162/1 157/163/1
f 132/135/1 133/137/1 159/164/1 158/162/1
f 133/137/1 134/138/1 160/165/1 159/164/1
f 134/138/1 135/139/1 161/166/1 160/165/1
f 135/139/1 136/140/1 162/167/1 161/166/1
f 136/140/1 137/141/1 163/168/1 162/167/1
f 137/141/1 138/142/1 164/169/1 163/168/1
f 138/142/1 139/143/1 165/170/1 164/169/1
f 139/143/1 140/144/1 166/171/1 165/170/1
f 140/144/1 141/145/1 167/172/1 166/171/1
f 141/145/1 142/146/1 168/173/1 167/172/1
f 142/146/1 143/147/1 169/174/1 168/173/1
f 143/147/1 144/148/1 170/175/1 169/174/1
f 144/148/1 145/149/1 171/176/1 170/175/1
f 145/149/1 146/150/1 172/177/1 171/176/1
f 146/150/1 147/151/1 173/178/1 172/177/1
f 147/151/1 148/152/1 174/179/1 173/178/1
f 148/152/1 149/153/1 175/180/1 174/179/1
f 149/153/1 150/154/1 176/181/1 175/180/1
f 150/154/1 151/155/1 177/182/1 176/181/1
f 151/155/1 152/156/1 178/183/1 177/182/1
f 152/156/1 153/157/1 179/184/1 178/183/1
f 153/157/1 154/158/1 180/185/1 179/184/1
f 154/158/1 155/159/1 181/186/1 180/185/1
f 155/159/1 156/160/1 182/187/1 181/188/1
f 157/163/1 158/162/1 184/189/1 183/190/1
f 158/162/1 159/164/1 185/191/1 184/189/1
f 159/164/1 160/165/1 186/192/1 185/191/1
f 160/165/1 161/166/1 187/193/1 186/192/1
f 161/166/1 162/167/1 188/194/1 187/193/1
f 162/167/1 163/168/1 189/195/1 188/194/1
f 163/168/1 164/169/1 190/196/1 189/195/1
f 164/169/1 165/170/1 191/197/1 190/196/1
f 165/170/1 166/171/1 192/198/1 191/197/1
f 166/171/1 167/172/1 193/199/1 192/198/1
f 167/172/1 168/173/1 194/200/1 193/199/1
f 168/173/1 169/174/1 195/201/1 194/200/1
f 169/174/1 170/175/1 196/202/1 195/201/1
f 170/175/1 171/176/1 197/203/1 196/202/1
f 171/176/1 172/177/1 198/204/1 197/203/1
f 172/177/1 173/178/1 199/205/1 198/204/1
f 173/178/1 174/179/1 200/206/1 199/205/1
f 174/179/1 175/180/1 201/207/1 200/206/1
f 175/180/1 176/181/1 202/208/1 201/207/1
f 176/181/1 177/182/1 203/209/1 202/208/1
f 177/182/1 178/183/1 204/210/1 203/209/1
f 178/183/1 179/184/1 205/211/1 204/210/1
f 179/184/1 180/185/1 206/212/1 205/211/1
f 180/185/1 181/186/1 207/213/1 206/212/1
f 181/186/1 182/187/1 208/214/1 207/215/1
f 183/190/1 184/189/1 210/216/1 209/217/1
f 184/189/1 185/191/1 211/218/1 210/216/1
f 185/191/1 186/192/1 212/219/1 211/218/1
f 186/192/1 187/193/1 213/220/1 212/219/1
f 187/193/1 188/194/1 214/221/1 213/220/1
f 188/194/1 189/195/1 215/222/1 214/221/1
f 189/195/1 190/196/1 216/223/1 215/222/1
f 190/196/1 191/197/1 217/224/1 216/223/1
f 191/197/1 192/198/1 218/225/1 217/224/1
f 192/198/1 193/199/1 219/226/1 218/225/1
f 193/199/1 194/200/1 220/227/1 219/226/1
f 194/200/1 195/201/1 221/228/1 220/227/1
f 195/201/1 196/202/1 222/229/1 221/228/1
f 196/202/1 197/203/1 223/230/1 222/229/1
f 197/203/1 198/204/1 224/231/1 223/230/1
f 198/204/1 199/205/1 225/232/1 224/231/1
f 199/205/1 200/206/1 226/233/1 225/232/1
f 200/206/1 201/207/1 227/234/1 226/233/1
f 201/207/1 202/208/1 228/235/1 227/234/1
f 202/208/1 203/209/1 229/236/1 228/235/1
f 203/209/1 204/210/1 230/237/1 229/236/1
f 204/210/1 205/211/1 231/238/1 230/237/1
f 205/211/1 206/212/1 232/239/1 231/238/1
f 206/212/1 207/213/1 233/240/1 232/239/1
f 207/213/1 208/214/1 234/241/1 233/242/1
f 209/217/1 210/216/1 236/243/1 235/244/1
f 210/216/1 211/218/1 237/245/1 236/243/1
f 211/218/1 212/219/1 238/246/1 237/245/1
f 212/219/1 213/220/1 239/247/1 238/246/1
f 213/220/1 214/221/1 240/248/1 239/247/1
f 214/221/1 215/222/1 241/249/1 240/248/1
f 215/222/1 216/223/1 242/250/1 241/249/1
f 216/223/1 217/224/1 243/251/1 242/250/1
f 217/224/1 218/225/1 244/252/1 243/251/1
f 218/225/1 219/226/1 245/253/1 244/252/1
f 219/226/1 220/227/1 246/254/1 245/253/1
f 220/227/1 221/228/1 247/255/1 246/254/1
f 221/228/1 222/229/1 248/256/1 247/255/1
f 222/229/1 223/230/1 249/257/1 248/256/1
f 223/230/1 224/231/1 250/258/1 249/257/1
f 224/231/1 225/232/1 251/259/1 250/258/1
f 225/232/1 226/233/1 252/260/1 251/259/1
f 226/233/1 227/234/1 253/261/1 252/260/1
f 227/234/1 228/235/1 254/262/1 253/261/1
f 228/235/1 229/236/1 255/263/1 254/262/1
f 229/236/1 230/237/1 256/264/1 255/263/1
f 230/237/1 231/238/1 257/265/1 256/264/1
f 231/238/1 232/239/1 258/266/1 257/265/1
f 232/239/1 233/240/1 259/267/1 258/266/1
f 233/240/1 234/241/1 260/268/1 259/269/1
f 235/244/1 236/243/1 262/270/1 261/271/1
f 236/243/1 237/245/1 263/272/1 262/270/1
f 237/245/1 238/246/1 264/273/1 263/272/1
f 238/246/1 239/247/1 265/274/1 264/273/1
f 239/247/1 240/248/1 266/275/1 265/274/1
f 240/248/1 241/249/1 267/276/1 266/275/1
f 241/249/1 242/250/1 268/277/1 267/276/1
f 242/250/1 243/251/1 269/278/1 268/277/1
f 243/251/1 244/252/1 270/279/1 269/278/1
f 244/252/1 245/253/1 271/280/1 270/279/1
f 245/253/1 246/254/1 272/281/1 271/280/1
f 246/254/1 247/255/1 273/282/1 272/281/1
f 247/255/1 248/256/1 274/283/1 273/282/1
f 248/256/1 249/257/1 275/284/1 274/283/1
f 249/257/1 250/258/1 276/285/1 275/284/1
f 250/258/1 251/259/1 277/286/1 276/285/1
f 251/259/1 252/260/1 278/287/1 277/286/1
f 252/260/1 253/261/1 279/288/1 278/287/1
f 253/261/1 254/262/1 280/289/1 279/288/1
f 254/262/1 255/263/1 281/290/1 280/289/1
f 255/263/1 256/264/1 282/291/1 281/290/1
f 256/264/1 257/265/1 283/292/1 282/291/1
f 257/265/1 258/266/1 284/293/1 283/292/1
f 258/266/1 259/267/1 285/294/1 284/293/1
f 259/267/1 260/268/1 286/295/1 285/296/1
f 261/271/1 262/270/1 288/297/1 287/298/1
f 262/270/1 263/272/1 289/299/1 288/297/1
f 263/272/1 264/273/1 290/300/1 289/299/1
f 264/273/1 265/274/1 291/301/1 290/300/1
f 265/274/1 266/275/1 292/302/1 291/301/1
f 266/275/1 267/276/1 293/303/1 292/302/1
f 267/276/1 268/277/1 294/304/1 293/303/1
f 268/277/1 269/278/1 295/305/1 294/304/1
f 269/278/1 270/279/1 296/306/1 295/305/1
f 270/279/1 271/280/1 297/307/1 296/306/1
f 271/280/1 272/281/1 298/308/1 297/307/1
f 272/281/1 273/282/1 299/309/1 298/308/1
f 273/282/1 274/283/1 300/310/1 299/309/1
f 274/283/1 275/284/1 301/311/1 300/310/1
f 275/284/1 276/285/1 302/312/1 301/311/1
f 276/285/1 277/286/1 303/313/1 302/312/1
f 277/286/1 278/287/1 304/314/1 303/313/1
f 278/287/1 279/288/1 305/315/1 304/314/1
f 279/288/1 280/289/1 306/316/1 305/315/1
f 280/289/1 281/290/1 307/317/1 306/316/1
f 281/290/1 282/291/1 308/318/1 307/317/1
f 282/291/1 283/292/1 309/319/1 308/318/1
f 283/292/1 284/293/1 310/320/1 309/319/1
f 284/293/1 285/294/1 311/321/1 310/320/1
f 285/294/1 286/295/1 312/322/1 311/323/1
f 287/298/1 288/297/1 314/324/1 313/325/1
f 288/297/1 289/299/1 315/326/1 314/324/1
f 289/299/1 290/300/1 316/327/1 315/326/1
f 290/300/1 291/301/1 317/328/1 316/327/1
f 291/301/1 292/302/1 318/329/1 317/328/1
f 292/302/1 293/303/1 319/330/1 318/329/1
f 293/303/1 294/304/1 320/331/1 319/330/1
f 294/304/1 295/305/1 321/332/1 320/331/1
f 295/305/1 296/306/1 322/333/1 321/332/1
f 296/306/1 297/307/1 323/334/1 322/333/1
f 297/307/1 298/308/1 324/335/1 323/334/1
f 298/308/1 299/309/1 325/336/1 324/335/1
f 299/309/1 300/310/1 326/337/1 325/336/1
f 300/310/1 301/311/1 327/338/1 326/337/1
f 301/311/1 302/312/1 328/339/1 327/338/1
f 302/312/1 303/313/1 329/340/1 328/339/1
f 303/313/1 304/314/1 330/341/1 329/340/1
f 304/314/1 305/315/1 331/342/1 330/341/1
f 305/315/1 306/316/1 332/343/1 331/342/1
f 306/316/1 307/317/1 333/344/1 332/343/1
f 307/317/1 308/318/1 334/345/1 333/344/1
f 308/318/1 309/319/1 335/346/1 334/345/1
f 309/319/1 310/320/1 336/347/1 335/346/1
f 310/320/1 311/321/1 337/348/1 336/347/1
f 311/321/1 312/322/1 338/349/1 337/350/1
f 313/325/1 314/324/1 340/351/1 339/352/1
f 314/324/1 315/326/1 341/353/1 340/351/1
f 315/326/1 316/327/1 342/354/1 341/353/1
f 316/327/1 317/328/1 343/355/1 342/354/1
f 317/328/1 318/329/1 344/356/1 343/355/1
f 318/329/1 319/330/1 345/357/1 344/356/1
f 319/330/1 320/331/1 346/358/1 345/357/1
f 320/331/1 321/332/1 347/359/1 346/358/1
f 321/332/1 322/333/1 348/360/1 347/359/1
f 322/333/1 323/334/1 349/361/1 348/360/1
f 323/334/1 324/335/1 350/362/1 349/361/1
f 324/335/1 325/336/1 351/363/1 350/362/1
f 325/336/1 326/337/1 352/364/1 351/363/1
f 326/337/1 327/338/1 353/365/1 352/364/1
f 327/338/1 328/339/1 354/366/1 353/365/1
f 328/339/1 329/340/1 355/367/1 354/366/1
f 329/340/1 330/341/1 356/368/1 355/367/1
f 330/341/1 331/342/1 357/369/1 356/368/1
f 331/342/1 332/343/1 358/370/1 357/369/1
f 332/343/1 333/344/1 359/371/1 358/370/1
f 333/344/1 334/345/1 360/372/1 359/371/1
f 334/345/1 335/346/1 361/373/1 360/372/1
f 335/346/1 336/347/1 362/374/1 361/373/1
f 336/347/1 337/348/1 363/375/1 362/374/1
f 337/348/1 338/349/1 364/376/1 363/377/1
f 339/352/1 340/351/1 366/378/1 365/379/1
f 340/351/1 341/353/1 367/380/1 366/378/1
f 341/353/1 342/354/1 368/381/1 367/380/1
f 342/354/1 343/355/1 369/382/1 368/381/1
f 343/355/1 344/356/1 370/383/1 369/382/1
f 344/356/1 345/357/1 371/384/1 370/383/1
f 345/357/1 346/358/1 372/385/1 371/384/1
f 346/358/1 347/359/1 373/386/1 372/385/1
f 347/359/1 348/360/1 374/387/1 373/386/1
f 348/360/1 349/361/1 375/388/1 374/387/1
f 349/361/1 350/362/1 376/389/1 375/388/1
f 350/362/1 351/363/1 377/390/1 376/389/1
f 351/363/1 352/364/1 378/391/1 377/390/1
f 352/364/1 353/365/1 379/392/1 378/391/1
f 353/365/1 354/366/1 380/393/1 379/392/1
f 354/366/1 355/367/1 381/394/1 380/393/1
f 355/367/1 356/368/1 382/395/1 381/394/1
f 356/368/1 357/369/1 383/396/1 382/395/1
f 357/369/1 358/370/1 384/397/1 383/396/1
f 358/370/1 359/371/1 385/398/1 384/397/1
f 359/371/1 360/372/1 386/399/1 385/398/1
f 360/372/1 361/373/1 387/400/1 386/399/1
f 361/373/1 362/374/1 388/401/1 387/400/1
f 362/374/1 363/375/1 389/402/1 388/401/1
f 363/375/1 364/376/1 390/403/1 389/404/1
f 365/379/1 366/378/1 392/405/1 391/406/1
f 366/378/1 367/380/1 393/407/1 392/405/1
f 367/380/1 368/381/1 394/408/1 393/407/1
f 368/381/1 369/382/1 395/409/1 394/408/1
f 369/382/1 370/383/1 396/410/1 395/409/1
f 370/383/1 371/384/1 397/411/1 396/410/1
f 371/384/1 372/385/1 398/412/1 397/411/1
f 372/385/1 373/386/1 399/413/1 398/412/1
f 373/386/1 374/387/1 400/414/1 399/413/1
f 374/387/1 375/388/1 401/415/1 400/414/1
f 375/388/1 376/389/1 402/416/1 401/415/1
f 376/389/1 377/390/1 403/417/1 402/416/1
f 377/390/1 378/391/1 404/418/1 403/417/1
f 378/391/1 379/392/1 405/419/1 404/418/1
f 379/392/1 380/393/1 406/420/1 405/419/1
f 380/393/1 381/394/1 407/421/1 406/420/1
f 381/394/1 382/395/1 408/422/1 407/421/1
f 382/395/1 383/396/1 409/423/1 408/422/1
f 383/396/1 384/397/1 410/424/1 409/423/1
f 384/397/1 385/398/1 411/425/1 410/424/1
f 385/398/1 386/399/1 412/426/1 411/425/1
f 386/399/1 387/400/1 413/427/1 412/426/1
f 387/400/1 388/401/1 414/428/1 413/427/1
f 388/401/1 389/402/1 415/429/1 414/428/1
f 389/402/1 390/403/1 416/430/1 415/431/1
f 391/406/1 392/405/1 418/432/1 417/433/1
f 392/405/1 393/407/1 419/434/1 418/432/1
f 393/407/1 394/408/1 420/435/1 419/434/1
f 394/408/1 395/409/1 421/436/1 420/435/1
f 395/409/1 396/410/1 422/437/1 421/436/1
f 396/410/1 397/411/1 423/438/1 422/437/1
f 397/411/1 398/412/1 424/439/1 423/438/1
f 398/412/1 399/413/1 425/440/1 424/439/1
f 399/413/1 400/414/1 426/441/1 425/440/1
f 400/414/1 401/415/1 427/442/1 426/441/1
f 401/415/1 402/416/1 428/443/1 427/442/1
f 402/416/1 403/417/1 429/444/1 428/443/1
f 403/417/1 404/418/1 430/445/1 429/444/1
f 404/418/1 405/419/1 431/446/1 430/445/1
f 405/419/1 406/420/1 432/447/1 431/446/1
f 406/420/1 407/421/1 433/448/1 432/447/1
f 407/421/1 408/422/1 434/449/1 433/448/1
f 408/422/1 409/423/1 435/450/1 434/449/1
f 409/423/1 410/424/1 436/451/1 435/450/1
f 410/424/1 411/425/1 437/452/1 436/451/1
f 411/425/1 412/426/1 438/453/1 437/452/1
f 412/426/1 413/427/1 439/454/1 438/453/1
f 413/427/1 414/428/1 440/455/1 439/454/1
f 414/428/1 415/429/1 441/456/1 440/455/1
f 415/429/1 416/430/1 442/457/1 441/458/1
f 417/433/1 418/432/1 444/459/1 443/460/1
f 418/432/1 419/434/1 445/461/1 444/459/1
f 419/434/1 420/435/1 446/462/1 445/461/1
f 420/435/1 421/436/1 447/463/1 446/462/1
f 421/436/1 422/437/1 448/464/1 447/463/1
f 422/437/1 423/438/1 449/465/1 448/464/1
f 423/438/1 424/439/1 450/466/1 449/465/1
f 424/439/1 425/440/1 451/467/1 450/466/1
f 425/440/1 426/441/1 452/468/1 451/467/1
f 426/441/1 427/442/1 453/469/1 452/468/1
f 427/442/1 428/443/1 454/470/1 453/469/1
f 428/443/1 429/444/1 455/471/1 454/470/1
f 429/444/1 430/445/1 456/472/1 455/471/1
f 430/445/1 431/446/1 457/473/1 456/472/1
f 431/446/1 432/447/1 458/474/1 457/473/1
f 432/447/1 433/448/1 459/475/1 458/474/1
f 433/448/1 434/449/1 460/476/1 459/475/1
f 434/449/1 435/450/1 461/477/1 460/476/1
f 435/450/1 436/451/1 462/478/1 461/477/1
f 436/451/1 437/452/1 463/479/1 462/478/1
f 437/452/1 438/453/1 464/480/1 463/479/1
f 438/453/1 439/454/1 465/481/1 464/480/1
f 439/454/1 440/455/1 466/482/1 465/481/1
f 440/455/1 441/456/1 467/483/1 466/482/1
f 441/456/1 442/457/1 468/484/1 467/485/1
f 443/460/1 444/459/1 470/486/1 469/487/1
f 444/459/1 445/461/1 471/488/1 470/486/1
f 445/461/1 446/462/1 472/489/1 471/488/1
f 446/462/1 447/463/1 473/490/1 472/489/1
f 447/463/1 448/464/1 474/491/1 473/490/1
f 448/464/1 449/465/1 475/492/1 474/491/1
f 449/465/1 450/466/1 476/493/1 475/492/1
f 450/466/1 451/467/1 477/494/1 476/493/1
f 451/467/1 452/468/1 478/495/1 477/494/1
f 452/468/1 453/469/1 479/496/1 478/495/1
f 453/469/1 454/470/1 480/497/1 479/496/1
f 454/470/1 455/471/1 481/498/1 480/497/1
f 455/471/1 456/472/1 482/499/1 481/498/1
f 456/472/1 457/473/1 483/500/1 482/499/1
f 457/473/1 458/474/1 484/501/1 483/500/1
f 458/474/1 459/475/1 485/502/1 484/501/1
f 459/475/1 460/476/1 486/503/1 485/502/1
f 460/476/1 461/477/1 487/504/1 486/503/1
f 461/477/1 462/478/1 488/505/1 487/504/1
f 462/478/1 463/479/1 489/506/1 488/505/1
f 463/479/1 464/480/1 490/507/1 489/506/1
f 464/480/1 465/481/1 491/508/1 490/507/1
f 465/481/1 466/482/1 492/509/1 491/508/1
f 466/482/1 467/483/1 493/510/1 492/509/1
f 467/483/1 468/484/1 494/511/1 493/512/1
f 469/487/1 470/486/1 496/513/1 495/514/1
f 470/486/1 471/488/1 497/515/1 496/513/1
f 471/488/1 472/489/1 498/516/1 497/515/1
f 472/489/1 473/490/1 499/517/1 498/516/1
f 473/490/1 474/491/1 500/518/1 499/517/1
f 474/491/1 475/492/1 501/519/1 500/518/1
f 475/492/1 476/493/1 502/520/1 501/519/1
f 476/493/1 477/494/1 503/521/1 502/520/1
f 477/494/1 478/495/1 504/522/1 503/521/1
f 478/495/1 479/496/1 505/523/1 504/522/1
f 479/496/1 480/497/1 506/524/1 505/523/1
f 480/497/1 481/498/1 507/525/1 506/524/1
f 481/498/1 482/499/1 508/526/1 507/525/1
f 482/499/1 483/500/1 509/527/1 508/526/1
f 483/500/1 484/501/1 510/528/1 509/527/1
f 484/501/1 485/502/1 511/529/1 510/528/1
f 485/502/1 486/503/1 512/530/1 511/529/1
f 486/503/1 487/504/1 513/531/1 512/530/1
f 487/504/1 488/505/1 514/532/1 513/531/1
f 488/505/1 489/506/1 515/533/1 514/532/1
f 489/506/1 490/507/1 516/534/1 515/533/1
f 490/507/1 491/508/1 517/535/1 516/534/1
f 491/508/1 492/509/1 518/536/1 517/535/1
f 492/509/1 493/510/1 519/537/1 518/536/1
f 493/510/1 494/511/1 520/538/1 519/539/1
f 495/514/1 496/513/1 522/540/1 521/541/1
f 496/513/1 497/515/1 523/542/1 522/540/1
f 497/515/1 498/516/1 524/543/1 523/542/1
f 498/516/1 499/517/1 525/544/1 524/543/1
f 499/517/1 500/518/1 526/545/1 525/544/1
f 500/518/1 501/519/1 527/546/1 526/545/1
f 501/519/1 502/520/1 528/547/1 527/546/1
f 502/520/1 503/521/1 529/548/1 528/547/1
f 503/521/1 504/522/1 530/549/1 529/548/1
f 504/522/1 505/523/1 531/550/1 530/549/1
f 505/523/1 506/524/1 532/551/1 531/550/1
f 506/524/1 507/525/1 533/552/1 532/551/1
f 507/525/1 508/526/1 534/553/1 533/552/1
f 508/526/1 509/527/1 535/554/1 534/553/1
f 509/527/1 510/528/1 536/555/1 535/554/1
f 510/528/1 511/529/1 537/556/1 536/555/1
f 511/529/1 512/530/1 538/557/1 537/556/1
f 512/530/1 513/531/1 539/558/1 538/557/1
f 513/531/1 514/532/1 540/559/1 539/558/1
f 514/532/1 515/533/1 541/560/1 540/559/1
f 515/533/1 516/534/1 542/561/1 541/560/1
f 516/534/1 517/535/1 543/562/1 542/561/1
f 517/535/1 518/536/1 544/563/1 543/562/1
f 518/536/1 519/537/1 545/564/1 544/563/1
f 519/537/1 520/538/1 546/565/1 545/566/1
f 521/541/1 522/540/1 548/567/1 547/568/1
f 522/540/1 523/542/1 549/569/1 548/567/1
f 523/542/1 524/543/1 550/570/1 549/569/1
f 524/543/1 525/544/1 551/571/1 550/570/1
f 525/544/1 526/545/1 552/572/1 551/571/1
f 526/545/1 527/546/1 553/573/1 552/572/1
f 527/546/1 528/547/1 554/574/1 553/573/1
f 528/547/1 529/548/1 555/575/1 554/574/1
f 529/548/1 530/549/1 556/576/1 555/575/1
f 530/549/1 531/550/1 557/577/1 556/576/1
f 531/550/1 532/551/1 558/578/1 557/577/1
f 532/551/1 533/552/1 559/579/1 558/578/1
f 533/552/1 534/553/1 560/580/1 559/579/1
f 534/553/1 535/554/1 561/581/1 560/580/1
f 535/554/1 536/555/1 562/582/1 561/581/1
f 536/555/1 537/556/1 563/583/1 562/582/1
f 537/556/1 538/557/1 564/584/1 563/583/1
f 538/557/1 539/558/1 565/585/1 564/584/1
f 539/558/1 540/559/1 566/586/1 565/585/1
f 540/559/1 541/560/1 567/587/1 566/586/1
f 541/560/1 542/561/1 568/588/1 567/587/1
f 542/561/1 543/562/1 569/589/1 568/588/1
f 543/562/1 544/563/1 570/590/1 569/589/1
f 544/563/1 545/564/1 571/591/1 570/590/1
f 545/564/1 546/565/1 572/592/1 571/593/1
f 547/568/1 548/567/1 574/594/1 573/595/1
f 548/567/1 549/569/1 575/596/1 574/594/1
f 549/569/1 550/570/1 576/597/1 575/596/1
f 550/570/1 551/571/1 577/598/1 576/597/1
f 551/571/1 552/572/1 578/599/1 577/598/1
f 552/572/1 553/573/1 579/600/1 578/599/1
f 553/573/1 554/574/1 580/601/1 579/600/1
f 554/574/1 555/575/1 581/602/1 580/601/1
f 555/575/1 556/576/1 582/603/1 581/602/1
f 556/576/1 557/577/1 583/604/1 582/603/1
f 557/577/1 558/578/1 584/605/1 583/604/1
f 558/578/1 559/579/1 585/606/1 584/605/1
f 559/579/1 560/580/1 586/607/1 585/606/1
f 560/580/1 561/581/1 587/608/1 586/607/1
f 561/581/1 562/582/1 588/609/1 587/608/1
f 562/582/1 563/583/1 589/610/1 588/609/1
f 563/583/1 564/584/1 590/611/1 589/610/1
f 564/584/1 565/585/1 591/612/1 590/611/1
f 565/585/1 566/586/1 592/613/1 591/612/1
f 566/586/1 567/587/1 593/614/1 592/613/1
f 567/587/1 568/588/1 594/615/1 593/614/1
f 568/588/1 569/589/1 595/616/1 594/615/1
f 569/589/1 570/590/1 596/617/1 595/616/1
f 570/590/1 571/591/1 597/618/1 596/617/1
f 571/591/1 572/592/1 598/619/1 597/620/1
f 573/595/1 574/594/1 600/621/1 599/622/1
f 574/594/1 575/596/1 601/623/1 600/621/1
f 575/596/1 576/597/1 602/624/1 601/623/1
f 576/597/1 577/598/1 603/625/1 602/624/1
f 577/598/1 578/599/1 604/626/1 603/625/1
f 578/599/1 579/600/1 605/627/1 604/626/1
f 579/600/1 580/601/1 606/628/1 605/627/1
f 580/601/1 581/602/1 607/629/1 606/628/1
f 581/602/1 582/603/1 608/630/1 607/629/1
f 582/603/1 583/604/1 609/631/1 608/630/1
f 583/604/1 584/605/1 610/632/1 609/631/1
f 584/605/1 585/606/1 611/633/1 610/632/1
f 585/606/1 586/607/1 612/634/1 611/633/1
f 586/607/1 587/608/1 613/635/1 612/634/1
f 587/608/1 588/609/1 614/636/1 613/635/1
f 588/609/1 589/610/1 615/637/1 614/636/1
f 589/610/1 590/611/1 616/638/1 615/637/1
f 590/611/1 591/612/1 617/639/1 616/638/1
f 591/612/1 592/613/1 618/640/1 617/639/1
f 592/613/1 593/614/1 619/641/1 618/640/1
f 593/614/1 594/615/1 620/642/1 619/641/1
f 594/615/1 595/616/1 621/643/1 620/642/1
f 595/616/1 596/617/1 622/644/1 621/643/1
f 596/617/1 597/618/1 623/645/1 622/644/1
f 597/618/1 598/619/1 624/646/1 623/647/1
f 599/622/1 600/621/1 626/648/1 625/649/1
f 600/621/1 601/623/1 627/650/1 626/648/1
f 601/623/1 602/624/1 628/651/1 627/650/1
f 602/624/1 603/625/1 629/652/1 628/651/1
f 603/625/1 604/626/1 630/653/1 629/652/1
f 604/626/1 605/627/1 631/654/1 630/653/1
f 605/627/1 606/628/1 632/655/1 631/654/1
f 606/628/1 607/629/1 633/656/1 632/655/1
f 607/629/1 608/630/1 634/657/1 633/656/1
f 608/630/1 609/631/1 635/658/1 634/657/1
f 609/631/1 610/632/1 636/659/1 635/658/1
f 610/632/1 611/633/1 637/660/1 636/659/1
f 611/633/1 612/634/1 638/661/1 637/660/1
f 612/634/1 613/635/1 639/662/1 638/661/1
f 613/635/1 614/636/1 640/663/1 639/662/1
f 614/636/1 615/637/1 641/664/1 640/663/1
f 615/637/1 616/638/1 642/665/1 641/664/1
f 616/638/1 617/639/1 643/666/1 642/665/1
f 617/639/1 618/640/1 644/667/1 643/666/1
f 618/640/1 619/641/1 645/668/1 644/667/1
f 619/641/1 620/642/1 646/669/1 645/668/1
f 620/642/1 621/643/1 647/670/1 646/669/1
f 621/643/1 622/644/1 648/671/1 647/670/1
f 622/644/1 623/645/1 649/672/1 648/671/1
f 623/645/1 624/646/1 650/673/1 649/674/1
f 625/675/1 626/676/1 652/677/1 651/678/1
f 626/676/1 627/679/1 653/680/1 652/677/1
f 627/679/1 628/681/1 654/682/1 653/680/1
f 628/681/1 629/683/1 655/684/1 654/682/1
f 629/683/1 630/685/1 656/686/1 655/684/1
f 630/685/1 631/687/1 657/688/1 656/686/1
f 631/687/1 632/689/1 658/690/1 657/688/1
f 632/689/1 633/691/1 659/692/1 658/690/1
f 633/691/1 634/693/1 660/694/1 659/692/1
f 634/693/1 635/695/1 661/696/1 660/694/1
f 635/695/1 636/697/1 662/698/1 661/696/1
f 636/697/1 637/699/1 663/700/1 662/698/1
f 637/699/1 638/701/1 664/702/1 663/700/1
f 638/701/1 639/703/1 665/704/1 664/702/1
f 639/703/1 640/705/1 666/706/1 665/704/1
f 640/705/1 641/707/1 667/708/1 666/706/1
f 641/707/1 642/709/1 668/710/1 667/708/1
f 642/709/1 643/711/1 669/712/1 668/710/1
f 643/711/1 644/713/1 670/714/1 669/712/1
f 644/713/1 645/715/1 671/716/1 670/714/1
f 645/715/1 646/717/1 672/718/1 671/716/1
f 646/717/1 647/719/1 673/720/1 672/718/1
f 647/719/1 648/721/1 674/722/1 673/720/1
f 648/721/1 649/723/1 675/724/1 674/722/1
f 649/723/1 650/725/1 676/726/1 675/727/1
