# Blender 4.3.0
# www.blender.org
mtllib pedestal.mtl
o Pedestal
v -0.978357 -0.107189 0.978357
v -0.978357 -0.085547 1.000000
v -1.000000 -0.085547 0.978357
v 1.000000 -0.085547 0.978357
v 0.978357 -0.085547 1.000000
v 0.978357 -0.107189 0.978357
v -1.022061 -0.018233 1.000000
v -1.000000 -0.039658 0.978575
v -0.978793 -0.039440 1.000000
v -1.000000 -0.018233 1.022061
v 1.000000 -0.018233 1.022061
v 0.978575 -0.039658 1.000000
v 1.000000 -0.039440 0.978793
v 1.022061 -0.018233 1.000000
v -1.000000 -0.018234 -1.022061
v -0.978575 -0.039658 -0.999999
v -1.000000 -0.039440 -0.978793
v -1.022061 -0.018234 -0.999999
v 1.022061 -0.018234 -0.999999
v 1.000000 -0.039658 -0.978575
v 0.978793 -0.039440 -0.999999
v 1.000000 -0.018234 -1.022061
v -1.000000 -0.085547 -0.978357
v -0.978357 -0.085547 -0.999999
v -0.978357 -0.107190 -0.978357
v 0.978357 -0.107190 -0.978357
v 0.978357 -0.085547 -0.999999
v 1.000000 -0.085547 -0.978357
v -0.993660 0.144777 1.015303
v -0.963053 0.144777 0.984696
v -0.984696 0.144777 0.963053
v -1.015303 0.144777 0.993660
v 1.015303 0.144777 0.993660
v 0.984696 0.144777 0.963053
v 0.963053 0.144777 0.984696
v 0.993660 0.144777 1.015303
v 0.993660 0.144777 -1.015303
v 0.963053 0.144777 -0.984696
v 0.984696 0.144777 -0.963053
v 1.015303 0.144777 -0.993660
v -1.015303 0.144777 -0.993660
v -0.984696 0.144777 -0.963053
v -0.963053 0.144777 -0.984696
v -0.993660 0.144777 -1.015303
v -0.792658 0.165983 0.771452
v -0.814510 0.144777 0.792658
v -0.792658 0.144777 0.814720
v -0.771452 0.165983 0.792658
v 0.771452 0.165983 0.792658
v 0.792658 0.144777 0.814510
v 0.814720 0.144777 0.792658
v 0.792658 0.165983 0.771452
v 0.792658 0.165983 -0.771452
v 0.814510 0.144777 -0.792658
v 0.792658 0.144777 -0.814720
v 0.771452 0.165983 -0.792658
v -0.771452 0.165983 -0.792658
v -0.792658 0.144777 -0.814510
v -0.814720 0.144777 -0.792658
v -0.792658 0.165983 -0.771452
v -0.770209 0.501603 0.747761
v -0.792658 0.480396 0.771452
v -0.771887 0.480832 0.792658
v -0.747761 0.501603 0.770209
v 0.747761 0.501603 0.770209
v 0.771451 0.480396 0.792658
v 0.792658 0.480832 0.771887
v 0.770209 0.501603 0.747761
v 0.770209 0.501603 -0.747761
v 0.792658 0.480396 -0.771451
v 0.771887 0.480832 -0.792658
v 0.747761 0.501603 -0.770209
v -0.747761 0.501603 -0.770209
v -0.771451 0.480396 -0.792658
v -0.792658 0.480832 -0.771887
v -0.770209 0.501603 -0.747761
v -0.702093 0.522809 0.680887
v -0.723945 0.501603 0.702093
v -0.702093 0.501603 0.724155
v -0.680887 0.522809 0.702093
v 0.680887 0.522809 0.702093
v 0.702093 0.501603 0.723945
v 0.724155 0.501603 0.702093
v 0.702093 0.522809 0.680887
v 0.702093 0.522809 -0.680887
v 0.723945 0.501603 -0.702093
v 0.702093 0.501603 -0.724155
v 0.680887 0.522809 -0.702093
v -0.680887 0.522809 -0.702093
v -0.702093 0.501603 -0.723945
v -0.724155 0.501603 -0.702093
v -0.702093 0.522809 -0.680887
v -0.702093 0.573734 0.680450
v -0.702093 0.543127 0.680450
v -0.680450 0.543127 0.702093
v -0.680450 0.573734 0.702093
v 0.680450 0.573734 0.702093
v 0.680450 0.543127 0.702093
v 0.702093 0.543127 0.680450
v 0.702093 0.573734 0.680450
v 0.702093 0.573733 -0.680450
v 0.702093 0.543126 -0.680450
v 0.680450 0.543126 -0.702093
v 0.680450 0.573733 -0.702093
v -0.680450 0.573734 -0.702093
v -0.680450 0.543126 -0.702093
v -0.702093 0.543126 -0.680450
v -0.702093 0.573734 -0.680450
v -0.679644 0.913375 0.657195
v -0.702093 0.892168 0.680886
v -0.681322 0.892604 0.702093
v -0.657195 0.913375 0.679644
v 0.657195 0.913375 0.679644
v 0.680886 0.892168 0.702093
v 0.702093 0.892604 0.681322
v 0.679644 0.913375 0.657195
v 0.679644 0.913375 -0.657195
v 0.702093 0.892168 -0.680886
v 0.681322 0.892604 -0.702093
v 0.657195 0.913375 -0.679644
v -0.657195 0.913375 -0.679644
v -0.680886 0.892168 -0.702093
v -0.702093 0.892604 -0.681322
v -0.679644 0.913375 -0.657195
v -0.617263 0.952252 0.638906
v -0.638906 0.952252 0.617263
v -0.638906 0.935426 0.589466
v -0.660336 0.913375 0.638906
v -0.638906 0.913375 0.660123
v -0.589466 0.935426 0.638906
v 0.589466 0.935426 0.638906
v 0.638906 0.913375 0.660336
v 0.660123 0.913375 0.638906
v 0.638906 0.935227 0.589912
v 0.638906 0.952252 0.617263
v 0.617263 0.952252 0.638906
v 0.617263 0.952251 -0.638906
v 0.638906 0.952251 -0.617263
v 0.638906 0.935426 -0.589466
v 0.660336 0.913375 -0.638906
v 0.638906 0.913375 -0.660123
v 0.589466 0.935426 -0.638906
v -0.589466 0.935426 -0.638906
v -0.638906 0.913375 -0.660336
v -0.660123 0.913375 -0.638906
v -0.638906 0.935227 -0.589912
v -0.638906 0.952251 -0.617263
v -0.617263 0.952251 -0.638906
v -0.589467 1.993475 0.638906
v -0.638906 2.015527 0.660336
v -0.660123 2.015527 0.638906
v -0.638906 1.993674 0.589912
v -0.638906 1.976650 0.617263
v -0.617263 1.976650 0.638906
v 0.617263 1.976650 0.638906
v 0.638906 1.976650 0.617263
v 0.638906 1.993475 0.589466
v 0.660336 2.015527 0.638906
v 0.638906 2.015527 0.660123
v 0.589467 1.993475 0.638906
v 0.589467 1.993475 -0.638906
v 0.638906 2.015527 -0.660336
v 0.660123 2.015527 -0.638906
v 0.638906 1.993674 -0.589912
v 0.638906 1.976650 -0.617263
v 0.617263 1.976650 -0.638906
v -0.617263 1.976650 -0.638906
v -0.638906 1.976650 -0.617263
v -0.638906 1.993475 -0.589467
v -0.660336 2.015527 -0.638906
v -0.638906 2.015527 -0.660123
v -0.589467 1.993475 -0.638906
v -1.061638 -0.018233 1.039593
v -1.038787 -0.018233 1.061236
v -1.062477 0.002973 1.083684
v -1.083684 0.002973 1.062478
v 1.083684 0.002973 1.062478
v 1.062913 0.002538 1.083684
v 1.039593 -0.018233 1.061638
v 1.061638 -0.018233 1.039593
v 1.061638 0.144777 1.039593
v 1.038787 0.144777 1.061236
v 1.062477 0.123570 1.083684
v 1.083684 0.123570 1.062478
v -1.083684 0.123570 1.062478
v -1.062913 0.124006 1.083684
v -1.039593 0.144777 1.061638
v -1.061638 0.144777 1.039593
v 1.062477 0.002973 -1.083684
v 1.083684 0.002537 -1.062913
v 1.061638 -0.018234 -1.039593
v 1.039593 -0.018234 -1.061638
v 1.039593 0.144777 -1.061638
v 1.061235 0.144777 -1.038786
v 1.083684 0.123570 -1.062477
v 1.062477 0.123570 -1.083684
v -1.083684 0.002973 -1.062477
v -1.062913 0.002537 -1.083684
v -1.039593 -0.018234 -1.061638
v -1.061638 -0.018234 -1.039593
v -1.061638 0.144777 -1.039593
v -1.038787 0.144777 -1.061235
v -1.062477 0.123570 -1.083684
v -1.083684 0.123570 -1.062477
v -0.695524 2.015527 0.673478
v -0.672671 2.015527 0.695120
v -0.696362 2.036733 0.717569
v -0.717569 2.036733 0.696362
v 0.717569 2.036733 0.696362
v 0.696798 2.036297 0.717569
v 0.673478 2.015527 0.695523
v 0.695524 2.015527 0.673478
v 0.717569 2.167640 0.739631
v 0.696145 2.146216 0.717569
v 0.717569 2.146434 0.696363
v 0.739631 2.167640 0.717569
v -0.739631 2.167640 0.717569
v -0.717569 2.146216 0.696145
v -0.696363 2.146434 0.717569
v -0.717569 2.167640 0.739631
v 0.696362 2.036733 -0.717569
v 0.717569 2.036297 -0.696798
v 0.695524 2.015527 -0.673478
v 0.673478 2.015527 -0.695524
v 0.739631 2.167640 -0.717569
v 0.717569 2.146216 -0.696145
v 0.696363 2.146434 -0.717569
v 0.717569 2.167640 -0.739631
v -0.717569 2.036733 -0.696362
v -0.696798 2.036297 -0.717569
v -0.673478 2.015527 -0.695524
v -0.695524 2.015527 -0.673478
v -0.717569 2.167640 -0.739631
v -0.696145 2.146216 -0.717569
v -0.717569 2.146434 -0.696363
v -0.739631 2.167640 -0.717569
v -0.745415 2.167640 0.723369
v -0.722563 2.167640 0.745012
v -0.746254 2.188847 0.767460
v -0.767460 2.188847 0.746253
v 0.767460 2.188847 0.746253
v 0.746689 2.188411 0.767460
v 0.723369 2.167640 0.745415
v 0.745415 2.167640 0.723369
v 0.767460 2.228455 0.789522
v 0.746036 2.207030 0.767460
v 0.767460 2.207248 0.746254
v 0.789522 2.228455 0.767460
v -0.789522 2.228455 0.767460
v -0.767460 2.207030 0.746036
v -0.746254 2.207248 0.767460
v -0.767460 2.228455 0.789522
v 0.746254 2.188847 -0.767461
v 0.767460 2.188411 -0.746689
v 0.745415 2.167640 -0.723369
v 0.723369 2.167640 -0.745415
v 0.789522 2.228455 -0.767461
v 0.767460 2.207030 -0.746036
v 0.746254 2.207248 -0.767461
v 0.767460 2.228455 -0.789522
v -0.767460 2.188847 -0.746254
v -0.746689 2.188411 -0.767461
v -0.723369 2.167640 -0.745415
v -0.745415 2.167640 -0.723369
v -0.767460 2.228455 -0.789522
v -0.746036 2.207030 -0.767461
v -0.767460 2.207248 -0.746254
v -0.789522 2.228455 -0.767461
v -0.815044 2.228455 0.792999
v -0.792192 2.228455 0.814641
v -0.815883 2.249661 0.837090
v -0.837090 2.249661 0.815883
v 0.837090 2.249661 0.815883
v 0.816319 2.249226 0.837090
v 0.792999 2.228455 0.815044
v 0.815044 2.228455 0.792999
v 0.815448 2.385731 0.837090
v 0.815448 2.355123 0.837090
v 0.837090 2.355123 0.815447
v 0.837090 2.385731 0.815447
v -0.837090 2.385731 0.815447
v -0.837090 2.355123 0.815447
v -0.815448 2.355123 0.837090
v -0.815448 2.385731 0.837090
v 0.815883 2.249661 -0.837090
v 0.837090 2.249225 -0.816319
v 0.815044 2.228455 -0.792999
v 0.792999 2.228455 -0.815044
v 0.837090 2.385730 -0.815448
v 0.837090 2.355123 -0.815448
v 0.815448 2.355123 -0.837090
v 0.815448 2.385730 -0.837090
v -0.837090 2.249661 -0.815883
v -0.816319 2.249225 -0.837090
v -0.792999 2.228455 -0.815044
v -0.815044 2.228455 -0.792999
v -0.815448 2.385730 -0.837090
v -0.815448 2.355123 -0.837090
v -0.837090 2.355123 -0.815448
v -0.837090 2.385730 -0.815448
v -0.859152 2.431734 0.837090
v -0.837090 2.410310 0.815666
v -0.815884 2.410528 0.837090
v -0.837090 2.431734 0.859152
v 0.837090 2.431734 0.859152
v 0.815666 2.410310 0.837090
v 0.837090 2.410528 0.815884
v 0.859152 2.431734 0.837090
v 0.859152 2.431734 -0.837090
v 0.837090 2.410309 -0.815666
v 0.815884 2.410528 -0.837090
v 0.837090 2.431734 -0.859152
v -0.837090 2.431734 -0.859152
v -0.815666 2.410309 -0.837090
v -0.837090 2.410528 -0.815884
v -0.859152 2.431734 -0.837090
v -0.632566 2.527460 0.654208
v -0.623601 2.527460 0.623601
v -0.654208 2.527460 0.632566
v 0.654208 2.527460 0.632566
v 0.623601 2.527460 0.623601
v 0.632566 2.527460 0.654208
v 0.632566 2.527460 -0.654209
v 0.623601 2.527460 -0.623602
v 0.654208 2.527460 -0.632566
v -0.654208 2.527460 -0.632566
v -0.623601 2.527460 -0.623602
v -0.632566 2.527460 -0.654209
v -0.711230 2.527460 0.732872
v -0.680623 2.527460 0.702265
v -0.702266 2.527460 0.680623
v -0.732873 2.527460 0.711230
v 0.732873 2.527460 0.711230
v 0.702266 2.527460 0.680623
v 0.680623 2.527460 0.702265
v 0.711230 2.527460 0.732872
v 0.711230 2.527460 -0.732872
v 0.680623 2.527460 -0.702265
v 0.702266 2.527460 -0.680623
v 0.732873 2.527460 -0.711230
v -0.732873 2.527460 -0.711230
v -0.702266 2.527460 -0.680623
v -0.680623 2.527460 -0.702265
v -0.711230 2.527460 -0.732872
v -0.761121 2.527460 0.782764
v -0.730515 2.527460 0.752157
v -0.752157 2.527460 0.730514
v -0.782764 2.527460 0.761121
v 0.782764 2.527460 0.761121
v 0.752157 2.527460 0.730514
v 0.730515 2.527460 0.752157
v 0.761121 2.527460 0.782764
v 0.761121 2.527460 -0.782764
v 0.730515 2.527460 -0.752157
v 0.752157 2.527460 -0.730514
v 0.782764 2.527460 -0.761122
v -0.782764 2.527460 -0.761122
v -0.752157 2.527460 -0.730514
v -0.730515 2.527460 -0.752157
v -0.761121 2.527460 -0.782764
v -0.830751 2.527460 0.852393
v -0.800144 2.527460 0.821786
v -0.821786 2.527460 0.800144
v -0.852394 2.527460 0.830751
v 0.852394 2.527460 0.830751
v 0.821786 2.527460 0.800144
v 0.800144 2.527460 0.821786
v 0.830751 2.527460 0.852393
v 0.830751 2.527460 -0.852394
v 0.800144 2.527460 -0.821787
v 0.821786 2.527460 -0.800144
v 0.852394 2.527460 -0.830751
v -0.852394 2.527460 -0.830751
v -0.821786 2.527460 -0.800144
v -0.800144 2.527460 -0.821787
v -0.830751 2.527460 -0.852394
v -0.997020 2.431734 0.974974
v -0.974168 2.431734 0.996617
v -0.997859 2.452941 1.019065
v -1.019065 2.452941 0.997859
v 1.019065 2.452941 0.997859
v 0.998295 2.452505 1.019065
v 0.974974 2.431734 0.997020
v 0.997020 2.431734 0.974974
v 0.997020 2.527460 0.974974
v 0.974168 2.527460 0.996616
v 0.997859 2.506253 1.019065
v 1.019065 2.506253 0.997859
v -1.019065 2.506253 0.997859
v -0.998295 2.506689 1.019065
v -0.974974 2.527460 0.997020
v -0.997020 2.527460 0.974974
v 0.997859 2.452941 -1.019066
v 1.019065 2.452505 -0.998295
v 0.997020 2.431734 -0.974974
v 0.974974 2.431734 -0.997020
v 0.974974 2.527460 -0.997020
v 0.996617 2.527460 -0.974168
v 1.019065 2.506253 -0.997859
v 0.997859 2.506253 -1.019066
v -1.019065 2.452941 -0.997859
v -0.998295 2.452505 -1.019066
v -0.974974 2.431734 -0.997020
v -0.997020 2.431734 -0.974974
v -0.997020 2.527460 -0.974974
v -0.974168 2.527460 -0.996617
v -0.997859 2.506253 -1.019066
v -1.019065 2.506253 -0.997859
v 0.660036 1.062310 0.490731
v 0.638906 1.042751 0.512786
v 0.638906 1.019292 0.492411
v 0.660209 1.041180 0.469428
v 0.660209 1.041180 -0.469428
v 0.638906 1.019540 -0.492392
v 0.638906 1.042763 -0.512946
v 0.660036 1.062310 -0.490731
v 0.660036 1.866591 -0.490731
v 0.638906 1.886150 -0.512786
v 0.638906 1.909609 -0.492411
v 0.660209 1.887722 -0.469428
v 0.660209 1.887722 0.469428
v 0.638906 1.909361 0.492392
v 0.638906 1.886138 0.512946
v 0.660036 1.866591 0.490731
v -0.660209 1.041180 0.469428
v -0.638906 1.019540 0.492392
v -0.638906 1.042763 0.512946
v -0.660036 1.062310 0.490731
v -0.660036 1.062310 -0.490731
v -0.638906 1.042751 -0.512786
v -0.638906 1.019292 -0.492411
v -0.660209 1.041180 -0.469428
v -0.660036 1.866592 0.490731
v -0.638906 1.886150 0.512786
v -0.638906 1.909609 0.492411
v -0.660209 1.887722 0.469428
v -0.660209 1.887722 -0.469428
v -0.638906 1.909361 -0.492392
v -0.638906 1.886138 -0.512946
v -0.660036 1.866591 -0.490731
v -0.491336 1.061789 0.660036
v -0.513390 1.042230 0.638906
v -0.493015 1.018771 0.638906
v -0.470032 1.040658 0.660209
v 0.470032 1.040658 0.660209
v 0.492996 1.019019 0.638906
v 0.513551 1.042242 0.638906
v 0.491336 1.061789 0.660036
v 0.491336 1.867112 0.660036
v 0.513390 1.886671 0.638906
v 0.493015 1.910130 0.638906
v 0.470032 1.888243 0.660209
v -0.470032 1.888243 0.660209
v -0.492996 1.909882 0.638906
v -0.513551 1.886659 0.638906
v -0.491336 1.867112 0.660036
v -0.470032 1.040658 -0.660209
v -0.492996 1.019019 -0.638906
v -0.513551 1.042242 -0.638906
v -0.491336 1.061789 -0.660036
v 0.491336 1.061789 -0.660036
v 0.513390 1.042230 -0.638906
v 0.493015 1.018771 -0.638906
v 0.470032 1.040658 -0.660209
v -0.491336 1.867112 -0.660036
v -0.513390 1.886671 -0.638906
v -0.493015 1.910130 -0.638906
v -0.470032 1.888242 -0.660209
v 0.470032 1.888242 -0.660209
v 0.492996 1.909882 -0.638906
v 0.513551 1.886659 -0.638906
v 0.491336 1.867112 -0.660036
v -0.466434 1.083124 0.705496
v -0.491336 1.061985 0.687174
v -0.470513 1.040658 0.687178
v -0.438133 1.065830 0.704444
v 0.438133 1.065830 0.704444
v 0.470159 1.040658 0.686762
v 0.491336 1.061560 0.687662
v 0.466434 1.083124 0.705496
v 0.466434 1.845777 0.705496
v 0.491336 1.866915 0.687174
v 0.470513 1.888243 0.687178
v 0.438133 1.863071 0.704444
v -0.438133 1.863071 0.704444
v -0.470159 1.888243 0.686762
v -0.491336 1.867341 0.687661
v -0.466434 1.845777 0.705496
v 0.705306 1.083701 0.465768
v 0.687065 1.062511 0.490731
v 0.687054 1.041180 0.469907
v 0.704220 1.066417 0.437465
v 0.704220 1.066417 -0.437465
v 0.686639 1.041180 -0.469555
v 0.687555 1.062086 -0.490731
v 0.705306 1.083701 -0.465768
v 0.705306 1.845200 -0.465768
v 0.687065 1.866390 -0.490731
v 0.687054 1.887722 -0.469907
v 0.704220 1.862484 -0.437465
v 0.704220 1.862484 0.437465
v 0.686639 1.887722 0.469555
v 0.687555 1.866816 0.490731
v 0.705306 1.845200 0.465768
v -0.438133 1.065830 -0.704444
v -0.470159 1.040658 -0.686762
v -0.491336 1.061560 -0.687662
v -0.466434 1.083124 -0.705496
v 0.466434 1.083124 -0.705496
v 0.491336 1.061985 -0.687174
v 0.470513 1.040658 -0.687178
v 0.438133 1.065830 -0.704444
v -0.466434 1.845777 -0.705496
v -0.491336 1.866915 -0.687174
v -0.470513 1.888242 -0.687178
v -0.438133 1.863070 -0.704444
v 0.438133 1.863070 -0.704444
v 0.470159 1.888242 -0.686762
v 0.491336 1.867341 -0.687662
v 0.466434 1.845777 -0.705496
v -0.704220 1.066417 0.437465
v -0.686639 1.041180 0.469555
v -0.687555 1.062086 0.490731
v -0.705306 1.083701 0.465768
v -0.705306 1.083701 -0.465768
v -0.687065 1.062511 -0.490731
v -0.687054 1.041180 -0.469907
v -0.704220 1.066417 -0.437465
v -0.705306 1.845201 0.465768
v -0.687065 1.866390 0.490731
v -0.687054 1.887722 0.469907
v -0.704220 1.862484 0.437465
v -0.704220 1.862484 -0.437465
v -0.686639 1.887722 -0.469556
v -0.687555 1.866815 -0.490731
v -0.705306 1.845200 -0.465768
v 0.687119 1.144880 0.393810
v 0.687720 1.122725 0.372887
v 0.683340 1.153095 0.363437
v 0.683340 1.153095 -0.363437
v 0.687687 1.122836 -0.372932
v 0.687119 1.144880 -0.393810
v 0.683340 1.775767 -0.363398
v 0.687119 1.784021 -0.393810
v 0.687687 1.806065 -0.372932
v 0.683340 1.775807 0.363437
v 0.687687 1.806065 0.372932
v 0.687119 1.784021 0.393810
v -0.683340 1.153095 0.363437
v -0.687687 1.122836 0.372932
v -0.687119 1.144880 0.393810
v -0.687119 1.144880 -0.393810
v -0.687720 1.122725 -0.372887
v -0.683340 1.153095 -0.363437
v -0.683340 1.775767 0.363398
v -0.687119 1.784021 0.393810
v -0.687687 1.806065 0.372932
v -0.683340 1.775807 -0.363437
v -0.687687 1.806065 -0.372932
v -0.687119 1.784021 -0.393810
v -0.391243 1.147099 0.687019
v -0.370317 1.124936 0.687604
v -0.360858 1.155318 0.683340
v 0.360858 1.155318 0.683340
v 0.370359 1.125042 0.687574
v 0.391243 1.147099 0.687019
v 0.360821 1.773546 0.683340
v 0.391243 1.781801 0.687018
v 0.370359 1.803859 0.687574
v -0.360858 1.773582 0.683340
v -0.370359 1.803859 0.687574
v -0.391243 1.781801 0.687018
v -0.360858 1.155318 -0.683340
v -0.370359 1.125042 -0.687574
v -0.391243 1.147099 -0.687019
v 0.391243 1.147099 -0.687019
v 0.370317 1.124936 -0.687604
v 0.360858 1.155318 -0.683340
v -0.360821 1.773546 -0.683340
v -0.391243 1.781801 -0.687019
v -0.370359 1.803859 -0.687574
v 0.360858 1.773582 -0.683340
v 0.370359 1.803859 -0.687574
v 0.391243 1.781801 -0.687019
vn -0.7071 -0.7071 -0.0000
vn -0.0000 -0.7071 0.7071
vn -0.7089 -0.0050 0.7053
vn 0.7071 -0.7071 -0.0000
vn 0.7053 -0.0050 0.7089
vn -0.0000 -1.0000 -0.0000
vn -0.6921 -0.7218 0.0055
vn -0.6887 -0.7249 0.0121
vn -0.6888 -0.7249 -0.0120
vn -0.6920 -0.7218 -0.0056
vn -0.0120 -0.7249 0.6888
vn -0.0056 -0.7218 0.6920
vn 0.0055 -0.7218 0.6921
vn 0.0121 -0.7249 0.6887
vn 0.6888 -0.7249 0.0120
vn 0.6920 -0.7218 0.0056
vn 0.6921 -0.7218 -0.0055
vn 0.6887 -0.7249 -0.0121
vn -0.0055 -0.7218 -0.6921
vn -0.0121 -0.7249 -0.6887
vn 0.0120 -0.7249 -0.6888
vn 0.0056 -0.7218 -0.6920
vn -0.7053 -0.0050 -0.7089
vn 0.7089 -0.0050 -0.7053
vn -0.0000 -0.7071 -0.7071
vn -0.0000 1.0000 -0.0000
vn -0.7107 -0.0005 0.7034
vn -0.6871 0.7264 0.0151
vn -0.6912 0.7226 0.0069
vn -0.6912 0.7226 -0.0069
vn -0.6871 0.7264 -0.0149
vn -0.0069 0.7226 0.6912
vn -0.0149 0.7264 0.6871
vn 0.0151 0.7264 0.6871
vn 0.0069 0.7226 0.6912
vn 0.7034 -0.0005 0.7107
vn 0.6912 0.7226 0.0069
vn 0.6871 0.7264 0.0149
vn 0.6871 0.7264 -0.0151
vn 0.6912 0.7226 -0.0069
vn 0.7107 -0.0005 -0.7034
vn 0.0069 0.7226 -0.6912
vn 0.0149 0.7264 -0.6871
vn -0.0151 0.7264 -0.6871
vn -0.0069 0.7226 -0.6912
vn -0.7034 -0.0005 -0.7107
vn -0.6737 0.7389 0.0162
vn -0.6792 0.7340 0.0067
vn -0.6791 0.7340 -0.0067
vn -0.6732 0.7393 -0.0168
vn -0.0067 0.7340 0.6791
vn -0.0168 0.7393 0.6732
vn 0.0162 0.7389 0.6737
vn 0.0067 0.7340 0.6792
vn 0.6791 0.7340 0.0067
vn 0.6732 0.7393 0.0168
vn 0.6737 0.7389 -0.0162
vn 0.6792 0.7340 -0.0067
vn 0.0067 0.7340 -0.6791
vn 0.0168 0.7393 -0.6732
vn -0.0162 0.7389 -0.6737
vn -0.0067 0.7340 -0.6792
vn -0.7070 0.0152 0.7070
vn -0.7071 0.0060 0.7071
vn -0.6861 0.7273 0.0170
vn -0.6908 0.7230 0.0078
vn -0.6908 0.7230 -0.0078
vn -0.6861 0.7273 -0.0168
vn -0.0078 0.7230 0.6908
vn -0.0168 0.7273 0.6861
vn 0.0170 0.7273 0.6861
vn 0.0078 0.7230 0.6908
vn 0.7070 0.0152 0.7070
vn 0.7071 0.0060 0.7071
vn 0.6908 0.7230 0.0078
vn 0.6861 0.7273 0.0168
vn 0.6861 0.7273 -0.0170
vn 0.6908 0.7230 -0.0078
vn 0.7070 0.0152 -0.7070
vn 0.7071 0.0060 -0.7071
vn 0.0078 0.7230 -0.6908
vn 0.0168 0.7273 -0.6861
vn -0.0170 0.7273 -0.6861
vn -0.0078 0.7230 -0.6908
vn -0.7070 0.0152 -0.7070
vn -0.7071 0.0060 -0.7071
vn -0.7104 -0.0013 0.7038
vn -0.7107 -0.0015 0.7035
vn -1.0000 -0.0000 -0.0000
vn -0.0000 -0.0000 1.0000
vn 0.7038 -0.0013 0.7104
vn 0.7035 -0.0015 0.7107
vn 1.0000 -0.0000 -0.0000
vn 0.7104 -0.0013 -0.7038
vn 0.7107 -0.0015 -0.7035
vn -0.0000 -0.0000 -1.0000
vn -0.7038 -0.0013 -0.7104
vn -0.7035 -0.0015 -0.7107
vn -0.6724 0.7399 0.0183
vn -0.6787 0.7344 0.0076
vn -0.6786 0.7345 -0.0075
vn -0.6719 0.7404 -0.0190
vn -0.0075 0.7345 0.6786
vn -0.0190 0.7404 0.6719
vn 0.0183 0.7399 0.6724
vn 0.0076 0.7344 0.6787
vn 0.6786 0.7345 0.0075
vn 0.6719 0.7404 0.0190
vn 0.6724 0.7399 -0.0183
vn 0.6787 0.7344 -0.0076
vn 0.0075 0.7345 -0.6786
vn 0.0190 0.7404 -0.6719
vn -0.0183 0.7399 -0.6724
vn -0.0076 0.7344 -0.6787
vn -0.7071 -0.0000 0.7071
vn -0.7173 0.6968 -0.0001
vn -0.0001 0.6951 0.7189
vn 0.7173 0.6968 0.0001
vn 0.7071 -0.0000 0.7071
vn 0.7071 -0.0000 -0.7071
vn 0.0001 0.6951 -0.7189
vn -0.7071 -0.0000 -0.7071
vn 0.0001 -0.6951 0.7189
vn -0.7173 -0.6968 0.0001
vn 0.7173 -0.6968 -0.0001
vn -0.0001 -0.6951 -0.7189
vn -0.6904 -0.7234 0.0052
vn -0.6865 -0.7271 0.0121
vn -0.6868 -0.7268 -0.0115
vn -0.6906 -0.7233 -0.0048
vn -0.0121 -0.7334 0.6796
vn -0.0050 -0.7298 0.6836
vn 0.0048 -0.7299 0.6835
vn 0.0120 -0.7335 0.6796
vn -0.7107 -0.0013 0.7035
vn 0.6831 -0.7303 0.0117
vn 0.6868 -0.7268 0.0049
vn 0.6868 -0.7268 -0.0049
vn 0.6828 -0.7305 -0.0121
vn 0.7107 0.0013 0.7035
vn 0.6872 0.7265 0.0051
vn 0.6833 0.7300 0.0120
vn 0.6833 0.7300 -0.0120
vn 0.6873 0.7263 -0.0049
vn 0.0121 0.7334 0.6796
vn 0.0050 0.7298 0.6836
vn -0.0048 0.7299 0.6835
vn -0.0120 0.7335 0.6796
vn -0.6868 0.7268 0.0115
vn -0.6906 0.7233 0.0048
vn -0.6904 0.7234 -0.0052
vn -0.6865 0.7270 -0.0121
vn 0.0117 -0.7303 -0.6831
vn 0.0049 -0.7268 -0.6868
vn -0.0049 -0.7268 -0.6868
vn -0.0121 -0.7305 -0.6828
vn 0.7035 0.0013 -0.7107
vn 0.0051 0.7265 -0.6872
vn 0.0120 0.7300 -0.6833
vn -0.0120 0.7300 -0.6833
vn -0.0049 0.7263 -0.6873
vn -0.7107 0.0013 -0.7035
vn -0.6889 -0.7248 0.0079
vn -0.6830 -0.7302 0.0183
vn -0.6834 -0.7298 -0.0174
vn -0.6891 -0.7246 -0.0073
vn -0.0183 -0.7365 0.6762
vn -0.0076 -0.7311 0.6822
vn 0.0073 -0.7312 0.6821
vn 0.0181 -0.7366 0.6761
vn -0.7089 0.0007 0.7053
vn 0.6797 -0.7332 0.0176
vn 0.6854 -0.7281 0.0075
vn 0.6854 -0.7282 -0.0074
vn 0.6792 -0.7337 -0.0183
vn 0.7089 0.0021 0.7053
vn 0.0076 -0.7228 0.6910
vn 0.0167 -0.7271 0.6863
vn -0.0166 -0.7270 0.6864
vn -0.0078 -0.7229 0.6910
vn 0.6864 -0.7270 0.0166
vn 0.6910 -0.7229 0.0078
vn 0.6910 -0.7228 -0.0076
vn 0.6863 -0.7271 -0.0167
vn -0.6910 -0.7228 0.0076
vn -0.6863 -0.7271 0.0167
vn -0.6864 -0.7270 -0.0166
vn -0.6910 -0.7229 -0.0078
vn 0.0176 -0.7332 -0.6797
vn 0.0075 -0.7281 -0.6854
vn -0.0074 -0.7282 -0.6854
vn -0.0183 -0.7337 -0.6792
vn 0.7053 0.0021 -0.7089
vn 0.0166 -0.7270 -0.6864
vn 0.0078 -0.7229 -0.6910
vn -0.0076 -0.7228 -0.6910
vn -0.0167 -0.7271 -0.6863
vn -0.7089 0.0021 -0.7053
vn -0.6892 -0.7245 0.0073
vn -0.6837 -0.7296 0.0171
vn -0.6840 -0.7293 -0.0163
vn -0.6894 -0.7243 -0.0069
vn -0.0171 -0.7359 0.6769
vn -0.0070 -0.7309 0.6825
vn 0.0068 -0.7310 0.6824
vn 0.0170 -0.7360 0.6768
vn -0.7089 0.0042 0.7053
vn 0.6804 -0.7327 0.0165
vn 0.6857 -0.7278 0.0070
vn 0.6856 -0.7279 -0.0069
vn 0.6799 -0.7331 -0.0171
vn 0.7088 0.0125 0.7053
vn 0.0071 -0.7226 0.6912
vn 0.0156 -0.7266 0.6869
vn -0.0156 -0.7265 0.6870
vn -0.0073 -0.7226 0.6912
vn 0.6870 -0.7265 0.0156
vn 0.6912 -0.7226 0.0073
vn 0.6912 -0.7226 -0.0071
vn 0.6869 -0.7266 -0.0156
vn -0.6912 -0.7226 0.0071
vn -0.6869 -0.7266 0.0156
vn -0.6870 -0.7265 -0.0156
vn -0.6912 -0.7226 -0.0073
vn 0.0165 -0.7327 -0.6804
vn 0.0070 -0.7278 -0.6857
vn -0.0069 -0.7279 -0.6856
vn -0.0171 -0.7331 -0.6799
vn 0.7053 0.0125 -0.7088
vn 0.0156 -0.7265 -0.6870
vn 0.0073 -0.7226 -0.6912
vn -0.0071 -0.7226 -0.6912
vn -0.0156 -0.7266 -0.6869
vn -0.7088 0.0125 -0.7053
vn -0.6895 -0.7242 0.0067
vn -0.6844 -0.7289 0.0157
vn -0.6848 -0.7286 -0.0149
vn -0.6897 -0.7240 -0.0063
vn -0.0157 -0.7352 0.6777
vn -0.0064 -0.7306 0.6828
vn 0.0062 -0.7307 0.6827
vn 0.0155 -0.7353 0.6775
vn -0.7071 0.0029 0.7071
vn -0.7071 0.0021 0.7071
vn -0.7071 0.0023 0.7071
vn 0.6811 -0.7320 0.0151
vn 0.6860 -0.7275 0.0064
vn 0.6860 -0.7276 -0.0064
vn 0.6807 -0.7324 -0.0157
vn 0.7107 0.0044 0.7035
vn 0.7099 0.0034 0.7043
vn 0.7063 -0.0042 0.7079
vn 0.7053 -0.0094 0.7088
vn -0.7079 -0.0042 0.7063
vn -0.7088 -0.0094 0.7053
vn 0.0151 -0.7320 -0.6811
vn 0.0064 -0.7275 -0.6860
vn -0.0063 -0.7276 -0.6860
vn -0.0157 -0.7324 -0.6807
vn 0.7035 0.0044 -0.7107
vn 0.7044 0.0033 -0.7098
vn 0.7079 -0.0042 -0.7063
vn 0.7088 -0.0094 -0.7053
vn -0.7107 0.0044 -0.7035
vn -0.7099 0.0034 -0.7043
vn -0.7063 -0.0042 -0.7079
vn -0.7053 -0.0094 -0.7088
vn -0.6915 -0.7223 0.0065
vn -0.6875 -0.7260 0.0143
vn -0.6876 -0.7259 -0.0143
vn -0.6915 -0.7223 -0.0066
vn -0.0143 -0.7259 0.6876
vn -0.0066 -0.7223 0.6915
vn 0.0065 -0.7223 0.6915
vn 0.0143 -0.7260 0.6875
vn 0.6876 -0.7259 0.0143
vn 0.6915 -0.7223 0.0066
vn 0.6915 -0.7223 -0.0065
vn 0.6875 -0.7260 -0.0143
vn 0.0143 -0.7259 -0.6876
vn 0.0066 -0.7223 -0.6915
vn -0.0065 -0.7223 -0.6915
vn -0.0143 -0.7260 -0.6875
vn -0.6902 -0.7236 0.0055
vn -0.6861 -0.7274 0.0129
vn -0.6864 -0.7272 -0.0123
vn -0.6904 -0.7234 -0.0051
vn -0.0129 -0.7338 0.6792
vn -0.0053 -0.7300 0.6834
vn 0.0051 -0.7301 0.6834
vn 0.0127 -0.7339 0.6791
vn -0.7107 -0.0029 0.7035
vn 0.6827 -0.7306 0.0124
vn 0.6867 -0.7269 0.0052
vn 0.6866 -0.7270 -0.0052
vn 0.6823 -0.7309 -0.0129
vn 0.7107 0.0029 0.7035
vn 0.6870 0.7267 0.0054
vn 0.6829 0.7304 0.0128
vn 0.6829 0.7304 -0.0127
vn 0.6872 0.7265 -0.0052
vn 0.0129 0.7338 0.6792
vn 0.0053 0.7300 0.6834
vn -0.0051 0.7301 0.6834
vn -0.0127 0.7339 0.6791
vn -0.6864 0.7272 0.0123
vn -0.6904 0.7234 0.0051
vn -0.6902 0.7236 -0.0055
vn -0.6861 0.7274 -0.0129
vn 0.0124 -0.7306 -0.6827
vn 0.0052 -0.7269 -0.6867
vn -0.0052 -0.7270 -0.6866
vn -0.0129 -0.7309 -0.6823
vn 0.7035 0.0029 -0.7107
vn 0.0054 0.7267 -0.6870
vn 0.0128 0.7304 -0.6829
vn -0.0127 0.7304 -0.6829
vn -0.0052 0.7265 -0.6872
vn -0.7107 0.0029 -0.7035
vn -0.0037 -0.7043 0.7099
vn 0.7352 -0.0260 0.6773
vn 0.7293 -0.0130 0.6840
vn 0.7294 0.0129 0.6840
vn 0.7352 0.0258 0.6774
vn 0.7146 -0.6995 -0.0001
vn -0.0046 -0.7108 -0.7034
vn 0.7294 -0.0129 -0.6840
vn 0.7352 -0.0258 -0.6774
vn 0.7352 0.0260 -0.6773
vn 0.7293 0.0130 -0.6840
vn -0.0037 0.7043 -0.7099
vn 0.7146 0.6995 0.0001
vn -0.0046 0.7108 0.7034
vn 0.0046 -0.7108 0.7034
vn -0.7146 -0.6995 0.0001
vn -0.7294 -0.0129 0.6840
vn -0.7352 -0.0258 0.6774
vn -0.7352 0.0260 0.6773
vn -0.7293 0.0130 0.6840
vn 0.0037 -0.7043 -0.7099
vn -0.7352 -0.0260 -0.6773
vn -0.7293 -0.0130 -0.6840
vn -0.7294 0.0129 -0.6840
vn -0.7352 0.0258 -0.6774
vn 0.0037 0.7043 0.7099
vn -0.7146 0.6995 -0.0001
vn 0.0046 0.7108 -0.7034
vn -0.7099 -0.7043 -0.0038
vn -0.6773 -0.0260 0.7352
vn -0.6840 -0.0130 0.7293
vn -0.6840 0.0129 0.7294
vn -0.6774 0.0257 0.7351
vn 0.0001 -0.6995 0.7146
vn 0.7034 -0.7108 -0.0046
vn 0.6840 -0.0129 0.7294
vn 0.6774 -0.0257 0.7351
vn 0.6773 0.0260 0.7352
vn 0.6840 0.0130 0.7293
vn 0.7099 0.7043 -0.0038
vn -0.0001 0.6995 0.7146
vn -0.7034 0.7108 -0.0046
vn -0.7034 -0.7108 0.0046
vn -0.0001 -0.6995 -0.7146
vn -0.6840 -0.0129 -0.7294
vn -0.6774 -0.0257 -0.7351
vn -0.6773 0.0260 -0.7352
vn -0.6840 0.0130 -0.7293
vn 0.7099 -0.7043 0.0038
vn 0.6773 -0.0260 -0.7352
vn 0.6840 -0.0130 -0.7293
vn 0.6840 0.0129 -0.7294
vn 0.6774 0.0257 -0.7351
vn -0.7099 0.7043 0.0038
vn 0.0001 0.6995 -0.7146
vn 0.7034 0.7108 0.0046
vn 0.2304 0.0102 0.9730
vn 0.0162 0.2568 0.9663
vn 0.0039 0.2448 0.9696
vn 0.2153 0.0048 0.9765
vn -0.5681 -0.0275 0.8225
vn -0.5767 -0.0155 0.8168
vn -0.5765 0.0154 0.8170
vn -0.5671 0.0284 0.8231
vn -0.0060 -0.5661 0.8243
vn -0.0240 -0.5539 0.8322
vn 0.0230 -0.5549 0.8316
vn 0.0061 -0.5663 0.8242
vn -0.0162 0.2568 0.9663
vn -0.2304 0.0102 0.9730
vn -0.2153 0.0048 0.9765
vn -0.0039 0.2448 0.9696
vn 0.5765 -0.0154 0.8170
vn 0.5671 -0.0284 0.8231
vn 0.5681 0.0275 0.8225
vn 0.5767 0.0155 0.8168
vn -0.2304 -0.0102 0.9730
vn -0.0161 -0.2568 0.9663
vn -0.0039 -0.2448 0.9696
vn -0.2154 -0.0048 0.9765
vn 0.0060 0.5661 0.8243
vn 0.0240 0.5539 0.8322
vn -0.0230 0.5549 0.8316
vn -0.0061 0.5663 0.8242
vn 0.0161 -0.2568 0.9663
vn 0.2304 -0.0102 0.9730
vn 0.2153 -0.0048 0.9765
vn 0.0039 -0.2448 0.9696
vn 0.9715 0.0104 -0.2367
vn 0.9645 0.2636 -0.0166
vn 0.9682 0.2503 -0.0040
vn 0.9754 0.0049 -0.2204
vn 0.8244 -0.0274 0.5653
vn 0.8187 -0.0155 0.5740
vn 0.8189 0.0153 0.5737
vn 0.8251 0.0283 0.5643
vn 0.8265 -0.5630 0.0059
vn 0.8343 -0.5508 0.0238
vn 0.8337 -0.5517 -0.0228
vn 0.8264 -0.5631 -0.0061
vn 0.9645 0.2637 0.0166
vn 0.9715 0.0104 0.2367
vn 0.9754 0.0049 0.2204
vn 0.9682 0.2503 0.0040
vn 0.8189 -0.0153 -0.5737
vn 0.8251 -0.0283 -0.5643
vn 0.8244 0.0274 -0.5653
vn 0.8187 0.0155 -0.5740
vn 0.9715 -0.0104 0.2367
vn 0.9645 -0.2637 0.0165
vn 0.9682 -0.2502 0.0040
vn 0.9754 -0.0049 0.2204
vn 0.8265 0.5630 -0.0059
vn 0.8343 0.5508 -0.0238
vn 0.8337 0.5517 0.0228
vn 0.8264 0.5631 0.0061
vn 0.9645 -0.2637 -0.0165
vn 0.9715 -0.0104 -0.2367
vn 0.9754 -0.0049 -0.2204
vn 0.9682 -0.2503 -0.0040
vn 0.0162 0.2568 -0.9663
vn 0.2304 0.0102 -0.9730
vn 0.2153 0.0048 -0.9765
vn 0.0039 0.2448 -0.9696
vn -0.0230 -0.5549 -0.8316
vn -0.0061 -0.5663 -0.8242
vn 0.0060 -0.5661 -0.8243
vn 0.0240 -0.5539 -0.8322
vn -0.5765 -0.0154 -0.8170
vn -0.5671 -0.0284 -0.8231
vn -0.5681 0.0275 -0.8225
vn -0.5767 0.0155 -0.8168
vn -0.2304 0.0102 -0.9730
vn -0.0162 0.2568 -0.9663
vn -0.0039 0.2448 -0.9696
vn -0.2153 0.0048 -0.9765
vn 0.5681 -0.0275 -0.8225
vn 0.5767 -0.0155 -0.8168
vn 0.5765 0.0154 -0.8170
vn 0.5671 0.0284 -0.8231
vn 0.2304 -0.0102 -0.9730
vn 0.0161 -0.2568 -0.9663
vn 0.0039 -0.2448 -0.9696
vn 0.2154 -0.0048 -0.9765
vn -0.0060 0.5661 -0.8243
vn -0.0240 0.5539 -0.8322
vn 0.0230 0.5549 -0.8316
vn 0.0061 0.5663 -0.8242
vn -0.0161 -0.2568 -0.9663
vn -0.2304 -0.0102 -0.9730
vn -0.2153 -0.0048 -0.9765
vn -0.0039 -0.2448 -0.9696
vn -0.9645 0.2637 -0.0166
vn -0.9715 0.0104 -0.2367
vn -0.9754 0.0049 -0.2204
vn -0.9682 0.2503 -0.0040
vn -0.8337 -0.5517 0.0228
vn -0.8264 -0.5631 0.0061
vn -0.8265 -0.5630 -0.0059
vn -0.8343 -0.5508 -0.0238
vn -0.8189 -0.0153 0.5737
vn -0.8251 -0.0283 0.5643
vn -0.8244 0.0274 0.5653
vn -0.8187 0.0155 0.5740
vn -0.9715 0.0104 0.2367
vn -0.9645 0.2636 0.0166
vn -0.9682 0.2503 0.0040
vn -0.9754 0.0049 0.2204
vn -0.8244 -0.0274 -0.5653
vn -0.8187 -0.0155 -0.5740
vn -0.8189 0.0153 -0.5737
vn -0.8251 0.0283 -0.5643
vn -0.9715 -0.0104 -0.2367
vn -0.9645 -0.2637 -0.0165
vn -0.9682 -0.2502 -0.0040
vn -0.9754 -0.0049 -0.2204
vn -0.8265 0.5630 0.0059
vn -0.8343 0.5508 0.0238
vn -0.8337 0.5517 -0.0228
vn -0.8264 0.5631 -0.0061
vn -0.9645 -0.2637 0.0165
vn -0.9715 -0.0104 0.2367
vn -0.9754 -0.0049 0.2204
vn -0.9682 -0.2503 0.0040
vn 1.0000 0.0077 -0.0056
vn 1.0000 -0.0077 -0.0056
vn 1.0000 0.0077 0.0056
vn 1.0000 -0.0077 0.0056
vn -1.0000 0.0077 -0.0056
vn -1.0000 -0.0077 -0.0056
vn -1.0000 0.0077 0.0056
vn -1.0000 -0.0077 0.0056
vn 0.0055 0.0076 1.0000
vn 0.0055 -0.0075 1.0000
vn -0.0055 0.0075 1.0000
vn -0.0055 -0.0075 1.0000
vn 0.0055 0.0075 -1.0000
vn 0.0055 -0.0075 -1.0000
vn -0.0055 0.0075 -1.0000
vn -0.0055 -0.0075 -1.0000
vn -0.5774 -0.5774 0.5773
vn 0.5774 -0.5774 0.5773
vn -0.5774 -0.5774 -0.5773
vn 0.5774 -0.5774 -0.5773
vn -0.4598 -0.7597 0.4598
vn -0.4967 0.7111 0.4976
vn -0.4972 0.7104 0.4981
vn 0.4977 0.7103 0.4978
vn 0.4979 0.7099 0.4981
vn 0.4610 -0.7552 0.4661
vn 0.4598 -0.7597 -0.4598
vn 0.4967 0.7111 -0.4976
vn 0.4972 0.7104 -0.4981
vn -0.4977 0.7103 -0.4978
vn -0.4979 0.7099 -0.4981
vn -0.4610 -0.7552 -0.4661
vn -0.4977 -0.7103 0.4978
vn -0.2857 -0.9153 0.2840
vn -0.4979 -0.7099 0.4981
vn 0.4972 -0.7104 0.4981
vn 0.4967 -0.7111 0.4976
vn 0.2847 -0.9151 0.2856
vn 0.4977 -0.7103 -0.4978
vn 0.4979 -0.7099 -0.4981
vn 0.4610 0.7552 -0.4661
vn -0.4972 -0.7104 -0.4981
vn -0.4967 -0.7111 -0.4976
vn -0.2847 -0.9151 -0.2856
vn 0.8218 -0.3874 0.4178
vn 0.8215 -0.3897 -0.4163
vn 0.8218 0.3874 -0.4178
vn 0.8215 0.3897 0.4163
vn -0.8215 -0.3897 0.4163
vn -0.8218 -0.3874 -0.4178
vn -0.8218 0.3874 0.4178
vn -0.8215 0.3897 -0.4163
vn -0.4178 -0.3874 0.8218
vn 0.4163 -0.3897 0.8215
vn 0.4178 0.3874 0.8218
vn -0.4163 0.3897 0.8215
vn -0.4163 -0.3897 -0.8215
vn 0.4178 -0.3874 -0.8218
vn -0.4178 0.3874 -0.8218
vn 0.4163 0.3897 -0.8215
vn -0.4598 0.7597 -0.4598
vn -0.4610 0.7552 0.4661
vn 0.4598 0.7597 0.4598
vn 0.2857 0.9153 0.2840
vn 0.2847 0.9151 -0.2856
vn -0.2857 0.9153 -0.2840
vn -0.2847 0.9151 0.2856
vn 0.2857 -0.9153 -0.2840
vt 0.377705 0.997295
vt 0.375000 0.997295
vt 0.375000 0.752705
vt 0.377705 0.752705
vt 0.377705 0.060824
vt 0.377705 0.000000
vt 0.622295 -0.000000
vt 0.622295 0.060824
vt 0.372295 0.060824
vt 0.377651 0.190403
vt 0.372322 0.189790
vt 0.625000 0.997295
vt 0.622295 0.997295
vt 0.622295 0.752705
vt 0.625000 0.752705
vt 0.627705 0.060824
vt 0.627651 0.190403
vt 0.622322 0.189790
vt 0.375000 0.252545
vt 0.377758 0.250000
vt 0.377806 0.250000
vt 0.375000 0.252543
vt 0.375000 0.250000
vt 0.125000 0.250000
vt 0.127651 0.190403
vt 0.622455 0.250000
vt 0.625000 0.252758
vt 0.625000 0.252756
vt 0.622457 0.250000
vt 0.625000 0.250000
vt 0.872322 0.189790
vt 0.875000 0.250000
vt 0.377545 0.500000
vt 0.375000 0.497242
vt 0.375000 0.497244
vt 0.377543 0.500000
vt 0.377678 0.560210
vt 0.622242 0.500000
vt 0.622349 0.559597
vt 0.375000 0.559597
vt 0.377705 0.689176
vt 0.375000 0.689176
vt 0.625000 0.497455
vt 0.622244 0.500000
vt 0.625000 0.497457
vt 0.625000 0.560210
vt 0.625000 0.689176
vt 0.622295 0.689176
vt 0.377496 0.250000
vt 0.375000 0.252705
vt 0.375000 0.252756
vt 0.377543 0.250000
vt 0.377705 0.250000
vt 0.622295 0.250000
vt 0.621587 0.250000
vt 0.375000 0.253413
vt 0.377758 0.250000
vt 0.375000 0.253446
vt 0.375000 0.497295
vt 0.375000 0.497504
vt 0.625000 0.252496
vt 0.622194 0.250000
vt 0.625000 0.252543
vt 0.625000 0.252705
vt 0.625000 0.497295
vt 0.625000 0.496587
vt 0.621554 0.250000
vt 0.622504 0.500000
vt 0.625000 0.497194
vt 0.622457 0.500000
vt 0.622295 0.500000
vt 0.377705 0.500000
vt 0.378413 0.500000
vt 0.625000 0.496554
vt 0.377806 0.500000
vt 0.375000 0.497457
vt 0.375000 0.497242
vt 0.378446 0.500000
vt 0.375000 0.253344
vt 0.378344 0.250000
vt 0.378276 0.250000
vt 0.375000 0.253344
vt 0.375000 0.496656
vt 0.621656 0.250000
vt 0.625000 0.253344
vt 0.625000 0.253276
vt 0.621656 0.250000
vt 0.625000 0.496656
vt 0.621656 0.500000
vt 0.621724 0.500000
vt 0.625000 0.496656
vt 0.378344 0.500000
vt 0.375000 0.496724
vt 0.378344 0.500000
vt 0.375000 0.253997
vt 0.378540 0.250000
vt 0.378479 0.250000
vt 0.375000 0.253891
vt 0.375000 0.496460
vt 0.621003 0.250000
vt 0.625000 0.253540
vt 0.625000 0.253479
vt 0.621109 0.250000
vt 0.625000 0.496003
vt 0.621460 0.500000
vt 0.621521 0.500000
vt 0.625000 0.496109
vt 0.378997 0.500000
vt 0.375000 0.496521
vt 0.378891 0.500000
vt 0.375000 0.253776
vt 0.378776 0.250000
vt 0.378853 0.250000
vt 0.375000 0.253853
vt 0.375000 0.496224
vt 0.621224 0.250000
vt 0.625000 0.253776
vt 0.625000 0.253853
vt 0.621147 0.250000
vt 0.625000 0.496224
vt 0.621224 0.500000
vt 0.621147 0.500000
vt 0.625000 0.496147
vt 0.378776 0.500000
vt 0.375000 0.496147
vt 0.378853 0.500000
vt 0.375000 0.253853
vt 0.378698 0.250000
vt 0.375000 0.253776
vt 0.375000 0.496147
vt 0.625000 0.253698
vt 0.621224 0.250000
vt 0.625000 0.496147
vt 0.621302 0.500000
vt 0.625000 0.496224
vt 0.375000 0.496302
vt 0.378776 0.500000
vt 0.375000 0.254392
vt 0.378997 0.250000
vt 0.378778 0.250000
vt 0.375000 0.254193
vt 0.375000 0.496003
vt 0.620608 0.250000
vt 0.625000 0.253997
vt 0.625000 0.253778
vt 0.620807 0.250000
vt 0.625000 0.495608
vt 0.621003 0.500000
vt 0.621222 0.500000
vt 0.625000 0.495807
vt 0.379392 0.500000
vt 0.375000 0.496222
vt 0.379193 0.500000
vt 0.379671 0.250000
vt 0.379636 0.250000
vt 0.375000 0.256081
vt 0.375000 0.255968
vt 0.375000 0.495371
vt 0.618926 0.250000
vt 0.625000 0.250000
vt 0.619040 0.250000
vt 0.625000 0.254629
vt 0.625000 0.493919
vt 0.625000 0.254636
vt 0.625000 0.500000
vt 0.620329 0.500000
vt 0.620364 0.500000
vt 0.625000 0.500000
vt 0.625000 0.494032
vt 0.381074 0.500000
vt 0.375000 0.500000
vt 0.380960 0.500000
vt 0.375000 0.495364
vt 0.381074 0.250000
vt 0.380960 0.250000
vt 0.379193 0.250000
vt 0.620329 0.250000
vt 0.621304 0.250000
vt 0.375000 0.253696
vt 0.379392 0.250000
vt 0.375000 0.253840
vt 0.375000 0.254629
vt 0.375000 0.495807
vt 0.375000 0.493919
vt 0.375000 0.254636
vt 0.620364 0.250000
vt 0.625000 0.256081
vt 0.625000 0.255967
vt 0.625000 0.254193
vt 0.625000 0.495371
vt 0.625000 0.496304
vt 0.625000 0.254313
vt 0.621160 0.250000
vt 0.618926 0.500000
vt 0.619040 0.500000
vt 0.620807 0.500000
vt 0.379671 0.500000
vt 0.378696 0.500000
vt 0.620687 0.500000
vt 0.625000 0.496160
vt 0.625000 0.495364
vt 0.379636 0.500000
vt 0.375000 0.500000
vt 0.375000 0.494033
vt 0.375000 0.495687
vt 0.378840 0.500000
vt 0.375000 0.252446
vt 0.375000 0.497554
vt 0.377446 0.250000
vt 0.622604 0.250000
vt 0.377396 0.250000
vt 0.375000 0.252446
vt 0.625000 0.252446
vt 0.625000 0.497604
vt 0.622554 0.250000
vt 0.625000 0.497554
vt 0.375000 0.497554
vt 0.622554 0.500000
vt 0.377396 0.500000
vt 0.622554 0.500000
vt 0.377446 0.500000
vt 0.375000 0.253694
vt 0.375000 0.496306
vt 0.378694 0.250000
vt 0.621382 0.250000
vt 0.378694 0.250000
vt 0.375000 0.253732
vt 0.625000 0.253694
vt 0.625000 0.496382
vt 0.625000 0.253694
vt 0.621268 0.250000
vt 0.621407 0.250000
vt 0.625000 0.253843
vt 0.625000 0.253840
vt 0.621409 0.250000
vt 0.378843 0.250000
vt 0.625000 0.496268
vt 0.625000 0.496407
vt 0.375000 0.253593
vt 0.378911 0.250000
vt 0.375000 0.253591
vt 0.375000 0.496157
vt 0.375000 0.496306
vt 0.621306 0.500000
vt 0.378618 0.500000
vt 0.621306 0.500000
vt 0.621157 0.500000
vt 0.621160 0.500000
vt 0.625000 0.496409
vt 0.378732 0.500000
vt 0.378593 0.500000
vt 0.375000 0.496160
vt 0.378591 0.500000
vt 0.375000 0.253454
vt 0.375000 0.496546
vt 0.378454 0.250000
vt 0.621617 0.250000
vt 0.378454 0.250000
vt 0.375000 0.253489
vt 0.625000 0.253454
vt 0.625000 0.496617
vt 0.625000 0.253454
vt 0.621511 0.250000
vt 0.621706 0.250000
vt 0.625000 0.253593
vt 0.625000 0.253591
vt 0.621708 0.250000
vt 0.378593 0.250000
vt 0.625000 0.496511
vt 0.625000 0.496706
vt 0.375000 0.253294
vt 0.378656 0.250000
vt 0.375000 0.253292
vt 0.375000 0.496407
vt 0.375000 0.496546
vt 0.621546 0.500000
vt 0.378383 0.500000
vt 0.621546 0.500000
vt 0.621407 0.500000
vt 0.621409 0.500000
vt 0.625000 0.496708
vt 0.378489 0.500000
vt 0.378294 0.500000
vt 0.375000 0.496409
vt 0.378292 0.500000
vt 0.375000 0.253167
vt 0.375000 0.496833
vt 0.378167 0.250000
vt 0.621898 0.250000
vt 0.378232 0.250000
vt 0.375000 0.253232
vt 0.625000 0.253167
vt 0.625000 0.496898
vt 0.625000 0.253232
vt 0.621768 0.250000
vt 0.621768 0.250000
vt 0.625000 0.253232
vt 0.625000 0.253167
vt 0.621801 0.250000
vt 0.378232 0.250000
vt 0.625000 0.496768
vt 0.625000 0.496768
vt 0.375000 0.253232
vt 0.378167 0.250000
vt 0.375000 0.253199
vt 0.375000 0.496768
vt 0.375000 0.496768
vt 0.621833 0.500000
vt 0.378102 0.500000
vt 0.621768 0.500000
vt 0.621833 0.500000
vt 0.625000 0.496801
vt 0.378232 0.500000
vt 0.375000 0.496833
vt 0.378199 0.500000
vt 0.375000 0.252706
vt 0.378294 0.250000
vt 0.378352 0.250000
vt 0.375000 0.252704
vt 0.375000 0.496706
vt 0.622294 0.250000
vt 0.625000 0.253294
vt 0.625000 0.253292
vt 0.622296 0.250000
vt 0.625000 0.497294
vt 0.621706 0.500000
vt 0.621708 0.500000
vt 0.625000 0.497296
vt 0.377706 0.500000
vt 0.375000 0.496708
vt 0.377704 0.500000
vt 0.378770 0.250000
vt 0.375000 0.254234
vt 0.378770 0.250000
vt 0.377994 0.252994
vt 0.620766 0.250000
vt 0.622006 0.252994
vt 0.377994 0.497006
vt 0.375000 0.496230
vt 0.625000 0.253770
vt 0.625000 0.253770
vt 0.625000 0.495766
vt 0.622006 0.497006
vt 0.621230 0.500000
vt 0.625000 0.495766
vt 0.379234 0.500000
vt 0.375000 0.496230
vt 0.378525 0.250000
vt 0.375000 0.253770
vt 0.375000 0.253770
vt 0.378525 0.250000
vt 0.621230 0.250000
vt 0.375000 0.496475
vt 0.625000 0.253525
vt 0.621230 0.250000
vt 0.625000 0.253525
vt 0.625000 0.496230
vt 0.621475 0.500000
vt 0.621475 0.500000
vt 0.378770 0.500000
vt 0.375000 0.496475
vt 0.375000 0.253525
vt 0.375000 0.253525
vt 0.621475 0.250000
vt 0.625000 0.253232
vt 0.625000 0.253232
vt 0.625000 0.496475
vt 0.625000 0.496475
vt 0.378525 0.500000
vt 0.378525 0.500000
vt 0.377655 0.250000
vt 0.375000 0.253292
vt 0.377704 0.250000
vt 0.375000 0.497345
vt 0.625000 0.252655
vt 0.621648 0.250000
vt 0.625000 0.252704
vt 0.622345 0.500000
vt 0.625000 0.496648
vt 0.622296 0.500000
vt 0.378232 0.500000
vt 0.378352 0.500000
vt 0.375000 0.497296
vt 0.375000 0.252601
vt 0.375000 0.497399
vt 0.377601 0.250000
vt 0.622452 0.250000
vt 0.377548 0.250000
vt 0.375000 0.252601
vt 0.625000 0.252601
vt 0.625000 0.497452
vt 0.622399 0.250000
vt 0.625000 0.497399
vt 0.375000 0.497399
vt 0.622399 0.500000
vt 0.377548 0.500000
vt 0.377601 0.500000
vt 0.625000 0.255426
vt 0.625000 0.255304
vt 0.625000 0.494574
vt 0.625000 0.494606
vt 0.625000 0.494696
vt 0.625000 0.255426
vt 0.625000 0.255394
vt 0.375000 0.255426
vt 0.375000 0.255394
vt 0.375000 0.494574
vt 0.375000 0.494696
vt 0.375000 0.255426
vt 0.375000 0.255304
vt 0.375000 0.494574
vt 0.375000 0.494606
vt 0.380420 0.250000
vt 0.380297 0.250000
vt 0.619580 0.250000
vt 0.625000 0.250000
vt 0.619612 0.250000
vt 0.619703 0.250000
vt 0.375000 0.250000
vt 0.380388 0.250000
vt 0.380420 0.500000
vt 0.380388 0.500000
vt 0.619580 0.500000
vt 0.619703 0.500000
vt 0.380420 0.500000
vt 0.380297 0.500000
vt 0.619612 0.500000
vt 0.381111 0.250000
vt 0.380930 0.250000
vt 0.617021 0.250000
vt 0.617312 0.250000
vt 0.618889 0.250000
vt 0.619112 0.250000
vt 0.382979 0.250000
vt 0.382688 0.250000
vt 0.625000 0.256115
vt 0.625000 0.255936
vt 0.625000 0.492079
vt 0.625000 0.492369
vt 0.625000 0.493885
vt 0.625000 0.494109
vt 0.625000 0.257921
vt 0.625000 0.257631
vt 0.382979 0.500000
vt 0.382688 0.500000
vt 0.618889 0.500000
vt 0.619070 0.500000
vt 0.381111 0.500000
vt 0.380888 0.500000
vt 0.617021 0.500000
vt 0.617312 0.500000
vt 0.375000 0.257921
vt 0.375000 0.257631
vt 0.375000 0.493885
vt 0.375000 0.494064
vt 0.375000 0.256115
vt 0.375000 0.255891
vt 0.375000 0.492079
vt 0.375000 0.492369
vt 0.625000 0.255088
vt 0.625000 0.255088
vt 0.625000 0.494912
vt 0.625000 0.494899
vt 0.375000 0.255088
vt 0.375000 0.255101
vt 0.375000 0.494912
vt 0.375000 0.494912
vt 0.380121 0.250000
vt 0.619879 0.250000
vt 0.619867 0.250000
vt 0.380121 0.500000
vt 0.380133 0.500000
vt 0.619879 0.500000
vt 0.872295 0.060824
vt 0.127705 0.060824
s 1
usemtl pedestal_blinn
f 1/1/1 3/2/1 23/3/1 25/4/1
f 2/5/2 1/6/2 6/7/2 5/8/2
f 3/9/3 2/5/3 9/10/3 8/11/3
f 4/12/4 6/13/4 26/14/4 28/15/4
f 5/8/5 4/16/5 13/17/5 12/18/5
f 7/19/6 10/20/6 174/21/6 173/22/6
f 8/11/7 7/23/8 18/24/9 17/25/10
f 10/20/11 9/10/12 12/18/13 11/26/14
f 11/26/6 14/27/6 180/28/6 179/29/6
f 14/30/15 13/17/16 20/31/17 19/32/18
f 15/33/6 18/34/6 200/35/6 199/36/6
f 16/37/19 15/33/20 22/38/21 21/39/22
f 17/40/23 16/37/23 24/41/23 23/42/23
f 19/43/6 22/38/6 192/44/6 191/45/6
f 21/39/24 20/46/24 28/47/24 27/48/24
f 25/4/25 24/41/25 27/48/25 26/14/25
f 29/49/26 32/50/26 188/51/26 187/52/26
f 30/53/26 29/49/26 36/54/26 35/55/26
f 31/56/26 30/53/26 47/57/26 46/58/26
f 32/50/26 31/56/26 42/59/26 41/60/26
f 33/61/26 36/54/26 182/62/26 181/63/26
f 34/64/26 33/61/26 40/65/26 39/66/26
f 35/55/26 34/64/26 51/27/26 50/67/26
f 37/68/26 40/65/26 194/69/26 193/70/26
f 38/71/26 37/68/26 44/72/26 43/73/26
f 39/66/26 38/71/26 55/38/26 54/74/26
f 41/60/26 44/72/26 202/75/26 201/76/26
f 43/73/26 42/59/26 59/77/26 58/78/26
f 45/79/27 48/80/27 63/81/27 62/82/27
f 46/58/28 45/79/29 60/83/30 59/77/31
f 48/80/32 47/57/33 50/67/34 49/84/35
f 49/84/36 52/85/36 67/86/36 66/87/36
f 52/85/37 51/27/38 54/74/39 53/88/40
f 53/88/41 56/89/41 71/90/41 70/91/41
f 56/89/42 55/38/43 58/78/44 57/92/45
f 57/92/46 60/83/46 75/93/46 74/94/46
f 61/95/26 64/96/26 79/97/26 78/98/26
f 62/82/47 61/95/48 76/99/49 75/93/50
f 64/96/51 63/81/52 66/87/53 65/100/54
f 65/100/26 68/101/26 83/102/26 82/103/26
f 68/101/55 67/86/56 70/91/57 69/104/58
f 69/104/26 72/105/26 87/106/26 86/107/26
f 72/105/59 71/90/60 74/94/61 73/108/62
f 73/108/26 76/99/26 91/109/26 90/110/26
f 77/111/63 80/112/63 95/113/64 94/114/64
f 78/98/65 77/111/66 92/115/67 91/109/68
f 80/112/69 79/97/70 82/103/71 81/116/72
f 81/116/73 84/117/73 99/118/74 98/119/74
f 84/117/75 83/102/76 86/107/77 85/120/78
f 85/120/79 88/121/79 103/122/80 102/123/80
f 88/121/81 87/106/82 90/110/83 89/124/84
f 89/124/85 92/115/85 107/125/86 106/126/86
f 93/127/87 96/113/87 111/128/88 110/129/88
f 94/114/89 93/127/89 108/130/89 107/125/89
f 96/113/90 95/113/90 98/119/90 97/119/90
f 97/119/91 100/118/91 115/131/92 114/132/92
f 100/118/93 99/118/93 102/123/93 101/133/93
f 101/133/94 104/122/94 119/134/95 118/135/95
f 104/122/96 103/122/96 106/126/96 105/126/96
f 105/126/97 108/130/97 123/136/98 122/137/98
f 109/138/26 112/139/26 129/140/26 128/141/26
f 110/129/99 109/138/100 124/142/101 123/136/102
f 112/139/103 111/128/104 114/132/105 113/143/106
f 113/143/26 116/144/26 133/145/26 132/146/26
f 116/144/107 115/131/108 118/135/109 117/147/110
f 117/147/26 120/148/26 141/149/26 140/150/26
f 120/148/111 119/134/112 122/137/113 121/151/114
f 121/151/26 124/142/26 145/152/26 144/153/26
f 125/23/90 130/154/90 443/155/90 442/23/90
f 126/23/115 125/23/115 154/23/115 153/23/115
f 127/156/89 126/23/89 427/23/89 426/157/89
f 128/141/116 127/156/116 146/158/116 145/152/116
f 130/154/117 129/140/117 132/146/117 131/159/117
f 131/159/90 136/30/90 447/160/90 446/161/90
f 134/162/118 133/145/118 140/150/118 139/163/118
f 135/30/93 134/162/93 411/164/93 410/30/93
f 136/30/119 135/30/119 156/30/119 155/30/119
f 137/165/96 142/166/96 463/167/96 462/165/96
f 138/165/120 137/165/120 166/165/120 165/165/120
f 139/163/93 138/165/93 415/168/93 414/169/93
f 142/166/121 141/149/121 144/153/121 143/170/121
f 143/170/96 148/171/96 459/171/96 458/172/96
f 147/171/89 146/158/89 431/173/89 430/171/89
f 148/171/122 147/171/122 168/171/122 167/171/122
f 149/174/90 154/23/90 455/23/90 454/175/90
f 150/176/123 149/174/123 160/177/123 159/178/123
f 151/179/6 150/176/6 206/180/6 205/181/6
f 152/182/124 151/179/124 170/183/124 169/184/124
f 153/23/89 152/182/89 435/185/89 434/23/89
f 155/30/90 160/177/90 451/186/90 450/30/90
f 157/187/93 156/30/93 423/30/93 422/188/93
f 158/189/125 157/187/125 164/190/125 163/191/125
f 159/178/6 158/189/6 212/192/6 211/193/6
f 161/194/96 166/165/96 471/165/96 470/195/96
f 162/196/126 161/194/126 172/197/126 171/198/126
f 163/191/6 162/196/6 224/199/6 223/200/6
f 165/165/93 164/190/93 419/201/93 418/165/93
f 167/171/96 172/197/96 467/202/96 466/203/96
f 169/184/89 168/171/89 439/171/89 438/204/89
f 171/198/6 170/183/6 232/205/6 231/206/6
f 173/22/127 176/207/128 197/208/129 200/35/130
f 175/209/131 174/21/132 179/29/133 178/210/134
f 176/207/135 175/209/135 186/211/135 185/212/135
f 177/213/136 180/28/137 191/45/138 190/214/139
f 178/210/140 177/213/140 184/213/140 183/215/140
f 181/63/141 184/213/142 195/216/143 194/69/144
f 183/215/145 182/62/146 187/52/147 186/211/148
f 185/212/149 188/51/150 201/76/151 204/217/152
f 189/218/153 192/44/154 199/36/155 198/219/156
f 190/214/157 189/218/157 196/220/157 195/216/157
f 193/70/158 196/220/159 203/221/160 202/75/161
f 198/219/162 197/208/162 204/217/162 203/221/162
f 205/181/163 208/222/164 229/223/165 232/205/166
f 207/224/167 206/180/168 211/193/169 210/225/170
f 208/222/171 207/224/171 219/226/171 218/227/171
f 209/228/172 212/192/173 223/200/174 222/229/175
f 210/225/176 209/228/176 215/230/176 214/231/176
f 213/232/6 216/233/6 244/234/6 243/235/6
f 214/231/177 213/232/178 220/236/179 219/226/180
f 216/233/181 215/230/182 226/237/183 225/238/184
f 217/239/6 220/236/6 238/240/6 237/241/6
f 218/227/185 217/239/186 236/242/187 235/243/188
f 221/244/189 224/199/190 231/206/191 230/245/192
f 222/229/193 221/244/193 227/246/193 226/237/193
f 225/238/6 228/247/6 256/248/6 255/249/6
f 228/247/194 227/246/195 234/250/196 233/251/197
f 230/245/198 229/223/198 235/243/198 234/250/198
f 233/251/6 236/242/6 264/252/6 263/253/6
f 237/241/199 240/254/200 261/255/201 264/252/202
f 239/256/203 238/240/204 243/235/205 242/257/206
f 240/254/207 239/256/207 251/258/207 250/259/207
f 241/260/208 244/234/209 255/249/210 254/261/211
f 242/257/212 241/260/212 247/262/212 246/263/212
f 245/264/6 248/265/6 276/266/6 275/267/6
f 246/263/213 245/264/214 252/268/215 251/258/216
f 248/265/217 247/262/218 258/269/219 257/270/220
f 249/271/6 252/268/6 270/272/6 269/273/6
f 250/259/221 249/271/222 268/274/223 267/275/224
f 253/276/225 256/248/226 263/253/227 262/277/228
f 254/261/229 253/276/229 259/278/229 258/269/229
f 257/270/6 260/279/6 288/280/6 287/281/6
f 260/279/230 259/278/231 266/282/232 265/283/233
f 262/277/234 261/255/234 267/275/234 266/282/234
f 265/283/6 268/274/6 296/284/6 295/285/6
f 269/273/235 272/286/236 293/287/237 296/284/238
f 271/288/239 270/272/240 275/267/241 274/289/242
f 272/286/243 271/288/243 283/290/244 282/291/245
f 273/292/246 276/266/247 287/281/248 286/293/249
f 274/289/250 273/292/250 279/294/251 278/295/251
f 277/296/252 280/297/252 307/298/253 306/299/253
f 278/295/90 277/296/90 284/300/90 283/290/90
f 280/297/93 279/294/93 290/301/93 289/302/93
f 281/303/254 284/300/254 303/304/255 302/305/255
f 282/291/89 281/303/89 300/306/89 299/307/89
f 285/308/256 288/280/257 295/285/258 294/309/259
f 286/293/260 285/308/260 291/310/261 290/301/261
f 289/302/262 292/310/262 311/311/263 310/312/263
f 292/310/96 291/310/96 298/313/96 297/313/96
f 294/309/264 293/287/264 299/307/265 298/313/265
f 297/313/266 300/306/266 315/314/267 314/315/267
f 301/316/6 304/317/6 378/318/6 377/319/6
f 302/305/268 301/316/269 316/320/270 315/314/271
f 304/317/272 303/304/273 306/299/274 305/321/275
f 305/321/6 308/322/6 384/323/6 383/324/6
f 308/322/276 307/298/277 310/312/278 309/325/279
f 309/325/6 312/326/6 396/327/6 395/328/6
f 312/326/280 311/311/281 314/315/282 313/329/283
f 313/329/6 316/320/6 404/330/6 403/331/6
f 317/332/26 319/333/26 331/333/26 330/334/26
f 318/335/26 317/332/26 322/336/26 321/337/26
f 319/333/26 318/335/26 327/338/26 326/339/26
f 320/340/26 322/336/26 335/336/26 334/341/26
f 321/337/26 320/340/26 325/342/26 324/343/26
f 323/344/26 325/342/26 339/345/26 338/344/26
f 324/343/26 323/344/26 328/346/26 327/338/26
f 326/339/26 328/346/26 343/346/26 342/347/26
f 329/348/26 332/349/26 347/350/26 346/351/26
f 330/334/26 329/348/26 336/352/26 335/336/26
f 332/349/26 331/333/26 342/347/26 341/353/26
f 333/354/26 336/352/26 351/355/26 350/356/26
f 334/341/26 333/354/26 340/357/26 339/345/26
f 337/358/26 340/357/26 355/357/26 354/359/26
f 338/344/26 337/358/26 344/360/26 343/346/26
f 341/353/26 344/360/26 359/360/26 358/361/26
f 345/290/26 348/362/26 363/363/26 362/290/26
f 346/351/26 345/290/26 352/364/26 351/355/26
f 348/362/26 347/350/26 358/361/26 357/306/26
f 349/365/26 352/364/26 367/364/26 366/366/26
f 350/356/26 349/365/26 356/367/26 355/357/26
f 353/310/26 356/367/26 371/368/26 370/310/26
f 354/359/26 353/310/26 360/369/26 359/360/26
f 357/306/26 360/369/26 375/370/26 374/306/26
f 361/371/26 364/291/26 392/372/26 391/373/26
f 362/290/26 361/371/26 368/296/26 367/364/26
f 364/291/26 363/363/26 374/306/26 373/374/26
f 365/375/26 368/296/26 386/376/26 385/377/26
f 366/366/26 365/375/26 372/302/26 371/368/26
f 369/378/26 372/302/26 398/379/26 397/380/26
f 370/310/26 369/378/26 376/381/26 375/370/26
f 373/374/26 376/381/26 406/382/26 405/383/26
f 377/319/284 380/384/285 401/385/286 404/330/287
f 379/386/288 378/318/289 383/324/290 382/387/291
f 380/384/292 379/386/292 390/388/292 389/389/292
f 381/390/293 384/323/294 395/328/295 394/391/296
f 382/387/297 381/390/297 388/390/297 387/392/297
f 385/377/298 388/390/299 399/393/300 398/379/301
f 387/392/302 386/376/303 391/373/304 390/388/305
f 389/389/306 392/372/307 405/383/308 408/394/309
f 393/395/310 396/327/311 403/331/312 402/396/313
f 394/391/314 393/395/314 400/395/314 399/393/314
f 397/380/315 400/395/316 407/397/317 406/382/318
f 402/396/319 401/385/319 408/394/319 407/397/319
f 409/30/320 412/398/320 491/399/320 490/30/320
f 410/30/321 409/30/322 424/30/323 423/30/324
f 412/398/325 411/164/325 414/169/325 413/400/325
f 413/400/326 416/165/326 495/165/326 494/401/326
f 416/165/327 415/168/328 418/165/329 417/165/330
f 417/165/331 420/400/331 499/402/331 498/165/331
f 420/400/332 419/201/332 422/188/332 421/403/332
f 421/403/333 424/30/333 503/30/333 502/404/333
f 425/405/334 428/23/334 523/23/334 522/406/334
f 426/157/335 425/405/335 432/407/335 431/173/335
f 428/23/336 427/23/337 434/23/338 433/23/339
f 429/171/340 432/407/340 527/408/340 526/171/340
f 430/171/341 429/171/342 440/171/343 439/171/344
f 433/23/345 436/409/345 531/410/345 530/23/345
f 436/409/346 435/185/346 438/204/346 437/411/346
f 437/411/347 440/171/347 535/171/347 534/412/347
f 441/23/348 444/413/348 475/414/348 474/23/348
f 442/23/349 441/23/350 456/23/351 455/23/352
f 444/413/353 443/155/353 446/161/353 445/415/353
f 445/415/354 448/30/354 479/416/354 478/417/354
f 448/30/355 447/160/356 450/30/357 449/30/358
f 449/30/359 452/415/359 483/418/359 482/30/359
f 452/415/360 451/186/360 454/175/360 453/413/360
f 453/413/361 456/23/361 487/419/361 486/420/361
f 457/421/362 460/171/362 507/171/362 506/422/362
f 458/172/363 457/421/363 464/423/363 463/167/363
f 460/171/364 459/171/365 466/203/366 465/171/367
f 461/165/368 464/423/368 511/424/368 510/165/368
f 462/165/369 461/165/370 472/165/371 471/165/372
f 465/171/373 468/425/373 515/426/373 514/171/373
f 468/425/374 467/202/374 470/195/374 469/423/374
f 469/423/375 472/165/375 519/165/375 518/427/375
f 473/23/376 476/428/377 562/429/378 561/23/379
f 474/23/380 473/23/381 488/23/382 487/419/383
f 476/428/384 475/414/385 478/417/386 477/430/387
f 477/430/388 480/30/389 566/30/390 565/431/391
f 480/30/392 479/416/393 482/30/394 481/30/395
f 481/30/396 484/432/397 569/433/398 568/30/399
f 484/432/400 483/418/401 486/420/402 485/434/403
f 485/434/404 488/23/405 572/23/406 571/435/407
f 489/30/408 492/436/409 538/437/410 537/30/411
f 490/30/412 489/30/413 504/30/414 503/30/415
f 492/436/416 491/399/417 494/401/418 493/438/419
f 493/438/420 496/165/421 542/168/422 541/439/423
f 496/165/424 495/165/425 498/165/426 497/165/427
f 497/165/428 500/440/429 545/441/430 544/165/431
f 500/440/432 499/402/433 502/404/434 501/442/435
f 501/442/436 504/30/437 548/30/438 547/443/439
f 505/444/440 508/171/441 575/171/442 574/445/443
f 506/422/444 505/444/445 512/446/446 511/424/447
f 508/171/448 507/171/449 514/171/450 513/171/451
f 509/165/452 512/446/453 577/447/454 576/165/455
f 510/165/456 509/165/457 520/165/458 519/165/459
f 513/171/460 516/448/461 581/449/462 580/171/463
f 516/448/464 515/426/465 518/427/466 517/450/467
f 517/450/468 520/165/469 584/165/470 583/451/471
f 521/452/472 524/23/473 551/23/474 550/453/475
f 522/406/476 521/452/477 528/454/478 527/408/479
f 524/23/480 523/23/481 530/23/482 529/23/483
f 525/171/484 528/454/485 553/455/486 552/171/487
f 526/171/488 525/171/489 536/171/490 535/171/491
f 529/23/492 532/456/493 557/457/494 556/23/495
f 532/456/496 531/410/497 534/412/498 533/458/499
f 533/458/500 536/171/501 560/171/502 559/459/503
f 537/30/411 539/460/504 546/461/505 548/30/438
f 539/460/504 538/437/410 541/439/423 540/462/506
f 540/462/506 542/168/422 544/165/431 543/463/507
f 543/463/507 545/441/430 547/443/439 546/461/505
f 549/464/508 551/23/474 556/23/495 555/465/509
f 550/453/475 549/464/508 554/466/510 553/455/486
f 552/171/487 554/466/510 558/467/511 560/171/502
f 555/465/509 557/457/494 559/459/503 558/467/511
f 561/23/379 563/468/512 570/468/513 572/23/406
f 563/468/512 562/429/378 565/431/391 564/469/514
f 564/469/514 566/30/390 568/30/399 567/470/515
f 567/470/515 569/433/398 571/435/407 570/468/513
f 573/471/516 575/171/442 580/171/463 579/472/517
f 574/445/443 573/471/516 578/473/518 577/447/454
f 576/165/455 578/473/518 582/473/519 584/165/470
f 579/472/517 581/449/462 583/451/471 582/473/519
f 2/5/90 5/8/90 12/18/90 9/10/90
f 318/335/26 321/337/26 324/343/26 327/338/26
f 16/37/96 21/39/96 27/48/96 24/41/96
f 25/4/6 26/14/6 6/13/6 1/1/6
f 4/16/93 28/474/93 20/31/93 13/17/93
f 23/475/89 3/9/89 8/11/89 17/25/89
f 175/209/90 178/210/90 183/215/90 186/211/90
f 177/213/93 190/214/93 195/216/93 184/213/93
f 189/218/96 198/219/96 203/221/96 196/220/96
f 197/208/89 176/207/89 185/212/89 204/217/89
f 30/53/26 35/55/26 50/67/26 47/57/26
f 34/64/26 39/66/26 54/74/26 51/27/26
f 38/71/26 43/73/26 58/78/26 55/38/26
f 42/59/26 31/56/26 46/58/26 59/77/26
f 48/80/90 49/84/90 66/87/90 63/81/90
f 52/85/93 53/88/93 70/91/93 67/86/93
f 56/89/96 57/92/96 74/94/96 71/90/96
f 60/83/89 45/79/89 62/82/89 75/93/89
f 64/96/26 65/100/26 82/103/26 79/97/26
f 68/101/26 69/104/26 86/107/26 83/102/26
f 72/105/26 73/108/26 90/110/26 87/106/26
f 76/99/26 61/95/26 78/98/26 91/109/26
f 80/112/90 81/116/90 98/119/90 95/113/90
f 84/117/93 85/120/93 102/123/93 99/118/93
f 88/121/96 89/124/96 106/126/96 103/122/96
f 92/115/89 77/111/89 94/114/89 107/125/89
f 96/113/90 97/119/90 114/132/90 111/128/90
f 100/118/93 101/133/93 118/135/93 115/131/93
f 104/122/96 105/126/96 122/137/96 119/134/96
f 108/130/89 93/127/89 110/129/89 123/136/89
f 112/139/26 113/143/26 132/146/26 129/140/26
f 116/144/26 117/147/26 140/150/26 133/145/26
f 120/148/26 121/151/26 144/153/26 141/149/26
f 124/142/26 109/138/26 128/141/26 145/152/26
f 563/468/512 564/469/514 567/470/515 570/468/513
f 539/460/504 540/462/506 543/463/507 546/461/505
f 578/473/518 573/471/516 579/472/517 582/473/519
f 554/466/510 549/464/508 555/465/509 558/467/511
f 207/224/90 210/225/90 214/231/90 219/226/90
f 209/228/93 222/229/93 226/237/93 215/230/93
f 221/244/96 230/245/96 234/250/96 227/246/96
f 229/223/89 208/222/89 218/227/89 235/243/89
f 10/20/6 11/26/6 179/29/6 174/21/6
f 36/54/26 29/49/26 187/52/26 182/62/26
f 14/27/6 19/43/6 191/45/6 180/28/6
f 40/65/26 33/61/26 181/63/26 194/69/26
f 22/38/6 15/33/6 199/36/6 192/44/6
f 44/72/26 37/68/26 193/70/26 202/75/26
f 18/34/6 7/19/6 173/22/6 200/35/6
f 32/50/26 41/60/26 201/76/26 188/51/26
f 150/176/6 159/178/6 211/193/6 206/180/6
f 322/336/26 317/332/26 330/334/26 335/336/26
f 158/189/6 163/191/6 223/200/6 212/192/6
f 325/342/26 320/340/26 334/341/26 339/345/26
f 162/196/6 171/198/6 231/206/6 224/199/6
f 328/346/26 323/344/26 338/344/26 343/346/26
f 170/183/6 151/179/6 205/181/6 232/205/6
f 319/333/26 326/339/26 342/347/26 331/333/26
f 239/256/90 242/257/90 246/263/90 251/258/90
f 241/260/93 254/261/93 258/269/93 247/262/93
f 253/276/96 262/277/96 266/282/96 259/278/96
f 261/255/89 240/254/89 250/259/89 267/275/89
f 220/236/6 213/232/6 243/235/6 238/240/6
f 336/352/26 329/348/26 346/351/26 351/355/26
f 216/233/6 225/238/6 255/249/6 244/234/6
f 340/357/26 333/354/26 350/356/26 355/357/26
f 228/247/6 233/251/6 263/253/6 256/248/6
f 344/360/26 337/358/26 354/359/26 359/360/26
f 236/242/6 217/239/6 237/241/6 264/252/6
f 332/349/26 341/353/26 358/361/26 347/350/26
f 271/288/90 274/289/90 278/295/90 283/290/90
f 273/292/93 286/293/93 290/301/93 279/294/93
f 285/308/96 294/309/96 298/313/96 291/310/96
f 293/287/89 272/286/89 282/291/89 299/307/89
f 252/268/6 245/264/6 275/267/6 270/272/6
f 352/364/26 345/290/26 362/290/26 367/364/26
f 248/265/6 257/270/6 287/281/6 276/266/6
f 356/367/26 349/365/26 366/366/26 371/368/26
f 260/279/6 265/283/6 295/285/6 288/280/6
f 360/369/26 353/310/26 370/310/26 375/370/26
f 268/274/6 249/271/6 269/273/6 296/284/6
f 348/362/26 357/306/26 374/306/26 363/363/26
f 284/300/90 277/296/90 306/299/90 303/304/90
f 280/297/93 289/302/93 310/312/93 307/298/93
f 292/310/96 297/313/96 314/315/96 311/311/96
f 300/306/89 281/303/89 302/305/89 315/314/89
f 379/386/90 382/387/90 387/392/90 390/388/90
f 381/390/93 394/391/93 399/393/93 388/390/93
f 393/395/96 402/396/96 407/397/96 400/395/96
f 401/385/89 380/384/89 389/389/89 408/394/89
f 304/317/6 305/321/6 383/324/6 378/318/6
f 368/296/26 361/371/26 391/373/26 386/376/26
f 308/322/6 309/325/6 395/328/6 384/323/6
f 372/302/26 365/375/26 385/377/26 398/379/26
f 312/326/6 313/329/6 403/331/6 396/327/6
f 376/381/26 369/378/26 397/380/26 406/382/26
f 316/320/6 301/316/6 377/319/6 404/330/6
f 364/291/26 373/374/26 405/383/26 392/372/26
f 134/162/93 139/163/93 414/169/93 411/164/93
f 138/165/93 165/165/93 418/165/93 415/168/93
f 164/190/93 157/187/93 422/188/93 419/201/93
f 156/30/93 135/30/93 410/30/93 423/30/93
f 146/158/89 127/156/89 426/157/89 431/173/89
f 126/23/89 153/23/89 434/23/89 427/23/89
f 152/182/89 169/184/89 438/204/89 435/185/89
f 168/171/89 147/171/89 430/171/89 439/171/89
f 130/154/90 131/159/90 446/161/90 443/155/90
f 136/30/90 155/30/90 450/30/90 447/160/90
f 160/177/90 149/174/90 454/175/90 451/186/90
f 154/23/90 125/23/90 442/23/90 455/23/90
f 142/166/96 143/170/96 458/172/96 463/167/96
f 148/171/96 167/171/96 466/203/96 459/171/96
f 172/197/96 161/194/96 470/195/96 467/202/96
f 166/165/96 137/165/96 462/165/96 471/165/96
f 444/413/6 445/415/6 478/417/6 475/414/6
f 448/30/93 449/30/93 482/30/93 479/416/93
f 452/415/26 453/413/26 486/420/26 483/418/26
f 456/23/89 441/23/89 474/23/89 487/419/89
f 412/398/6 413/400/6 494/401/6 491/399/6
f 416/165/96 417/165/96 498/165/96 495/165/96
f 420/400/26 421/403/26 502/404/26 499/402/26
f 424/30/90 409/30/90 490/30/90 503/30/90
f 464/423/6 457/421/6 506/422/6 511/424/6
f 460/171/89 465/171/89 514/171/89 507/171/89
f 468/425/26 469/423/26 518/427/26 515/426/26
f 472/165/93 461/165/93 510/165/93 519/165/93
f 432/407/6 425/405/6 522/406/6 527/408/6
f 428/23/90 433/23/90 530/23/90 523/23/90
f 436/409/26 437/411/26 534/412/26 531/410/26
f 440/171/96 429/171/96 526/171/96 535/171/96
f 492/436/409 493/438/420 541/439/423 538/437/410
f 496/165/421 497/165/428 544/165/431 542/168/422
f 500/440/429 501/442/436 547/443/439 545/441/430
f 504/30/437 489/30/408 537/30/411 548/30/438
f 528/454/485 521/452/472 550/453/475 553/455/486
f 524/23/473 529/23/492 556/23/495 551/23/474
f 532/456/493 533/458/500 559/459/503 557/457/494
f 536/171/501 525/171/484 552/171/487 560/171/502
f 476/428/377 477/430/388 565/431/391 562/429/378
f 480/30/389 481/30/396 568/30/399 566/30/390
f 484/432/397 485/434/404 571/435/407 569/433/398
f 488/23/405 473/23/376 561/23/379 572/23/406
f 512/446/453 505/444/440 574/445/443 577/447/454
f 508/171/441 513/171/460 580/171/463 575/171/442
f 516/448/461 517/450/468 583/451/471 581/449/462
f 520/165/469 509/165/452 576/165/455 584/165/470
f 1/6/520 2/5/520 3/9/520
f 4/16/521 5/8/521 6/7/521
f 7/19/8 8/11/7 9/10/12 10/20/11
f 11/26/14 12/18/13 13/17/16 14/30/15
f 15/33/20 16/37/19 17/40/10 18/171/9
f 19/43/18 20/46/17 21/39/22 22/38/21
f 23/42/522 24/41/522 25/4/522
f 26/14/523 27/48/523 28/47/523
f 29/49/26 30/53/26 31/56/26 32/50/26
f 33/61/26 34/64/26 35/55/26 36/54/26
f 37/68/26 38/71/26 39/66/26 40/65/26
f 41/60/26 42/59/26 43/73/26 44/72/26
f 45/79/29 46/58/28 47/57/33 48/80/32
f 49/84/35 50/67/34 51/27/38 52/85/37
f 53/88/40 54/74/39 55/38/43 56/89/42
f 57/92/45 58/78/44 59/77/31 60/83/30
f 61/95/48 62/82/47 63/81/52 64/96/51
f 65/100/54 66/87/53 67/86/56 68/101/55
f 69/104/58 70/91/57 71/90/60 72/105/59
f 73/108/62 74/94/61 75/93/50 76/99/49
f 77/111/66 78/98/65 79/97/70 80/112/69
f 81/116/72 82/103/71 83/102/76 84/117/75
f 85/120/78 86/107/77 87/106/82 88/121/81
f 89/124/84 90/110/83 91/109/68 92/115/67
f 93/127/87 94/114/64 95/113/64 96/113/87
f 97/119/91 98/119/74 99/118/74 100/118/91
f 101/133/94 102/123/80 103/122/80 104/122/94
f 105/126/97 106/126/86 107/125/86 108/130/97
f 109/138/100 110/129/99 111/128/104 112/139/103
f 113/143/106 114/132/105 115/131/108 116/144/107
f 117/147/110 118/135/109 119/134/112 120/148/111
f 121/151/114 122/137/113 123/136/102 124/142/101
f 125/23/524 126/23/524 127/156/525 130/154/526
f 131/159/527 134/162/528 135/30/529 136/30/529
f 137/165/530 138/165/530 139/163/531 142/166/532
f 143/170/533 146/158/534 147/171/535 148/171/535
f 149/174/536 150/176/537 151/179/537 152/182/538
f 160/177/539 157/187/540 158/189/541 159/178/541
f 161/194/542 164/190/543 165/165/544 166/165/544
f 172/197/545 169/184/546 170/183/547 171/198/547
f 173/22/127 174/21/132 175/209/131 176/207/128
f 177/213/136 178/210/134 179/29/133 180/28/137
f 181/63/141 182/62/146 183/215/145 184/213/142
f 185/212/149 186/211/148 187/52/147 188/51/150
f 189/218/153 190/214/139 191/45/138 192/44/154
f 193/70/158 194/69/144 195/216/143 196/220/159
f 197/208/129 198/219/156 199/36/155 200/35/130
f 201/76/151 202/75/161 203/221/160 204/217/152
f 205/181/163 206/180/168 207/224/167 208/222/164
f 209/228/172 210/225/170 211/193/169 212/192/173
f 213/232/178 214/231/177 215/230/182 216/233/181
f 217/239/186 218/227/185 219/226/180 220/236/179
f 221/244/189 222/229/175 223/200/174 224/199/190
f 225/238/184 226/237/183 227/246/195 228/247/194
f 229/223/165 230/245/192 231/206/191 232/205/166
f 233/251/197 234/250/196 235/243/188 236/242/187
f 237/241/199 238/240/204 239/256/203 240/254/200
f 241/260/208 242/257/206 243/235/205 244/234/209
f 245/264/214 246/263/213 247/262/218 248/265/217
f 249/271/222 250/259/221 251/258/216 252/268/215
f 253/276/225 254/261/211 255/249/210 256/248/226
f 257/270/220 258/269/219 259/278/231 260/279/230
f 261/255/201 262/277/228 263/253/227 264/252/202
f 265/283/233 266/282/232 267/275/224 268/274/223
f 269/273/235 270/272/240 271/288/239 272/286/236
f 273/292/246 274/289/242 275/267/241 276/266/247
f 277/296/252 278/295/251 279/294/251 280/297/252
f 281/303/254 282/291/245 283/290/244 284/300/254
f 285/308/256 286/293/249 287/281/248 288/280/257
f 289/302/262 290/301/261 291/310/261 292/310/262
f 293/287/237 294/309/259 295/285/258 296/284/238
f 297/313/266 298/313/265 299/307/265 300/306/266
f 301/316/269 302/305/268 303/304/273 304/317/272
f 305/321/275 306/299/274 307/298/277 308/322/276
f 309/325/279 310/312/278 311/311/281 312/326/280
f 313/329/283 314/315/282 315/314/271 316/320/270
f 317/332/26 318/335/26 319/333/26
f 320/340/26 321/337/26 322/336/26
f 323/344/26 324/343/26 325/342/26
f 326/339/26 327/338/26 328/346/26
f 329/348/26 330/334/26 331/333/26 332/349/26
f 333/354/26 334/341/26 335/336/26 336/352/26
f 337/358/26 338/344/26 339/345/26 340/357/26
f 341/353/26 342/347/26 343/346/26 344/360/26
f 345/290/26 346/351/26 347/350/26 348/362/26
f 349/365/26 350/356/26 351/355/26 352/364/26
f 353/310/26 354/359/26 355/357/26 356/367/26
f 357/306/26 358/361/26 359/360/26 360/369/26
f 361/371/26 362/290/26 363/363/26 364/291/26
f 365/375/26 366/366/26 367/364/26 368/296/26
f 369/378/26 370/310/26 371/368/26 372/302/26
f 373/374/26 374/306/26 375/370/26 376/381/26
f 377/319/284 378/318/289 379/386/288 380/384/285
f 381/390/293 382/387/291 383/324/290 384/323/294
f 385/377/298 386/376/303 387/392/302 388/390/299
f 389/389/306 390/388/305 391/373/304 392/372/307
f 393/395/310 394/391/296 395/328/295 396/327/311
f 397/380/315 398/379/301 399/393/300 400/395/316
f 401/385/286 402/396/313 403/331/312 404/330/287
f 405/383/308 406/382/318 407/397/317 408/394/309
f 409/30/322 410/30/321 411/164/548 412/398/548
f 413/400/549 414/169/549 415/168/328 416/165/327
f 417/165/330 418/165/329 419/201/550 420/400/550
f 421/403/551 422/188/551 423/30/324 424/30/323
f 425/405/552 426/157/552 427/23/337 428/23/336
f 429/171/342 430/171/341 431/173/553 432/407/553
f 433/23/339 434/23/338 435/185/554 436/409/554
f 437/411/555 438/204/555 439/171/344 440/171/343
f 441/23/350 442/23/349 443/155/556 444/413/556
f 445/415/557 446/161/557 447/160/356 448/30/355
f 449/30/358 450/30/357 451/186/558 452/415/558
f 453/413/559 454/175/559 455/23/352 456/23/351
f 457/421/560 458/172/560 459/171/365 460/171/364
f 461/165/370 462/165/369 463/167/561 464/423/561
f 465/171/367 466/203/366 467/202/562 468/425/562
f 469/423/563 470/195/563 471/165/372 472/165/371
f 473/23/381 474/23/380 475/414/385 476/428/384
f 477/430/387 478/417/386 479/416/393 480/30/392
f 481/30/395 482/30/394 483/418/401 484/432/400
f 485/434/403 486/420/402 487/419/383 488/23/382
f 489/30/413 490/30/412 491/399/417 492/436/416
f 493/438/419 494/401/418 495/165/425 496/165/424
f 497/165/427 498/165/426 499/402/433 500/440/432
f 501/442/435 502/404/434 503/30/415 504/30/414
f 505/444/445 506/422/444 507/171/449 508/171/448
f 509/165/457 510/165/456 511/424/447 512/446/446
f 513/171/451 514/171/450 515/426/465 516/448/464
f 517/450/467 518/427/466 519/165/459 520/165/458
f 521/452/477 522/406/476 523/23/481 524/23/480
f 525/171/489 526/171/488 527/408/479 528/454/478
f 529/23/483 530/23/482 531/410/497 532/456/496
f 533/458/499 534/412/498 535/171/491 536/171/490
f 537/30/411 538/437/410 539/460/504
f 540/462/506 541/439/423 542/168/422
f 543/463/507 544/165/431 545/441/430
f 546/461/505 547/443/439 548/30/438
f 549/464/508 550/453/475 551/23/474
f 552/171/487 553/455/486 554/466/510
f 555/465/509 556/23/495 557/457/494
f 558/467/511 559/459/503 560/171/502
f 561/23/379 562/429/378 563/468/512
f 564/469/514 565/431/391 566/30/390
f 567/470/515 568/30/399 569/433/398
f 570/468/513 571/435/407 572/23/406
f 573/471/516 574/445/443 575/171/442
f 576/165/455 577/447/454 578/473/518
f 579/472/517 580/171/463 581/449/462
f 582/473/519 583/451/471 584/165/470
f 167/171/564 168/171/564 169/184/546 172/197/545
f 149/174/536 152/182/538 153/23/565 154/23/565
f 155/30/566 156/30/566 157/187/540 160/177/539
f 131/159/527 132/146/567 133/145/567 134/162/528
f 142/166/532 139/163/531 140/150/568 141/149/568
f 143/170/533 144/153/569 145/152/569 146/158/534
f 130/154/526 127/156/525 128/141/570 129/140/570
f 161/194/542 162/196/571 163/191/571 164/190/543
