# Blender 4.3.0
# www.blender.org
mtllib sphere.mtl
o Sphere
v 0.000000 1.490794 -0.296537
v 0.000000 1.263834 -0.844467
v 0.000000 1.074802 -1.074802
v 0.000000 0.581679 -1.404297
v 0.000000 0.000000 -1.520000
v 0.000000 -0.581679 -1.404297
v 0.000000 -0.844467 -1.263834
v 0.057852 1.490794 -0.290839
v 0.113480 1.404297 -0.570502
v 0.164747 1.263834 -0.828241
v 0.209684 1.074802 -1.054150
v 0.246562 0.844467 -1.239550
v 0.273965 0.581679 -1.377314
v 0.290839 0.296537 -1.462148
v 0.296537 0.000000 -1.490794
v 0.290839 -0.296537 -1.462148
v 0.273965 -0.581679 -1.377314
v 0.246562 -0.844467 -1.239550
v 0.209684 -1.074802 -1.054150
v 0.164747 -1.263834 -0.828241
v 0.113480 -1.404297 -0.570502
v 0.057852 -1.490794 -0.290839
v 0.113480 1.490794 -0.273965
v 0.222599 1.404297 -0.537401
v 0.323163 1.263834 -0.780185
v 0.411309 1.074802 -0.992988
v 0.483648 0.844467 -1.167630
v 0.537401 0.581679 -1.297401
v 0.570502 0.296537 -1.377314
v 0.581679 0.000000 -1.404297
v 0.570502 -0.296537 -1.377314
v 0.537401 -0.581679 -1.297401
v 0.483648 -0.844467 -1.167630
v 0.411309 -1.074802 -0.992988
v 0.323163 -1.263834 -0.780185
v 0.222599 -1.404297 -0.537401
v 0.113480 -1.490794 -0.273965
v 0.164747 1.490794 -0.246562
v 0.323163 1.404297 -0.483648
v 0.469161 1.263834 -0.702148
v 0.597128 1.074802 -0.893665
v 0.702148 0.844467 -1.050839
v 0.780186 0.581679 -1.167630
v 0.828241 0.296537 -1.239550
v 0.844467 0.000000 -1.263834
v 0.828241 -0.296537 -1.239550
v 0.780186 -0.581679 -1.167630
v 0.702148 -0.844467 -1.050839
v 0.597128 -1.074802 -0.893665
v 0.469161 -1.263834 -0.702148
v 0.323163 -1.404297 -0.483648
v 0.164747 -1.490794 -0.246562
v 0.209683 1.490794 -0.209683
v 0.411309 1.404297 -0.411309
v 0.597128 1.263834 -0.597128
v 0.760000 1.074802 -0.760000
v 0.893665 0.844467 -0.893665
v 0.992988 0.581679 -0.992988
v 1.054150 0.296537 -1.054150
v 1.074802 0.000000 -1.074802
v 1.054150 -0.296537 -1.054150
v 0.992988 -0.581679 -0.992988
v 0.893665 -0.844467 -0.893665
v 0.760000 -1.074802 -0.760000
v 0.597128 -1.263834 -0.597128
v 0.411309 -1.404297 -0.411309
v 0.209683 -1.490794 -0.209683
v 0.246562 1.490794 -0.164747
v 0.483648 1.404297 -0.323163
v 0.702148 1.263834 -0.469160
v 0.893665 1.074802 -0.597128
v 1.050839 0.844467 -0.702148
v 1.167630 0.581679 -0.780185
v 1.239550 0.296537 -0.828240
v 1.263834 0.000000 -0.844467
v 1.239550 -0.296537 -0.828240
v 1.167630 -0.581679 -0.780185
v 1.050839 -0.844467 -0.702148
v 0.893665 -1.074802 -0.597128
v 0.702148 -1.263834 -0.469160
v 0.483648 -1.404297 -0.323163
v 0.246562 -1.490794 -0.164747
v 0.000000 1.520000 0.000000
v 0.273965 1.490794 -0.113480
v 0.537401 1.404297 -0.222599
v 0.780185 1.263834 -0.323163
v 0.992988 1.074802 -0.411309
v 1.167630 0.844467 -0.483648
v 1.297401 0.581679 -0.537401
v 1.377313 0.296537 -0.570502
v 1.404297 0.000000 -0.581679
v 1.377313 -0.296537 -0.570502
v 1.297401 -0.581679 -0.537401
v 1.167630 -0.844467 -0.483648
v 0.992988 -1.074802 -0.411309
v 0.780185 -1.263834 -0.323163
v 0.537401 -1.404297 -0.222599
v 0.273965 -1.490794 -0.113480
v 0.290839 1.490794 -0.057852
v 0.570502 1.404297 -0.113480
v 0.828240 1.263834 -0.164747
v 1.054150 1.074802 -0.209683
v 1.239549 0.844467 -0.246562
v 1.377314 0.581679 -0.273965
v 1.462148 0.296537 -0.290839
v 1.490793 0.000000 -0.296537
v 1.462148 -0.296537 -0.290839
v 1.377314 -0.581679 -0.273965
v 1.239549 -0.844467 -0.246562
v 1.054150 -1.074802 -0.209683
v 0.828240 -1.263834 -0.164747
v 0.570502 -1.404297 -0.113480
v 0.290839 -1.490794 -0.057852
v 0.000000 -1.520000 0.000000
v 0.296537 1.490794 0.000000
v 0.581679 1.404297 0.000000
v 0.844467 1.263834 0.000000
v 1.074802 1.074802 0.000000
v 1.263834 0.844467 0.000000
v 1.404297 0.581679 0.000000
v 1.490793 0.296537 0.000000
v 1.520000 0.000000 0.000000
v 1.490793 -0.296537 0.000000
v 1.404297 -0.581679 0.000000
v 1.263834 -0.844467 0.000000
v 1.074802 -1.074802 0.000000
v 0.844467 -1.263834 0.000000
v 0.581679 -1.404297 0.000000
v 0.296537 -1.490794 0.000000
v 0.290839 1.490794 0.057852
v 0.570502 1.404297 0.113480
v 0.828240 1.263834 0.164747
v 1.054150 1.074802 0.209684
v 1.239549 0.844467 0.246562
v 1.377313 0.581679 0.273965
v 1.462148 0.296537 0.290840
v 1.490793 0.000000 0.296537
v 1.462148 -0.296537 0.290840
v 1.377313 -0.581679 0.273965
v 1.239549 -0.844467 0.246562
v 1.054150 -1.074802 0.209684
v 0.828240 -1.263834 0.164747
v 0.570502 -1.404297 0.113480
v 0.290839 -1.490794 0.057852
v 0.273965 1.490794 0.113480
v 0.537401 1.404297 0.222599
v 0.780185 1.263834 0.323163
v 0.992988 1.074802 0.411309
v 1.167630 0.844467 0.483648
v 1.297401 0.581679 0.537401
v 1.377313 0.296537 0.570502
v 1.404296 0.000000 0.581679
v 1.377313 -0.296537 0.570502
v 1.297401 -0.581679 0.537401
v 1.167630 -0.844467 0.483648
v 0.992988 -1.074802 0.411309
v 0.780185 -1.263834 0.323163
v 0.537401 -1.404297 0.222599
v 0.273965 -1.490794 0.113480
v 0.246562 1.490794 0.164747
v 0.483648 1.404297 0.323163
v 0.702148 1.263834 0.469161
v 0.893665 1.074802 0.597128
v 1.050839 0.844467 0.702148
v 1.167630 0.581679 0.780186
v 1.239549 0.296537 0.828241
v 1.263833 0.000000 0.844467
v 1.239549 -0.296537 0.828241
v 1.167630 -0.581679 0.780186
v 1.050839 -0.844467 0.702148
v 0.893665 -1.074802 0.597128
v 0.702148 -1.263834 0.469161
v 0.483648 -1.404297 0.323163
v 0.246562 -1.490794 0.164747
v 0.209683 1.490794 0.209683
v 0.411309 1.404297 0.411309
v 0.597128 1.263834 0.597128
v 0.760000 1.074802 0.760000
v 0.893665 0.844467 0.893665
v 0.992988 0.581679 0.992988
v 1.054150 0.296537 1.054150
v 1.074802 0.000000 1.074802
v 1.054150 -0.296537 1.054150
v 0.992988 -0.581679 0.992988
v 0.893665 -0.844467 0.893665
v 0.760000 -1.074802 0.760000
v 0.597128 -1.263834 0.597128
v 0.411309 -1.404297 0.411309
v 0.209683 -1.490794 0.209683
v 0.164747 1.490794 0.246562
v 0.323163 1.404297 0.483648
v 0.469160 1.263834 0.702148
v 0.597128 1.074802 0.893665
v 0.702148 0.844467 1.050839
v 0.780185 0.581679 1.167630
v 0.828240 0.296537 1.239549
v 0.844466 0.000000 1.263833
v 0.828240 -0.296537 1.239549
v 0.780185 -0.581679 1.167630
v 0.702148 -0.844467 1.050839
v 0.597128 -1.074802 0.893665
v 0.469160 -1.263834 0.702148
v 0.323163 -1.404297 0.483648
v 0.164747 -1.490794 0.246562
v 0.113480 1.490794 0.273965
v 0.222599 1.404297 0.537401
v 0.323163 1.263834 0.780185
v 0.411309 1.074802 0.992988
v 0.483648 0.844467 1.167630
v 0.537401 0.581679 1.297401
v 0.570502 0.296537 1.377313
v 0.581678 0.000000 1.404296
v 0.570502 -0.296537 1.377313
v 0.537401 -0.581679 1.297401
v 0.483648 -0.844467 1.167630
v 0.411309 -1.074802 0.992988
v 0.323163 -1.263834 0.780185
v 0.222599 -1.404297 0.537401
v 0.113480 -1.490794 0.273965
v 0.057852 1.490794 0.290839
v 0.113480 1.404297 0.570502
v 0.164747 1.263834 0.828240
v 0.209683 1.074802 1.054150
v 0.246562 0.844467 1.239549
v 0.273964 0.581679 1.377313
v 0.290839 0.296537 1.462148
v 0.296537 0.000000 1.490793
v 0.290839 -0.296537 1.462148
v 0.273964 -0.581679 1.377313
v 0.246562 -0.844467 1.239549
v 0.209683 -1.074802 1.054150
v 0.164747 -1.263834 0.828240
v 0.113480 -1.404297 0.570502
v 0.057852 -1.490794 0.290839
v -0.000000 1.490794 0.296537
v -0.000000 1.404297 0.581679
v -0.000000 1.263834 0.844466
v -0.000000 1.074802 1.074802
v -0.000000 0.844467 1.263833
v -0.000000 0.581679 1.404297
v -0.000000 0.296537 1.490793
v -0.000000 0.000000 1.519999
v -0.000000 -0.296537 1.490793
v -0.000000 -0.581679 1.404297
v -0.000000 -0.844467 1.263833
v -0.000000 -1.074802 1.074802
v -0.000000 -1.263834 0.844466
v -0.000000 -1.404297 0.581679
v -0.000000 -1.490794 0.296537
v -0.057852 1.490794 0.290839
v -0.113480 1.404297 0.570502
v -0.164747 1.263834 0.828240
v -0.209684 1.074802 1.054150
v -0.246562 0.844467 1.239549
v -0.273965 0.581679 1.377313
v -0.290840 0.296537 1.462148
v -0.296537 0.000000 1.490793
v -0.290840 -0.296537 1.462148
v -0.273965 -0.581679 1.377313
v -0.246562 -0.844467 1.239549
v -0.209684 -1.074802 1.054150
v -0.164747 -1.263834 0.828240
v -0.113480 -1.404297 0.570502
v -0.057852 -1.490794 0.290839
v -0.113480 1.490794 0.273965
v -0.222599 1.404297 0.537401
v -0.323163 1.263834 0.780185
v -0.411309 1.074802 0.992987
v -0.483648 0.844467 1.167630
v -0.537401 0.581679 1.297401
v -0.570502 0.296537 1.377313
v -0.581679 0.000000 1.404296
v -0.570502 -0.296537 1.377313
v -0.537401 -0.581679 1.297401
v -0.483648 -0.844467 1.167630
v -0.411309 -1.074802 0.992987
v -0.323163 -1.263834 0.780185
v -0.222599 -1.404297 0.537401
v -0.113480 -1.490794 0.273965
v -0.164747 1.490794 0.246562
v -0.323163 1.404297 0.483648
v -0.469160 1.263834 0.702148
v -0.597128 1.074802 0.893665
v -0.702148 0.844467 1.050839
v -0.780185 0.581679 1.167630
v -0.828241 0.296537 1.239549
v -0.844467 0.000000 1.263833
v -0.828241 -0.296537 1.239549
v -0.780185 -0.581679 1.167630
v -0.702148 -0.844467 1.050839
v -0.597128 -1.074802 0.893665
v -0.469160 -1.263834 0.702148
v -0.323163 -1.404297 0.483648
v -0.164747 -1.490794 0.246562
v -0.209683 1.490794 0.209683
v -0.411309 1.404297 0.411309
v -0.597128 1.263834 0.597128
v -0.760000 1.074802 0.760000
v -0.893665 0.844467 0.893665
v -0.992988 0.581679 0.992987
v -1.054150 0.296537 1.054150
v -1.074802 0.000000 1.074802
v -1.054150 -0.296537 1.054150
v -0.992988 -0.581679 0.992987
v -0.893665 -0.844467 0.893665
v -0.760000 -1.074802 0.760000
v -0.597128 -1.263834 0.597128
v -0.411309 -1.404297 0.411309
v -0.209683 -1.490794 0.209683
v -0.246562 1.490794 0.164747
v -0.483648 1.404297 0.323163
v -0.702148 1.263834 0.469160
v -0.893665 1.074802 0.597128
v -1.050839 0.844467 0.702148
v -1.167630 0.581679 0.780185
v -1.239549 0.296537 0.828240
v -1.263833 0.000000 0.844466
v -1.239549 -0.296537 0.828240
v -1.167630 -0.581679 0.780185
v -1.050839 -0.844467 0.702148
v -0.893665 -1.074802 0.597128
v -0.702148 -1.263834 0.469160
v -0.483648 -1.404297 0.323163
v -0.246562 -1.490794 0.164747
v -0.273964 1.490794 0.113480
v -0.537401 1.404297 0.222599
v -0.780185 1.263834 0.323163
v -0.992987 1.074802 0.411309
v -1.167630 0.844467 0.483648
v -1.297401 0.581679 0.537401
v -1.377313 0.296537 0.570501
v -1.404296 0.000000 0.581678
v -1.377313 -0.296537 0.570501
v -1.297401 -0.581679 0.537401
v -1.167630 -0.844467 0.483648
v -0.992987 -1.074802 0.411309
v -0.780185 -1.263834 0.323163
v -0.537401 -1.404297 0.222599
v -0.273964 -1.490794 0.113480
v -0.290839 1.490794 0.057852
v -0.570502 1.404297 0.113480
v -0.828240 1.263834 0.164747
v -1.054150 1.074802 0.209683
v -1.239549 0.844467 0.246561
v -1.377313 0.581679 0.273964
v -1.462148 0.296537 0.290839
v -1.490793 0.000000 0.296537
v -1.462148 -0.296537 0.290839
v -1.377313 -0.581679 0.273964
v -1.239549 -0.844467 0.246561
v -1.054150 -1.074802 0.209683
v -0.828240 -1.263834 0.164747
v -0.570502 -1.404297 0.113480
v -0.290839 -1.490794 0.057852
v -0.296537 1.490794 0.000000
v -0.581678 1.404297 -0.000000
v -0.844466 1.263834 -0.000000
v -1.074802 1.074802 -0.000000
v -1.263833 0.844467 -0.000000
v -1.404296 0.581679 -0.000000
v -1.490793 0.296537 -0.000000
v -1.519999 0.000000 -0.000000
v -1.490793 -0.296537 -0.000000
v -1.404296 -0.581679 -0.000000
v -1.263833 -0.844467 -0.000000
v -1.074802 -1.074802 -0.000000
v -0.844466 -1.263834 -0.000000
v -0.581678 -1.404297 -0.000000
v -0.296537 -1.490794 0.000000
v -0.290839 1.490794 -0.057851
v -0.570502 1.404297 -0.113480
v -0.828240 1.263834 -0.164747
v -1.054150 1.074802 -0.209684
v -1.239549 0.844467 -0.246562
v -1.377313 0.581679 -0.273965
v -1.462147 0.296537 -0.290840
v -1.490793 0.000000 -0.296537
v -1.462147 -0.296537 -0.290840
v -1.377313 -0.581679 -0.273965
v -1.239549 -0.844467 -0.246562
v -1.054150 -1.074802 -0.209684
v -0.828240 -1.263834 -0.164747
v -0.570502 -1.404297 -0.113480
v -0.290839 -1.490794 -0.057851
v -0.273964 1.490794 -0.113480
v -0.537401 1.404297 -0.222599
v -0.780185 1.263834 -0.323163
v -0.992987 1.074802 -0.411309
v -1.167629 0.844467 -0.483648
v -1.297400 0.581679 -0.537401
v -1.377313 0.296537 -0.570502
v -1.404296 0.000000 -0.581679
v -1.377313 -0.296537 -0.570502
v -1.297400 -0.581679 -0.537401
v -1.167629 -0.844467 -0.483648
v -0.992987 -1.074802 -0.411309
v -0.780185 -1.263834 -0.323163
v -0.537401 -1.404297 -0.222599
v -0.273964 -1.490794 -0.113480
v -0.246561 1.490794 -0.164747
v -0.483648 1.404297 -0.323163
v -0.702148 1.263834 -0.469160
v -0.893665 1.074802 -0.597128
v -1.050839 0.844467 -0.702148
v -1.167629 0.581679 -0.780185
v -1.239548 0.296537 -0.828240
v -1.263833 0.000000 -0.844467
v -1.239548 -0.296537 -0.828240
v -1.167629 -0.581679 -0.780185
v -1.050839 -0.844467 -0.702148
v -0.893665 -1.074802 -0.597128
v -0.702148 -1.263834 -0.469160
v -0.483648 -1.404297 -0.323163
v -0.246561 -1.490794 -0.164747
v -0.209683 1.490794 -0.209683
v -0.411309 1.404297 -0.411309
v -0.597128 1.263834 -0.597128
v -0.759999 1.074802 -0.760000
v -0.893665 0.844467 -0.893665
v -0.992987 0.581679 -0.992988
v -1.054149 0.296537 -1.054150
v -1.074802 0.000000 -1.074802
v -1.054149 -0.296537 -1.054150
v -0.992987 -0.581679 -0.992988
v -0.893665 -0.844467 -0.893665
v -0.759999 -1.074802 -0.760000
v -0.597128 -1.263834 -0.597128
v -0.411309 -1.404297 -0.411309
v -0.209683 -1.490794 -0.209683
v -0.164747 1.490794 -0.246561
v -0.323163 1.404297 -0.483648
v -0.469160 1.263834 -0.702148
v -0.597128 1.074802 -0.893665
v -0.702148 0.844467 -1.050839
v -0.780185 0.581679 -1.167630
v -0.828240 0.296537 -1.239549
v -0.844466 0.000000 -1.263833
v -0.828240 -0.296537 -1.239549
v -0.780185 -0.581679 -1.167630
v -0.702148 -0.844467 -1.050839
v -0.597128 -1.074802 -0.893665
v -0.469160 -1.263834 -0.702148
v -0.323163 -1.404297 -0.483648
v -0.164747 -1.490794 -0.246561
v -0.113480 1.490794 -0.273964
v -0.222598 1.404297 -0.537401
v -0.323163 1.263834 -0.780185
v -0.411309 1.074802 -0.992987
v -0.483648 0.844467 -1.167629
v -0.537400 0.581679 -1.297401
v -0.570501 0.296537 -1.377313
v -0.581678 0.000000 -1.404296
v -0.570501 -0.296537 -1.377313
v -0.537400 -0.581679 -1.297401
v -0.483648 -0.844467 -1.167629
v -0.411309 -1.074802 -0.992987
v -0.323163 -1.263834 -0.780185
v -0.222598 -1.404297 -0.537401
v -0.113480 -1.490794 -0.273964
v -0.057851 1.490794 -0.290839
v -0.113480 1.404297 -0.570502
v -0.164747 1.263834 -0.828240
v -0.209683 1.074802 -1.054150
v -0.246561 0.844467 -1.239549
v -0.273964 0.581679 -1.377313
v -0.290839 0.296537 -1.462147
v -0.296537 0.000000 -1.490793
v -0.290839 -0.296537 -1.462147
v -0.273964 -0.581679 -1.377313
v -0.246561 -0.844467 -1.239549
v -0.209683 -1.074802 -1.054150
v -0.164747 -1.263834 -0.828240
v -0.113480 -1.404297 -0.570502
v -0.057851 -1.490794 -0.290839
v 0.000000 1.404297 -0.581678
v 0.000000 0.844467 -1.263833
v 0.000001 0.296537 -1.490792
v 0.000001 -0.296537 -1.490792
v 0.000000 -1.074802 -1.074802
v 0.000000 -1.263834 -0.844466
v 0.000000 -1.404297 -0.581678
v 0.000000 -1.490794 -0.296537
vn 0.0938 -0.2890 -0.9527
vn 0.0464 0.8810 -0.4709
vn 0.0865 -0.4696 -0.8786
vn 0.0624 0.7715 -0.6332
vn 0.0759 -0.6326 -0.7708
vn 0.0759 0.6326 -0.7708
vn 0.0624 -0.7715 -0.6332
vn 0.0865 0.4696 -0.8786
vn 0.0464 -0.8810 -0.4709
vn 0.0938 0.2890 -0.9527
vn 0.0286 -0.9565 -0.2902
vn 0.0975 0.0976 -0.9904
vn 0.0097 0.9951 -0.0980
vn 0.0097 -0.9951 -0.0980
vn 0.0975 -0.0976 -0.9904
vn 0.0286 0.9565 -0.2902
vn 0.2889 -0.0976 -0.9524
vn 0.0846 0.9565 -0.2790
vn 0.2779 -0.2890 -0.9161
vn 0.1374 0.8810 -0.4528
vn 0.2563 -0.4696 -0.8448
vn 0.1847 0.7715 -0.6088
vn 0.2248 -0.6326 -0.7412
vn 0.2248 0.6326 -0.7412
vn 0.1847 -0.7715 -0.6088
vn 0.2563 0.4696 -0.8448
vn 0.1374 -0.8810 -0.4528
vn 0.2779 0.2890 -0.9161
vn 0.0846 -0.9565 -0.2790
vn 0.2889 0.0976 -0.9524
vn 0.0286 0.9951 -0.0942
vn 0.0286 -0.9951 -0.0942
vn 0.2999 -0.7715 -0.5611
vn 0.4162 0.4696 -0.7786
vn 0.2231 -0.8810 -0.4173
vn 0.4513 0.2890 -0.8443
vn 0.1374 -0.9565 -0.2571
vn 0.4691 0.0975 -0.8777
vn 0.0464 0.9951 -0.0869
vn 0.0464 -0.9951 -0.0869
vn 0.4691 -0.0975 -0.8777
vn 0.1374 0.9565 -0.2571
vn 0.4513 -0.2890 -0.8443
vn 0.2231 0.8810 -0.4173
vn 0.4162 -0.4696 -0.7786
vn 0.2999 0.7715 -0.5611
vn 0.3651 -0.6326 -0.6831
vn 0.3651 0.6326 -0.6831
vn 0.1850 0.9565 -0.2254
vn 0.6073 -0.2890 -0.7400
vn 0.3002 0.8810 -0.3658
vn 0.5601 -0.4696 -0.6825
vn 0.4036 0.7715 -0.4918
vn 0.4913 -0.6326 -0.5987
vn 0.4913 0.6326 -0.5987
vn 0.4036 -0.7715 -0.4918
vn 0.5601 0.4696 -0.6825
vn 0.3002 -0.8810 -0.3658
vn 0.6073 0.2890 -0.7400
vn 0.1850 -0.9565 -0.2254
vn 0.6314 0.0975 -0.7693
vn 0.0625 0.9951 -0.0761
vn 0.0625 -0.9951 -0.0761
vn 0.6314 -0.0975 -0.7693
vn 0.6825 0.4696 -0.5601
vn 0.3658 -0.8810 -0.3002
vn 0.7400 0.2890 -0.6073
vn 0.2254 -0.9565 -0.1850
vn 0.7693 0.0975 -0.6314
vn 0.0761 0.9951 -0.0625
vn 0.0761 -0.9951 -0.0625
vn 0.7693 -0.0975 -0.6314
vn 0.2254 0.9565 -0.1850
vn 0.7400 -0.2890 -0.6073
vn 0.3658 0.8810 -0.3002
vn 0.6825 -0.4696 -0.5601
vn 0.4918 0.7715 -0.4036
vn 0.5987 -0.6326 -0.4913
vn 0.5987 0.6326 -0.4913
vn 0.4918 -0.7715 -0.4036
vn 0.8443 -0.2890 -0.4513
vn 0.4173 0.8810 -0.2230
vn 0.7786 -0.4696 -0.4162
vn 0.5611 0.7715 -0.2999
vn 0.6831 -0.6326 -0.3651
vn 0.6831 0.6326 -0.3651
vn 0.5611 -0.7715 -0.2999
vn 0.7786 0.4696 -0.4162
vn 0.4173 -0.8810 -0.2230
vn 0.8443 0.2890 -0.4513
vn 0.2571 -0.9565 -0.1374
vn 0.8777 0.0975 -0.4691
vn 0.0869 0.9951 -0.0464
vn 0.0869 -0.9951 -0.0464
vn 0.8777 -0.0975 -0.4691
vn 0.2571 0.9565 -0.1374
vn 0.4528 -0.8810 -0.1374
vn 0.9161 0.2890 -0.2779
vn 0.2790 -0.9565 -0.0846
vn 0.9524 0.0975 -0.2889
vn 0.0942 0.9951 -0.0286
vn 0.0942 -0.9951 -0.0286
vn 0.9524 -0.0975 -0.2889
vn 0.2790 0.9565 -0.0846
vn 0.9161 -0.2890 -0.2779
vn 0.4528 0.8810 -0.1374
vn 0.8448 -0.4696 -0.2563
vn 0.6088 0.7715 -0.1847
vn 0.7412 -0.6326 -0.2248
vn 0.7412 0.6326 -0.2248
vn 0.6088 -0.7715 -0.1847
vn 0.8448 0.4696 -0.2563
vn 0.8786 -0.4696 -0.0865
vn 0.6332 0.7715 -0.0624
vn 0.7708 -0.6326 -0.0759
vn 0.7708 0.6326 -0.0759
vn 0.6332 -0.7715 -0.0624
vn 0.8786 0.4696 -0.0865
vn 0.4709 -0.8810 -0.0464
vn 0.9527 0.2890 -0.0938
vn 0.2902 -0.9565 -0.0286
vn 0.9904 0.0975 -0.0975
vn 0.0980 0.9951 -0.0097
vn 0.0980 -0.9951 -0.0097
vn 0.9904 -0.0975 -0.0975
vn 0.2902 0.9565 -0.0286
vn 0.9527 -0.2890 -0.0938
vn 0.4709 0.8810 -0.0464
vn 0.2902 -0.9565 0.0286
vn 0.9904 0.0975 0.0975
vn 0.0980 0.9951 0.0097
vn 0.0980 -0.9951 0.0097
vn 0.9904 -0.0975 0.0975
vn 0.2902 0.9565 0.0286
vn 0.9527 -0.2890 0.0938
vn 0.4709 0.8810 0.0464
vn 0.8786 -0.4696 0.0865
vn 0.6332 0.7715 0.0624
vn 0.7708 -0.6326 0.0759
vn 0.7708 0.6326 0.0759
vn 0.6332 -0.7715 0.0624
vn 0.8786 0.4696 0.0865
vn 0.4709 -0.8810 0.0464
vn 0.9527 0.2890 0.0938
vn 0.6088 0.7715 0.1847
vn 0.7412 -0.6326 0.2248
vn 0.7412 0.6326 0.2248
vn 0.6088 -0.7715 0.1847
vn 0.8448 0.4696 0.2563
vn 0.4528 -0.8810 0.1374
vn 0.9161 0.2890 0.2779
vn 0.2790 -0.9565 0.0846
vn 0.9524 0.0975 0.2889
vn 0.0942 0.9951 0.0286
vn 0.0942 -0.9951 0.0286
vn 0.9524 -0.0975 0.2889
vn 0.2790 0.9565 0.0846
vn 0.9161 -0.2890 0.2779
vn 0.4528 0.8810 0.1374
vn 0.8448 -0.4696 0.2563
vn 0.8777 0.0975 0.4691
vn 0.0869 0.9951 0.0464
vn 0.0869 -0.9951 0.0464
vn 0.8777 -0.0975 0.4691
vn 0.2571 0.9565 0.1374
vn 0.8443 -0.2890 0.4513
vn 0.4173 0.8810 0.2230
vn 0.7786 -0.4696 0.4162
vn 0.5611 0.7715 0.2999
vn 0.6831 -0.6326 0.3651
vn 0.6831 0.6326 0.3651
vn 0.5611 -0.7715 0.2999
vn 0.7786 0.4696 0.4162
vn 0.4173 -0.8810 0.2230
vn 0.8443 0.2890 0.4513
vn 0.2571 -0.9565 0.1374
vn 0.5987 -0.6326 0.4913
vn 0.5987 0.6326 0.4913
vn 0.4918 -0.7715 0.4036
vn 0.6825 0.4696 0.5601
vn 0.3658 -0.8810 0.3002
vn 0.7400 0.2890 0.6073
vn 0.2254 -0.9565 0.1850
vn 0.7693 0.0975 0.6314
vn 0.0761 0.9951 0.0625
vn 0.0761 -0.9951 0.0625
vn 0.7693 -0.0975 0.6314
vn 0.2254 0.9565 0.1850
vn 0.7400 -0.2890 0.6073
vn 0.3658 0.8810 0.3002
vn 0.6825 -0.4696 0.5601
vn 0.4918 0.7715 0.4036
vn 0.0625 0.9951 0.0761
vn 0.0625 -0.9951 0.0761
vn 0.6314 -0.0975 0.7693
vn 0.1850 0.9565 0.2254
vn 0.6073 -0.2890 0.7400
vn 0.3002 0.8810 0.3658
vn 0.5601 -0.4696 0.6825
vn 0.4036 0.7715 0.4918
vn 0.4913 -0.6326 0.5987
vn 0.4913 0.6326 0.5987
vn 0.4036 -0.7715 0.4918
vn 0.5601 0.4696 0.6825
vn 0.3002 -0.8810 0.3658
vn 0.6073 0.2890 0.7400
vn 0.1850 -0.9565 0.2254
vn 0.6314 0.0975 0.7693
vn 0.3651 0.6326 0.6831
vn 0.2999 -0.7715 0.5611
vn 0.4162 0.4696 0.7786
vn 0.2230 -0.8810 0.4173
vn 0.4513 0.2890 0.8443
vn 0.1374 -0.9565 0.2571
vn 0.4691 0.0975 0.8777
vn 0.0464 0.9951 0.0869
vn 0.0464 -0.9951 0.0869
vn 0.4691 -0.0975 0.8777
vn 0.1374 0.9565 0.2571
vn 0.4513 -0.2890 0.8443
vn 0.2230 0.8810 0.4173
vn 0.4162 -0.4696 0.7786
vn 0.2999 0.7715 0.5611
vn 0.3651 -0.6326 0.6831
vn 0.2889 -0.0975 0.9524
vn 0.0846 0.9565 0.2790
vn 0.2779 -0.2890 0.9161
vn 0.1374 0.8810 0.4528
vn 0.2563 -0.4696 0.8448
vn 0.1847 0.7715 0.6088
vn 0.2248 -0.6326 0.7412
vn 0.2248 0.6326 0.7412
vn 0.1847 -0.7715 0.6088
vn 0.2563 0.4696 0.8448
vn 0.1374 -0.8810 0.4528
vn 0.2779 0.2890 0.9161
vn 0.0846 -0.9565 0.2790
vn 0.2889 0.0975 0.9524
vn 0.0286 0.9951 0.0942
vn 0.0286 -0.9951 0.0942
vn 0.0624 -0.7715 0.6332
vn 0.0865 0.4696 0.8786
vn 0.0464 -0.8810 0.4709
vn 0.0938 0.2890 0.9527
vn 0.0286 -0.9565 0.2902
vn 0.0975 0.0975 0.9904
vn 0.0097 0.9951 0.0980
vn 0.0097 -0.9951 0.0980
vn 0.0975 -0.0975 0.9904
vn 0.0286 0.9565 0.2902
vn 0.0938 -0.2890 0.9527
vn 0.0464 0.8810 0.4709
vn 0.0865 -0.4696 0.8786
vn 0.0624 0.7715 0.6332
vn 0.0759 -0.6326 0.7708
vn 0.0759 0.6326 0.7708
vn -0.0938 -0.2890 0.9527
vn -0.0464 0.8810 0.4709
vn -0.0865 -0.4696 0.8786
vn -0.0624 0.7715 0.6332
vn -0.0759 -0.6326 0.7708
vn -0.0759 0.6326 0.7708
vn -0.0624 -0.7715 0.6332
vn -0.0865 0.4696 0.8786
vn -0.0464 -0.8810 0.4709
vn -0.0938 0.2890 0.9527
vn -0.0286 -0.9565 0.2902
vn -0.0975 0.0975 0.9904
vn -0.0097 0.9951 0.0980
vn -0.0097 -0.9951 0.0980
vn -0.0975 -0.0975 0.9904
vn -0.0286 0.9565 0.2902
vn -0.1374 -0.8810 0.4528
vn -0.2779 0.2890 0.9161
vn -0.0846 -0.9565 0.2790
vn -0.2889 0.0975 0.9524
vn -0.0286 0.9951 0.0942
vn -0.0286 -0.9951 0.0942
vn -0.2889 -0.0975 0.9524
vn -0.0846 0.9565 0.2790
vn -0.2779 -0.2890 0.9161
vn -0.1374 0.8810 0.4528
vn -0.2563 -0.4696 0.8448
vn -0.1847 0.7715 0.6088
vn -0.2248 -0.6326 0.7412
vn -0.2248 0.6326 0.7412
vn -0.1847 -0.7715 0.6088
vn -0.2563 0.4696 0.8448
vn -0.2230 0.8810 0.4173
vn -0.4162 -0.4696 0.7786
vn -0.2999 0.7715 0.5611
vn -0.3651 -0.6326 0.6831
vn -0.3651 0.6326 0.6831
vn -0.2999 -0.7715 0.5611
vn -0.4162 0.4696 0.7786
vn -0.2230 -0.8810 0.4173
vn -0.4513 0.2890 0.8443
vn -0.1374 -0.9565 0.2571
vn -0.4691 0.0975 0.8777
vn -0.0464 0.9951 0.0869
vn -0.0464 -0.9951 0.0869
vn -0.4691 -0.0975 0.8777
vn -0.1374 0.9565 0.2571
vn -0.4513 -0.2890 0.8443
vn -0.6073 0.2890 0.7400
vn -0.1850 -0.9565 0.2254
vn -0.6314 0.0975 0.7693
vn -0.0625 0.9951 0.0761
vn -0.0625 -0.9951 0.0761
vn -0.6314 -0.0975 0.7693
vn -0.1850 0.9565 0.2254
vn -0.6073 -0.2890 0.7400
vn -0.3002 0.8810 0.3658
vn -0.5601 -0.4696 0.6825
vn -0.4036 0.7715 0.4918
vn -0.4913 -0.6326 0.5987
vn -0.4913 0.6326 0.5987
vn -0.4036 -0.7715 0.4918
vn -0.5601 0.4696 0.6825
vn -0.3002 -0.8810 0.3658
vn -0.6825 -0.4696 0.5601
vn -0.4918 0.7715 0.4036
vn -0.5987 -0.6326 0.4913
vn -0.5987 0.6326 0.4913
vn -0.4918 -0.7715 0.4036
vn -0.6825 0.4696 0.5601
vn -0.3658 -0.8810 0.3002
vn -0.7400 0.2890 0.6073
vn -0.2254 -0.9565 0.1850
vn -0.7693 0.0975 0.6314
vn -0.0761 0.9951 0.0625
vn -0.0761 -0.9951 0.0625
vn -0.7693 -0.0975 0.6314
vn -0.2254 0.9565 0.1850
vn -0.7400 -0.2890 0.6073
vn -0.3658 0.8810 0.3002
vn -0.2571 -0.9565 0.1374
vn -0.8777 0.0975 0.4691
vn -0.0869 0.9951 0.0464
vn -0.0869 -0.9951 0.0464
vn -0.8777 -0.0975 0.4691
vn -0.2571 0.9565 0.1374
vn -0.8443 -0.2890 0.4513
vn -0.4173 0.8810 0.2230
vn -0.7786 -0.4696 0.4162
vn -0.5611 0.7715 0.2999
vn -0.6831 -0.6326 0.3651
vn -0.6831 0.6326 0.3651
vn -0.5611 -0.7715 0.2999
vn -0.7786 0.4696 0.4162
vn -0.4173 -0.8810 0.2230
vn -0.8443 0.2890 0.4513
vn -0.6088 0.7715 0.1847
vn -0.7412 -0.6326 0.2248
vn -0.7412 0.6326 0.2248
vn -0.6088 -0.7715 0.1847
vn -0.8448 0.4696 0.2563
vn -0.4528 -0.8810 0.1374
vn -0.9161 0.2890 0.2779
vn -0.2790 -0.9565 0.0846
vn -0.9524 0.0976 0.2889
vn -0.0942 0.9951 0.0286
vn -0.0942 -0.9951 0.0286
vn -0.9524 -0.0976 0.2889
vn -0.2790 0.9565 0.0846
vn -0.9161 -0.2890 0.2779
vn -0.4528 0.8810 0.1374
vn -0.8448 -0.4696 0.2563
vn -0.9904 0.0976 0.0975
vn -0.0980 0.9951 0.0097
vn -0.0980 -0.9951 0.0097
vn -0.9904 -0.0976 0.0975
vn -0.2902 0.9565 0.0286
vn -0.9527 -0.2890 0.0938
vn -0.4709 0.8810 0.0464
vn -0.8786 -0.4696 0.0865
vn -0.6332 0.7715 0.0624
vn -0.7708 -0.6326 0.0759
vn -0.7708 0.6326 0.0759
vn -0.6332 -0.7715 0.0624
vn -0.8786 0.4696 0.0865
vn -0.4709 -0.8810 0.0464
vn -0.9527 0.2890 0.0938
vn -0.2902 -0.9565 0.0286
vn -0.7708 -0.6326 -0.0759
vn -0.7708 0.6326 -0.0759
vn -0.6332 -0.7715 -0.0624
vn -0.8786 0.4696 -0.0865
vn -0.4709 -0.8810 -0.0464
vn -0.9527 0.2890 -0.0938
vn -0.2902 -0.9565 -0.0286
vn -0.9904 0.0976 -0.0975
vn -0.0980 0.9951 -0.0097
vn -0.0980 -0.9951 -0.0097
vn -0.9904 -0.0976 -0.0975
vn -0.2902 0.9565 -0.0286
vn -0.9527 -0.2890 -0.0938
vn -0.4709 0.8810 -0.0464
vn -0.8786 -0.4696 -0.0865
vn -0.6332 0.7715 -0.0624
vn -0.0942 -0.9951 -0.0286
vn -0.9524 -0.0976 -0.2889
vn -0.2790 0.9565 -0.0846
vn -0.9161 -0.2890 -0.2779
vn -0.4528 0.8810 -0.1374
vn -0.8448 -0.4696 -0.2563
vn -0.6088 0.7715 -0.1847
vn -0.7412 -0.6326 -0.2248
vn -0.7412 0.6326 -0.2248
vn -0.6088 -0.7715 -0.1847
vn -0.8448 0.4696 -0.2563
vn -0.4528 -0.8810 -0.1374
vn -0.9161 0.2890 -0.2779
vn -0.2790 -0.9565 -0.0846
vn -0.9524 0.0976 -0.2889
vn -0.0942 0.9951 -0.0286
vn -0.5611 -0.7715 -0.2999
vn -0.7786 0.4696 -0.4162
vn -0.4173 -0.8810 -0.2230
vn -0.8443 0.2890 -0.4513
vn -0.2571 -0.9565 -0.1374
vn -0.8777 0.0976 -0.4691
vn -0.0869 0.9951 -0.0464
vn -0.0869 -0.9951 -0.0464
vn -0.8777 -0.0976 -0.4691
vn -0.2571 0.9565 -0.1374
vn -0.8443 -0.2890 -0.4513
vn -0.4173 0.8810 -0.2230
vn -0.7786 -0.4696 -0.4162
vn -0.5611 0.7715 -0.2999
vn -0.6831 -0.6326 -0.3651
vn -0.6831 0.6326 -0.3651
vn -0.2254 0.9565 -0.1850
vn -0.7400 -0.2890 -0.6073
vn -0.3658 0.8810 -0.3002
vn -0.6825 -0.4696 -0.5601
vn -0.4918 0.7715 -0.4036
vn -0.5987 -0.6326 -0.4913
vn -0.5987 0.6326 -0.4913
vn -0.4918 -0.7715 -0.4036
vn -0.6825 0.4696 -0.5601
vn -0.3658 -0.8810 -0.3002
vn -0.7400 0.2890 -0.6073
vn -0.2254 -0.9565 -0.1850
vn -0.7693 0.0976 -0.6314
vn -0.0761 0.9951 -0.0625
vn -0.0761 -0.9951 -0.0625
vn -0.7693 -0.0976 -0.6314
vn -0.5601 0.4696 -0.6825
vn -0.3002 -0.8810 -0.3658
vn -0.6073 0.2890 -0.7400
vn -0.1850 -0.9565 -0.2254
vn -0.6314 0.0976 -0.7693
vn -0.0625 0.9951 -0.0761
vn -0.0625 -0.9951 -0.0761
vn -0.6314 -0.0976 -0.7693
vn -0.1850 0.9565 -0.2254
vn -0.6073 -0.2890 -0.7400
vn -0.3002 0.8810 -0.3658
vn -0.5601 -0.4696 -0.6825
vn -0.4036 0.7715 -0.4918
vn -0.4913 -0.6326 -0.5987
vn -0.4913 0.6326 -0.5987
vn -0.4036 -0.7715 -0.4918
vn -0.4513 -0.2890 -0.8443
vn -0.2230 0.8810 -0.4173
vn -0.4162 -0.4696 -0.7786
vn -0.2999 0.7715 -0.5611
vn -0.3651 -0.6326 -0.6831
vn -0.3651 0.6326 -0.6831
vn -0.2999 -0.7715 -0.5611
vn -0.4162 0.4696 -0.7786
vn -0.2230 -0.8810 -0.4173
vn -0.4513 0.2890 -0.8443
vn -0.1374 -0.9565 -0.2571
vn -0.4691 0.0976 -0.8777
vn -0.0464 0.9951 -0.0869
vn -0.0464 -0.9951 -0.0869
vn -0.4691 -0.0976 -0.8777
vn -0.1374 0.9565 -0.2571
vn -0.1374 -0.8810 -0.4528
vn -0.2779 0.2890 -0.9161
vn -0.0846 -0.9565 -0.2790
vn -0.2889 0.0976 -0.9524
vn -0.0286 0.9951 -0.0942
vn -0.0286 -0.9951 -0.0942
vn -0.2889 -0.0976 -0.9524
vn -0.0846 0.9565 -0.2790
vn -0.2779 -0.2890 -0.9161
vn -0.1374 0.8810 -0.4528
vn -0.2563 -0.4696 -0.8448
vn -0.1847 0.7715 -0.6088
vn -0.2248 -0.6326 -0.7412
vn -0.2248 0.6326 -0.7412
vn -0.1847 -0.7715 -0.6088
vn -0.2563 0.4696 -0.8448
vn -0.0464 0.8810 -0.4709
vn -0.0865 -0.4696 -0.8786
vn -0.0624 0.7715 -0.6332
vn -0.0759 -0.6326 -0.7708
vn -0.0759 0.6326 -0.7708
vn -0.0624 -0.7715 -0.6332
vn -0.0865 0.4696 -0.8786
vn -0.0464 -0.8810 -0.4709
vn -0.0938 0.2890 -0.9527
vn -0.0286 -0.9565 -0.2902
vn -0.0976 0.0976 -0.9904
vn -0.0097 0.9951 -0.0980
vn -0.0097 -0.9951 -0.0980
vn -0.0976 -0.0976 -0.9904
vn -0.0286 0.9565 -0.2902
vn -0.0938 -0.2890 -0.9527
vt 0.750000 0.375000
vt 0.750000 0.437500
vt 0.718750 0.437500
vt 0.718750 0.375000
vt 0.750000 0.812500
vt 0.750000 0.875000
vt 0.718750 0.875000
vt 0.718750 0.812500
vt 0.750000 0.312500
vt 0.718750 0.312500
vt 0.750000 0.750000
vt 0.718750 0.750000
vt 0.750000 0.250000
vt 0.718750 0.250000
vt 0.750000 0.687500
vt 0.718750 0.687500
vt 0.750000 0.187500
vt 0.718750 0.187500
vt 0.750000 0.625000
vt 0.718750 0.625000
vt 0.750000 0.125000
vt 0.718750 0.125000
vt 0.750000 0.562500
vt 0.718750 0.562500
vt 0.750000 0.062500
vt 0.718750 0.062500
vt 0.750000 0.500000
vt 0.718750 0.500000
vt 0.750000 0.937500
vt 0.734375 1.000000
vt 0.718750 0.937500
vt 0.734375 0.000000
vt 0.687500 0.500000
vt 0.687500 0.437500
vt 0.687500 0.937500
vt 0.687500 0.875000
vt 0.687500 0.375000
vt 0.687500 0.812500
vt 0.687500 0.312500
vt 0.687500 0.750000
vt 0.687500 0.250000
vt 0.687500 0.687500
vt 0.687500 0.187500
vt 0.687500 0.625000
vt 0.687500 0.125000
vt 0.687500 0.562500
vt 0.687500 0.062500
vt 0.703125 1.000000
vt 0.703125 0.000000
vt 0.656250 0.250000
vt 0.656250 0.187500
vt 0.656250 0.687500
vt 0.656250 0.625000
vt 0.656250 0.125000
vt 0.656250 0.562500
vt 0.656250 0.062500
vt 0.656250 0.500000
vt 0.671875 1.000000
vt 0.656250 0.937500
vt 0.671875 0.000000
vt 0.656250 0.437500
vt 0.656250 0.875000
vt 0.656250 0.375000
vt 0.656250 0.812500
vt 0.656250 0.312500
vt 0.656250 0.750000
vt 0.625000 0.937500
vt 0.625000 0.875000
vt 0.625000 0.437500
vt 0.625000 0.375000
vt 0.625000 0.812500
vt 0.625000 0.312500
vt 0.625000 0.750000
vt 0.625000 0.250000
vt 0.625000 0.687500
vt 0.625000 0.187500
vt 0.625000 0.625000
vt 0.625000 0.125000
vt 0.625000 0.562500
vt 0.625000 0.062500
vt 0.625000 0.500000
vt 0.640625 1.000000
vt 0.640625 0.000000
vt 0.593750 0.687500
vt 0.593750 0.625000
vt 0.593750 0.187500
vt 0.593750 0.125000
vt 0.593750 0.562500
vt 0.593750 0.062500
vt 0.593750 0.500000
vt 0.609375 1.000000
vt 0.593750 0.937500
vt 0.609375 0.000000
vt 0.593750 0.437500
vt 0.593750 0.875000
vt 0.593750 0.375000
vt 0.593750 0.812500
vt 0.593750 0.312500
vt 0.593750 0.750000
vt 0.593750 0.250000
vt 0.562500 0.437500
vt 0.562500 0.375000
vt 0.562500 0.875000
vt 0.562500 0.812500
vt 0.562500 0.312500
vt 0.562500 0.750000
vt 0.562500 0.250000
vt 0.562500 0.687500
vt 0.562500 0.187500
vt 0.562500 0.625000
vt 0.562500 0.125000
vt 0.562500 0.562500
vt 0.562500 0.062500
vt 0.562500 0.500000
vt 0.578125 1.000000
vt 0.562500 0.937500
vt 0.578125 0.000000
vt 0.531250 0.187500
vt 0.531250 0.125000
vt 0.531250 0.625000
vt 0.531250 0.562500
vt 0.531250 0.062500
vt 0.531250 0.500000
vt 0.546875 1.000000
vt 0.531250 0.937500
vt 0.546875 0.000000
vt 0.531250 0.437500
vt 0.531250 0.875000
vt 0.531250 0.375000
vt 0.531250 0.812500
vt 0.531250 0.312500
vt 0.531250 0.750000
vt 0.531250 0.250000
vt 0.531250 0.687500
vt 0.500000 0.375000
vt 0.500000 0.312500
vt 0.500000 0.812500
vt 0.500000 0.750000
vt 0.500000 0.250000
vt 0.500000 0.687500
vt 0.500000 0.187500
vt 0.500000 0.625000
vt 0.500000 0.125000
vt 0.500000 0.562500
vt 0.500000 0.062500
vt 0.500000 0.500000
vt 0.515625 1.000000
vt 0.500000 0.937500
vt 0.515625 0.000000
vt 0.500000 0.437500
vt 0.500000 0.875000
vt 0.468750 0.125000
vt 0.468750 0.062500
vt 0.468750 0.562500
vt 0.468750 0.500000
vt 0.484375 1.000000
vt 0.468750 0.937500
vt 0.484375 0.000000
vt 0.468750 0.437500
vt 0.468750 0.875000
vt 0.468750 0.375000
vt 0.468750 0.812500
vt 0.468750 0.312500
vt 0.468750 0.750000
vt 0.468750 0.250000
vt 0.468750 0.687500
vt 0.468750 0.187500
vt 0.468750 0.625000
vt 0.437500 0.812500
vt 0.437500 0.750000
vt 0.437500 0.312500
vt 0.437500 0.250000
vt 0.437500 0.687500
vt 0.437500 0.187500
vt 0.437500 0.625000
vt 0.437500 0.125000
vt 0.437500 0.562500
vt 0.437500 0.062500
vt 0.437500 0.500000
vt 0.453125 1.000000
vt 0.437500 0.937500
vt 0.453125 0.000000
vt 0.437500 0.437500
vt 0.437500 0.875000
vt 0.437500 0.375000
vt 0.406250 0.562500
vt 0.406250 0.500000
vt 0.421875 1.000000
vt 0.406250 0.937500
vt 0.421875 0.000000
vt 0.406250 0.062500
vt 0.406250 0.437500
vt 0.406250 0.875000
vt 0.406250 0.375000
vt 0.406250 0.812500
vt 0.406250 0.312500
vt 0.406250 0.750000
vt 0.406250 0.250000
vt 0.406250 0.687500
vt 0.406250 0.187500
vt 0.406250 0.625000
vt 0.406250 0.125000
vt 0.375000 0.312500
vt 0.375000 0.250000
vt 0.375000 0.750000
vt 0.375000 0.687500
vt 0.375000 0.187500
vt 0.375000 0.625000
vt 0.375000 0.125000
vt 0.375000 0.562500
vt 0.375000 0.062500
vt 0.375000 0.500000
vt 0.390625 1.000000
vt 0.375000 0.937500
vt 0.390625 0.000000
vt 0.375000 0.437500
vt 0.375000 0.875000
vt 0.375000 0.375000
vt 0.375000 0.812500
vt 0.359375 1.000000
vt 0.343750 0.937500
vt 0.359375 0.000000
vt 0.343750 0.062500
vt 0.343750 0.500000
vt 0.343750 0.437500
vt 0.343750 0.875000
vt 0.343750 0.375000
vt 0.343750 0.812500
vt 0.343750 0.312500
vt 0.343750 0.750000
vt 0.343750 0.250000
vt 0.343750 0.687500
vt 0.343750 0.187500
vt 0.343750 0.625000
vt 0.343750 0.125000
vt 0.343750 0.562500
vt 0.312500 0.750000
vt 0.312500 0.687500
vt 0.312500 0.250000
vt 0.312500 0.187500
vt 0.312500 0.625000
vt 0.312500 0.125000
vt 0.312500 0.562500
vt 0.312500 0.062500
vt 0.312500 0.500000
vt 0.328125 1.000000
vt 0.312500 0.937500
vt 0.328125 0.000000
vt 0.312500 0.437500
vt 0.312500 0.875000
vt 0.312500 0.375000
vt 0.312500 0.812500
vt 0.312500 0.312500
vt 0.281250 0.500000
vt 0.281250 0.437500
vt 0.281250 0.937500
vt 0.281250 0.875000
vt 0.281250 0.375000
vt 0.281250 0.812500
vt 0.281250 0.312500
vt 0.281250 0.750000
vt 0.281250 0.250000
vt 0.281250 0.687500
vt 0.281250 0.187500
vt 0.281250 0.625000
vt 0.281250 0.125000
vt 0.281250 0.562500
vt 0.281250 0.062500
vt 0.296875 1.000000
vt 0.296875 0.000000
vt 0.250000 0.250000
vt 0.250000 0.187500
vt 0.250000 0.687500
vt 0.250000 0.625000
vt 0.250000 0.125000
vt 0.250000 0.562500
vt 0.250000 0.062500
vt 0.250000 0.500000
vt 0.265625 1.000000
vt 0.250000 0.937500
vt 0.265625 0.000000
vt 0.250000 0.437500
vt 0.250000 0.875000
vt 0.250000 0.375000
vt 0.250000 0.812500
vt 0.250000 0.312500
vt 0.250000 0.750000
vt 0.218750 0.437500
vt 0.218750 0.375000
vt 0.218750 0.875000
vt 0.218750 0.812500
vt 0.218750 0.312500
vt 0.218750 0.750000
vt 0.218750 0.250000
vt 0.218750 0.687500
vt 0.218750 0.187500
vt 0.218750 0.625000
vt 0.218750 0.125000
vt 0.218750 0.562500
vt 0.218750 0.062500
vt 0.218750 0.500000
vt 0.234375 1.000000
vt 0.218750 0.937500
vt 0.234375 0.000000
vt 0.187500 0.187500
vt 0.187500 0.125000
vt 0.187500 0.625000
vt 0.187500 0.562500
vt 0.187500 0.062500
vt 0.187500 0.500000
vt 0.203125 1.000000
vt 0.187500 0.937500
vt 0.203125 0.000000
vt 0.187500 0.437500
vt 0.187500 0.875000
vt 0.187500 0.375000
vt 0.187500 0.812500
vt 0.187500 0.312500
vt 0.187500 0.750000
vt 0.187500 0.250000
vt 0.187500 0.687500
vt 0.156250 0.875000
vt 0.156250 0.812500
vt 0.156250 0.375000
vt 0.156250 0.312500
vt 0.156250 0.750000
vt 0.156250 0.250000
vt 0.156250 0.687500
vt 0.156250 0.187500
vt 0.156250 0.625000
vt 0.156250 0.125000
vt 0.156250 0.562500
vt 0.156250 0.062500
vt 0.156250 0.500000
vt 0.171875 1.000000
vt 0.156250 0.937500
vt 0.171875 0.000000
vt 0.156250 0.437500
vt 0.125000 0.625000
vt 0.125000 0.562500
vt 0.125000 0.125000
vt 0.125000 0.062500
vt 0.125000 0.500000
vt 0.140625 1.000000
vt 0.125000 0.937500
vt 0.140625 0.000000
vt 0.125000 0.437500
vt 0.125000 0.875000
vt 0.125000 0.375000
vt 0.125000 0.812500
vt 0.125000 0.312500
vt 0.125000 0.750000
vt 0.125000 0.250000
vt 0.125000 0.687500
vt 0.125000 0.187500
vt 0.093750 0.375000
vt 0.093750 0.312500
vt 0.093750 0.812500
vt 0.093750 0.750000
vt 0.093750 0.250000
vt 0.093750 0.687500
vt 0.093750 0.187500
vt 0.093750 0.625000
vt 0.093750 0.125000
vt 0.093750 0.562500
vt 0.093750 0.062500
vt 0.093750 0.500000
vt 0.109375 1.000000
vt 0.093750 0.937500
vt 0.109375 0.000000
vt 0.093750 0.437500
vt 0.093750 0.875000
vt 0.062500 0.125000
vt 0.062500 0.062500
vt 0.062500 0.562500
vt 0.062500 0.500000
vt 0.078125 1.000000
vt 0.062500 0.937500
vt 0.078125 0.000000
vt 0.062500 0.437500
vt 0.062500 0.875000
vt 0.062500 0.375000
vt 0.062500 0.812500
vt 0.062500 0.312500
vt 0.062500 0.750000
vt 0.062500 0.250000
vt 0.062500 0.687500
vt 0.062500 0.187500
vt 0.062500 0.625000
vt 0.031250 0.812500
vt 0.031250 0.750000
vt 0.031250 0.312500
vt 0.031250 0.250000
vt 0.031250 0.687500
vt 0.031250 0.187500
vt 0.031250 0.625000
vt 0.031250 0.125000
vt 0.031250 0.562500
vt 0.031250 0.062500
vt 0.031250 0.500000
vt 0.046875 1.000000
vt 0.031250 0.937500
vt 0.046875 0.000000
vt 0.031250 0.437500
vt 0.031250 0.875000
vt 0.031250 0.375000
vt 0.000000 0.562500
vt 0.000000 0.500000
vt 0.015625 1.000000
vt 0.000000 0.937500
vt 0.015625 0.000000
vt 0.000000 0.062500
vt 0.000000 0.437500
vt 0.000000 0.875000
vt 0.000000 0.375000
vt 0.000000 0.812500
vt 0.000000 0.312500
vt 0.000000 0.750000
vt 0.000000 0.250000
vt 0.000000 0.687500
vt 0.000000 0.187500
vt 0.000000 0.625000
vt 0.000000 0.125000
vt 1.000000 0.250000
vt 1.000000 0.312500
vt 0.968750 0.312500
vt 0.968750 0.250000
vt 1.000000 0.687500
vt 1.000000 0.750000
vt 0.968750 0.750000
vt 0.968750 0.687500
vt 1.000000 0.187500
vt 0.968750 0.187500
vt 1.000000 0.625000
vt 0.968750 0.625000
vt 1.000000 0.125000
vt 0.968750 0.125000
vt 1.000000 0.562500
vt 0.968750 0.562500
vt 1.000000 0.062500
vt 0.968750 0.062500
vt 1.000000 0.500000
vt 0.968750 0.500000
vt 1.000000 0.937500
vt 0.984375 1.000000
vt 0.968750 0.937500
vt 0.984375 0.000000
vt 1.000000 0.437500
vt 0.968750 0.437500
vt 1.000000 0.875000
vt 0.968750 0.875000
vt 1.000000 0.375000
vt 0.968750 0.375000
vt 1.000000 0.812500
vt 0.968750 0.812500
vt 0.953125 0.000000
vt 0.937500 0.062500
vt 0.937500 0.500000
vt 0.937500 0.437500
vt 0.937500 0.937500
vt 0.937500 0.875000
vt 0.937500 0.375000
vt 0.937500 0.812500
vt 0.937500 0.312500
vt 0.937500 0.750000
vt 0.937500 0.250000
vt 0.937500 0.687500
vt 0.937500 0.187500
vt 0.937500 0.625000
vt 0.937500 0.125000
vt 0.937500 0.562500
vt 0.953125 1.000000
vt 0.906250 0.250000
vt 0.906250 0.187500
vt 0.906250 0.687500
vt 0.906250 0.625000
vt 0.906250 0.125000
vt 0.906250 0.562500
vt 0.906250 0.062500
vt 0.906250 0.500000
vt 0.921875 1.000000
vt 0.906250 0.937500
vt 0.921875 0.000000
vt 0.906250 0.437500
vt 0.906250 0.875000
vt 0.906250 0.375000
vt 0.906250 0.812500
vt 0.906250 0.312500
vt 0.906250 0.750000
vt 0.875000 0.937500
vt 0.875000 0.875000
vt 0.875000 0.437500
vt 0.875000 0.375000
vt 0.875000 0.812500
vt 0.875000 0.312500
vt 0.875000 0.750000
vt 0.875000 0.250000
vt 0.875000 0.687500
vt 0.875000 0.187500
vt 0.875000 0.625000
vt 0.875000 0.125000
vt 0.875000 0.562500
vt 0.875000 0.062500
vt 0.875000 0.500000
vt 0.890625 1.000000
vt 0.890625 0.000000
vt 0.843750 0.687500
vt 0.843750 0.625000
vt 0.843750 0.187500
vt 0.843750 0.125000
vt 0.843750 0.562500
vt 0.843750 0.062500
vt 0.843750 0.500000
vt 0.859375 1.000000
vt 0.843750 0.937500
vt 0.859375 0.000000
vt 0.843750 0.437500
vt 0.843750 0.875000
vt 0.843750 0.375000
vt 0.843750 0.812500
vt 0.843750 0.312500
vt 0.843750 0.750000
vt 0.843750 0.250000
vt 0.812500 0.437500
vt 0.812500 0.375000
vt 0.812500 0.875000
vt 0.812500 0.812500
vt 0.812500 0.312500
vt 0.812500 0.750000
vt 0.812500 0.250000
vt 0.812500 0.687500
vt 0.812500 0.187500
vt 0.812500 0.625000
vt 0.812500 0.125000
vt 0.812500 0.562500
vt 0.812500 0.062500
vt 0.812500 0.500000
vt 0.828125 1.000000
vt 0.812500 0.937500
vt 0.828125 0.000000
vt 0.781250 0.187500
vt 0.781250 0.125000
vt 0.781250 0.625000
vt 0.781250 0.562500
vt 0.781250 0.062500
vt 0.781250 0.500000
vt 0.796875 1.000000
vt 0.781250 0.937500
vt 0.796875 0.000000
vt 0.781250 0.437500
vt 0.781250 0.875000
vt 0.781250 0.375000
vt 0.781250 0.812500
vt 0.781250 0.312500
vt 0.781250 0.750000
vt 0.781250 0.250000
vt 0.781250 0.687500
vt 0.765625 1.000000
vt 0.765625 0.000000
s 0
f 6/1/1 478/2/1 16/3/1 17/4/1
f 2/5/2 475/6/2 9/7/2 10/8/2
f 7/9/3 6/1/3 17/4/3 18/10/3
f 3/11/4 2/5/4 10/8/4 11/12/4
f 479/13/5 7/9/5 18/10/5 19/14/5
f 476/15/6 3/11/6 11/12/6 12/16/6
f 480/17/7 479/13/7 19/14/7 20/18/7
f 4/19/8 476/15/8 12/16/8 13/20/8
f 481/21/9 480/17/9 20/18/9 21/22/9
f 477/23/10 4/19/10 13/20/10 14/24/10
f 482/25/11 481/21/11 21/22/11 22/26/11
f 5/27/12 477/23/12 14/24/12 15/28/12
f 1/29/13 83/30/13 8/31/13
f 114/32/14 482/25/14 22/26/14
f 478/2/15 5/27/15 15/28/15 16/3/15
f 475/6/16 1/29/16 8/31/16 9/7/16
f 16/3/17 15/28/17 30/33/17 31/34/17
f 9/7/18 8/31/18 23/35/18 24/36/18
f 17/4/19 16/3/19 31/34/19 32/37/19
f 10/8/20 9/7/20 24/36/20 25/38/20
f 18/10/21 17/4/21 32/37/21 33/39/21
f 11/12/22 10/8/22 25/38/22 26/40/22
f 19/14/23 18/10/23 33/39/23 34/41/23
f 12/16/24 11/12/24 26/40/24 27/42/24
f 20/18/25 19/14/25 34/41/25 35/43/25
f 13/20/26 12/16/26 27/42/26 28/44/26
f 21/22/27 20/18/27 35/43/27 36/45/27
f 14/24/28 13/20/28 28/44/28 29/46/28
f 22/26/29 21/22/29 36/45/29 37/47/29
f 15/28/30 14/24/30 29/46/30 30/33/30
f 8/31/31 83/48/31 23/35/31
f 114/49/32 22/26/32 37/47/32
f 35/43/33 34/41/33 49/50/33 50/51/33
f 28/44/34 27/42/34 42/52/34 43/53/34
f 36/45/35 35/43/35 50/51/35 51/54/35
f 29/46/36 28/44/36 43/53/36 44/55/36
f 37/47/37 36/45/37 51/54/37 52/56/37
f 30/33/38 29/46/38 44/55/38 45/57/38
f 23/35/39 83/58/39 38/59/39
f 114/60/40 37/47/40 52/56/40
f 31/34/41 30/33/41 45/57/41 46/61/41
f 24/36/42 23/35/42 38/59/42 39/62/42
f 32/37/43 31/34/43 46/61/43 47/63/43
f 25/38/44 24/36/44 39/62/44 40/64/44
f 33/39/45 32/37/45 47/63/45 48/65/45
f 26/40/46 25/38/46 40/64/46 41/66/46
f 34/41/47 33/39/47 48/65/47 49/50/47
f 27/42/48 26/40/48 41/66/48 42/52/48
f 39/62/49 38/59/49 53/67/49 54/68/49
f 47/63/50 46/61/50 61/69/50 62/70/50
f 40/64/51 39/62/51 54/68/51 55/71/51
f 48/65/52 47/63/52 62/70/52 63/72/52
f 41/66/53 40/64/53 55/71/53 56/73/53
f 49/50/54 48/65/54 63/72/54 64/74/54
f 42/52/55 41/66/55 56/73/55 57/75/55
f 50/51/56 49/50/56 64/74/56 65/76/56
f 43/53/57 42/52/57 57/75/57 58/77/57
f 51/54/58 50/51/58 65/76/58 66/78/58
f 44/55/59 43/53/59 58/77/59 59/79/59
f 52/56/60 51/54/60 66/78/60 67/80/60
f 45/57/61 44/55/61 59/79/61 60/81/61
f 38/59/62 83/82/62 53/67/62
f 114/83/63 52/56/63 67/80/63
f 46/61/64 45/57/64 60/81/64 61/69/64
f 58/77/65 57/75/65 72/84/65 73/85/65
f 66/78/66 65/76/66 80/86/66 81/87/66
f 59/79/67 58/77/67 73/85/67 74/88/67
f 67/80/68 66/78/68 81/87/68 82/89/68
f 60/81/69 59/79/69 74/88/69 75/90/69
f 53/67/70 83/91/70 68/92/70
f 114/93/71 67/80/71 82/89/71
f 61/69/72 60/81/72 75/90/72 76/94/72
f 54/68/73 53/67/73 68/92/73 69/95/73
f 62/70/74 61/69/74 76/94/74 77/96/74
f 55/71/75 54/68/75 69/95/75 70/97/75
f 63/72/76 62/70/76 77/96/76 78/98/76
f 56/73/77 55/71/77 70/97/77 71/99/77
f 64/74/78 63/72/78 78/98/78 79/100/78
f 57/75/79 56/73/79 71/99/79 72/84/79
f 65/76/80 64/74/80 79/100/80 80/86/80
f 77/96/81 76/94/81 92/101/81 93/102/81
f 70/97/82 69/95/82 85/103/82 86/104/82
f 78/98/83 77/96/83 93/102/83 94/105/83
f 71/99/84 70/97/84 86/104/84 87/106/84
f 79/100/85 78/98/85 94/105/85 95/107/85
f 72/84/86 71/99/86 87/106/86 88/108/86
f 80/86/87 79/100/87 95/107/87 96/109/87
f 73/85/88 72/84/88 88/108/88 89/110/88
f 81/87/89 80/86/89 96/109/89 97/111/89
f 74/88/90 73/85/90 89/110/90 90/112/90
f 82/89/91 81/87/91 97/111/91 98/113/91
f 75/90/92 74/88/92 90/112/92 91/114/92
f 68/92/93 83/115/93 84/116/93
f 114/117/94 82/89/94 98/113/94
f 76/94/95 75/90/95 91/114/95 92/101/95
f 69/95/96 68/92/96 84/116/96 85/103/96
f 97/111/97 96/109/97 111/118/97 112/119/97
f 90/112/98 89/110/98 104/120/98 105/121/98
f 98/113/99 97/111/99 112/119/99 113/122/99
f 91/114/100 90/112/100 105/121/100 106/123/100
f 84/116/101 83/124/101 99/125/101
f 114/126/102 98/113/102 113/122/102
f 92/101/103 91/114/103 106/123/103 107/127/103
f 85/103/104 84/116/104 99/125/104 100/128/104
f 93/102/105 92/101/105 107/127/105 108/129/105
f 86/104/106 85/103/106 100/128/106 101/130/106
f 94/105/107 93/102/107 108/129/107 109/131/107
f 87/106/108 86/104/108 101/130/108 102/132/108
f 95/107/109 94/105/109 109/131/109 110/133/109
f 88/108/110 87/106/110 102/132/110 103/134/110
f 96/109/111 95/107/111 110/133/111 111/118/111
f 89/110/112 88/108/112 103/134/112 104/120/112
f 109/131/113 108/129/113 124/135/113 125/136/113
f 102/132/114 101/130/114 117/137/114 118/138/114
f 110/133/115 109/131/115 125/136/115 126/139/115
f 103/134/116 102/132/116 118/138/116 119/140/116
f 111/118/117 110/133/117 126/139/117 127/141/117
f 104/120/118 103/134/118 119/140/118 120/142/118
f 112/119/119 111/118/119 127/141/119 128/143/119
f 105/121/120 104/120/120 120/142/120 121/144/120
f 113/122/121 112/119/121 128/143/121 129/145/121
f 106/123/122 105/121/122 121/144/122 122/146/122
f 99/125/123 83/147/123 115/148/123
f 114/149/124 113/122/124 129/145/124
f 107/127/125 106/123/125 122/146/125 123/150/125
f 100/128/126 99/125/126 115/148/126 116/151/126
f 108/129/127 107/127/127 123/150/127 124/135/127
f 101/130/128 100/128/128 116/151/128 117/137/128
f 129/145/129 128/143/129 143/152/129 144/153/129
f 122/146/130 121/144/130 136/154/130 137/155/130
f 115/148/131 83/156/131 130/157/131
f 114/158/132 129/145/132 144/153/132
f 123/150/133 122/146/133 137/155/133 138/159/133
f 116/151/134 115/148/134 130/157/134 131/160/134
f 124/135/135 123/150/135 138/159/135 139/161/135
f 117/137/136 116/151/136 131/160/136 132/162/136
f 125/136/137 124/135/137 139/161/137 140/163/137
f 118/138/138 117/137/138 132/162/138 133/164/138
f 126/139/139 125/136/139 140/163/139 141/165/139
f 119/140/140 118/138/140 133/164/140 134/166/140
f 127/141/141 126/139/141 141/165/141 142/167/141
f 120/142/142 119/140/142 134/166/142 135/168/142
f 128/143/143 127/141/143 142/167/143 143/152/143
f 121/144/144 120/142/144 135/168/144 136/154/144
f 133/164/145 132/162/145 147/169/145 148/170/145
f 141/165/146 140/163/146 155/171/146 156/172/146
f 134/166/147 133/164/147 148/170/147 149/173/147
f 142/167/148 141/165/148 156/172/148 157/174/148
f 135/168/149 134/166/149 149/173/149 150/175/149
f 143/152/150 142/167/150 157/174/150 158/176/150
f 136/154/151 135/168/151 150/175/151 151/177/151
f 144/153/152 143/152/152 158/176/152 159/178/152
f 137/155/153 136/154/153 151/177/153 152/179/153
f 130/157/154 83/180/154 145/181/154
f 114/182/155 144/153/155 159/178/155
f 138/159/156 137/155/156 152/179/156 153/183/156
f 131/160/157 130/157/157 145/181/157 146/184/157
f 139/161/158 138/159/158 153/183/158 154/185/158
f 132/162/159 131/160/159 146/184/159 147/169/159
f 140/163/160 139/161/160 154/185/160 155/171/160
f 152/179/161 151/177/161 166/186/161 167/187/161
f 145/181/162 83/188/162 160/189/162
f 114/190/163 159/178/163 174/191/163
f 153/183/164 152/179/164 167/187/164 168/192/164
f 146/184/165 145/181/165 160/189/165 161/193/165
f 154/185/166 153/183/166 168/192/166 169/194/166
f 147/169/167 146/184/167 161/193/167 162/195/167
f 155/171/168 154/185/168 169/194/168 170/196/168
f 148/170/169 147/169/169 162/195/169 163/197/169
f 156/172/170 155/171/170 170/196/170 171/198/170
f 149/173/171 148/170/171 163/197/171 164/199/171
f 157/174/172 156/172/172 171/198/172 172/200/172
f 150/175/173 149/173/173 164/199/173 165/201/173
f 158/176/174 157/174/174 172/200/174 173/202/174
f 151/177/175 150/175/175 165/201/175 166/186/175
f 159/178/176 158/176/176 173/202/176 174/191/176
f 171/198/177 170/196/177 185/203/177 186/204/177
f 164/199/178 163/197/178 178/205/178 179/206/178
f 172/200/179 171/198/179 186/204/179 187/207/179
f 165/201/180 164/199/180 179/206/180 180/208/180
f 173/202/181 172/200/181 187/207/181 188/209/181
f 166/186/182 165/201/182 180/208/182 181/210/182
f 174/191/183 173/202/183 188/209/183 189/211/183
f 167/187/184 166/186/184 181/210/184 182/212/184
f 160/189/185 83/213/185 175/214/185
f 114/215/186 174/191/186 189/211/186
f 168/192/187 167/187/187 182/212/187 183/216/187
f 161/193/188 160/189/188 175/214/188 176/217/188
f 169/194/189 168/192/189 183/216/189 184/218/189
f 162/195/190 161/193/190 176/217/190 177/219/190
f 170/196/191 169/194/191 184/218/191 185/203/191
f 163/197/192 162/195/192 177/219/192 178/205/192
f 175/214/193 83/220/193 190/221/193
f 114/222/194 189/211/194 204/223/194
f 183/216/195 182/212/195 197/224/195 198/225/195
f 176/217/196 175/214/196 190/221/196 191/226/196
f 184/218/197 183/216/197 198/225/197 199/227/197
f 177/219/198 176/217/198 191/226/198 192/228/198
f 185/203/199 184/218/199 199/227/199 200/229/199
f 178/205/200 177/219/200 192/228/200 193/230/200
f 186/204/201 185/203/201 200/229/201 201/231/201
f 179/206/202 178/205/202 193/230/202 194/232/202
f 187/207/203 186/204/203 201/231/203 202/233/203
f 180/208/204 179/206/204 194/232/204 195/234/204
f 188/209/205 187/207/205 202/233/205 203/235/205
f 181/210/206 180/208/206 195/234/206 196/236/206
f 189/211/207 188/209/207 203/235/207 204/223/207
f 182/212/208 181/210/208 196/236/208 197/224/208
f 194/232/209 193/230/209 208/237/209 209/238/209
f 202/233/210 201/231/210 216/239/210 217/240/210
f 195/234/211 194/232/211 209/238/211 210/241/211
f 203/235/212 202/233/212 217/240/212 218/242/212
f 196/236/213 195/234/213 210/241/213 211/243/213
f 204/223/214 203/235/214 218/242/214 219/244/214
f 197/224/215 196/236/215 211/243/215 212/245/215
f 190/221/216 83/246/216 205/247/216
f 114/248/217 204/223/217 219/244/217
f 198/225/218 197/224/218 212/245/218 213/249/218
f 191/226/219 190/221/219 205/247/219 206/250/219
f 199/227/220 198/225/220 213/249/220 214/251/220
f 192/228/221 191/226/221 206/250/221 207/252/221
f 200/229/222 199/227/222 214/251/222 215/253/222
f 193/230/223 192/228/223 207/252/223 208/237/223
f 201/231/224 200/229/224 215/253/224 216/239/224
f 213/249/225 212/245/225 227/254/225 228/255/225
f 206/250/226 205/247/226 220/256/226 221/257/226
f 214/251/227 213/249/227 228/255/227 229/258/227
f 207/252/228 206/250/228 221/257/228 222/259/228
f 215/253/229 214/251/229 229/258/229 230/260/229
f 208/237/230 207/252/230 222/259/230 223/261/230
f 216/239/231 215/253/231 230/260/231 231/262/231
f 209/238/232 208/237/232 223/261/232 224/263/232
f 217/240/233 216/239/233 231/262/233 232/264/233
f 210/241/234 209/238/234 224/263/234 225/265/234
f 218/242/235 217/240/235 232/264/235 233/266/235
f 211/243/236 210/241/236 225/265/236 226/267/236
f 219/244/237 218/242/237 233/266/237 234/268/237
f 212/245/238 211/243/238 226/267/238 227/254/238
f 205/247/239 83/269/239 220/256/239
f 114/270/240 219/244/240 234/268/240
f 232/264/241 231/262/241 246/271/241 247/272/241
f 225/265/242 224/263/242 239/273/242 240/274/242
f 233/266/243 232/264/243 247/272/243 248/275/243
f 226/267/244 225/265/244 240/274/244 241/276/244
f 234/268/245 233/266/245 248/275/245 249/277/245
f 227/254/246 226/267/246 241/276/246 242/278/246
f 220/256/247 83/279/247 235/280/247
f 114/281/248 234/268/248 249/277/248
f 228/255/249 227/254/249 242/278/249 243/282/249
f 221/257/250 220/256/250 235/280/250 236/283/250
f 229/258/251 228/255/251 243/282/251 244/284/251
f 222/259/252 221/257/252 236/283/252 237/285/252
f 230/260/253 229/258/253 244/284/253 245/286/253
f 223/261/254 222/259/254 237/285/254 238/287/254
f 231/262/255 230/260/255 245/286/255 246/271/255
f 224/263/256 223/261/256 238/287/256 239/273/256
f 244/284/257 243/282/257 258/288/257 259/289/257
f 237/285/258 236/283/258 251/290/258 252/291/258
f 245/286/259 244/284/259 259/289/259 260/292/259
f 238/287/260 237/285/260 252/291/260 253/293/260
f 246/271/261 245/286/261 260/292/261 261/294/261
f 239/273/262 238/287/262 253/293/262 254/295/262
f 247/272/263 246/271/263 261/294/263 262/296/263
f 240/274/264 239/273/264 254/295/264 255/297/264
f 248/275/265 247/272/265 262/296/265 263/298/265
f 241/276/266 240/274/266 255/297/266 256/299/266
f 249/277/267 248/275/267 263/298/267 264/300/267
f 242/278/268 241/276/268 256/299/268 257/301/268
f 235/280/269 83/302/269 250/303/269
f 114/304/270 249/277/270 264/300/270
f 243/282/271 242/278/271 257/301/271 258/288/271
f 236/283/272 235/280/272 250/303/272 251/290/272
f 263/298/273 262/296/273 277/305/273 278/306/273
f 256/299/274 255/297/274 270/307/274 271/308/274
f 264/300/275 263/298/275 278/306/275 279/309/275
f 257/301/276 256/299/276 271/308/276 272/310/276
f 250/303/277 83/311/277 265/312/277
f 114/313/278 264/300/278 279/309/278
f 258/288/279 257/301/279 272/310/279 273/314/279
f 251/290/280 250/303/280 265/312/280 266/315/280
f 259/289/281 258/288/281 273/314/281 274/316/281
f 252/291/282 251/290/282 266/315/282 267/317/282
f 260/292/283 259/289/283 274/316/283 275/318/283
f 253/293/284 252/291/284 267/317/284 268/319/284
f 261/294/285 260/292/285 275/318/285 276/320/285
f 254/295/286 253/293/286 268/319/286 269/321/286
f 262/296/287 261/294/287 276/320/287 277/305/287
f 255/297/288 254/295/288 269/321/288 270/307/288
f 267/317/289 266/315/289 281/322/289 282/323/289
f 275/318/290 274/316/290 289/324/290 290/325/290
f 268/319/291 267/317/291 282/323/291 283/326/291
f 276/320/292 275/318/292 290/325/292 291/327/292
f 269/321/293 268/319/293 283/326/293 284/328/293
f 277/305/294 276/320/294 291/327/294 292/329/294
f 270/307/295 269/321/295 284/328/295 285/330/295
f 278/306/296 277/305/296 292/329/296 293/331/296
f 271/308/297 270/307/297 285/330/297 286/332/297
f 279/309/298 278/306/298 293/331/298 294/333/298
f 272/310/299 271/308/299 286/332/299 287/334/299
f 265/312/300 83/335/300 280/336/300
f 114/337/301 279/309/301 294/333/301
f 273/314/302 272/310/302 287/334/302 288/338/302
f 266/315/303 265/312/303 280/336/303 281/322/303
f 274/316/304 273/314/304 288/338/304 289/324/304
f 286/332/305 285/330/305 300/339/305 301/340/305
f 294/333/306 293/331/306 308/341/306 309/342/306
f 287/334/307 286/332/307 301/340/307 302/343/307
f 280/336/308 83/344/308 295/345/308
f 114/346/309 294/333/309 309/342/309
f 288/338/310 287/334/310 302/343/310 303/347/310
f 281/322/311 280/336/311 295/345/311 296/348/311
f 289/324/312 288/338/312 303/347/312 304/349/312
f 282/323/313 281/322/313 296/348/313 297/350/313
f 290/325/314 289/324/314 304/349/314 305/351/314
f 283/326/315 282/323/315 297/350/315 298/352/315
f 291/327/316 290/325/316 305/351/316 306/353/316
f 284/328/317 283/326/317 298/352/317 299/354/317
f 292/329/318 291/327/318 306/353/318 307/355/318
f 285/330/319 284/328/319 299/354/319 300/339/319
f 293/331/320 292/329/320 307/355/320 308/341/320
f 305/351/321 304/349/321 319/356/321 320/357/321
f 298/352/322 297/350/322 312/358/322 313/359/322
f 306/353/323 305/351/323 320/357/323 321/360/323
f 299/354/324 298/352/324 313/359/324 314/361/324
f 307/355/325 306/353/325 321/360/325 322/362/325
f 300/339/326 299/354/326 314/361/326 315/363/326
f 308/341/327 307/355/327 322/362/327 323/364/327
f 301/340/328 300/339/328 315/363/328 316/365/328
f 309/342/329 308/341/329 323/364/329 324/366/329
f 302/343/330 301/340/330 316/365/330 317/367/330
f 295/345/331 83/368/331 310/369/331
f 114/370/332 309/342/332 324/366/332
f 303/347/333 302/343/333 317/367/333 318/371/333
f 296/348/334 295/345/334 310/369/334 311/372/334
f 304/349/335 303/347/335 318/371/335 319/356/335
f 297/350/336 296/348/336 311/372/336 312/358/336
f 324/366/337 323/364/337 338/373/337 339/374/337
f 317/367/338 316/365/338 331/375/338 332/376/338
f 310/369/339 83/377/339 325/378/339
f 114/379/340 324/366/340 339/374/340
f 318/371/341 317/367/341 332/376/341 333/380/341
f 311/372/342 310/369/342 325/378/342 326/381/342
f 319/356/343 318/371/343 333/380/343 334/382/343
f 312/358/344 311/372/344 326/381/344 327/383/344
f 320/357/345 319/356/345 334/382/345 335/384/345
f 313/359/346 312/358/346 327/383/346 328/385/346
f 321/360/347 320/357/347 335/384/347 336/386/347
f 314/361/348 313/359/348 328/385/348 329/387/348
f 322/362/349 321/360/349 336/386/349 337/388/349
f 315/363/350 314/361/350 329/387/350 330/389/350
f 323/364/351 322/362/351 337/388/351 338/373/351
f 316/365/352 315/363/352 330/389/352 331/375/352
f 328/385/353 327/383/353 342/390/353 343/391/353
f 336/386/354 335/384/354 350/392/354 351/393/354
f 329/387/355 328/385/355 343/391/355 344/394/355
f 337/388/356 336/386/356 351/393/356 352/395/356
f 330/389/357 329/387/357 344/394/357 345/396/357
f 338/373/358 337/388/358 352/395/358 353/397/358
f 331/375/359 330/389/359 345/396/359 346/398/359
f 339/374/360 338/373/360 353/397/360 354/399/360
f 332/376/361 331/375/361 346/398/361 347/400/361
f 325/378/362 83/401/362 340/402/362
f 114/403/363 339/374/363 354/399/363
f 333/380/364 332/376/364 347/400/364 348/404/364
f 326/381/365 325/378/365 340/402/365 341/405/365
f 334/382/366 333/380/366 348/404/366 349/406/366
f 327/383/367 326/381/367 341/405/367 342/390/367
f 335/384/368 334/382/368 349/406/368 350/392/368
f 347/400/369 346/398/369 361/407/369 362/408/369
f 340/402/370 83/409/370 355/410/370
f 114/411/371 354/399/371 369/412/371
f 348/404/372 347/400/372 362/408/372 363/413/372
f 341/405/373 340/402/373 355/410/373 356/414/373
f 349/406/374 348/404/374 363/413/374 364/415/374
f 342/390/375 341/405/375 356/414/375 357/416/375
f 350/392/376 349/406/376 364/415/376 365/417/376
f 343/391/377 342/390/377 357/416/377 358/418/377
f 351/393/378 350/392/378 365/417/378 366/419/378
f 344/394/379 343/391/379 358/418/379 359/420/379
f 352/395/380 351/393/380 366/419/380 367/421/380
f 345/396/381 344/394/381 359/420/381 360/422/381
f 353/397/382 352/395/382 367/421/382 368/423/382
f 346/398/383 345/396/383 360/422/383 361/407/383
f 354/399/384 353/397/384 368/423/384 369/412/384
f 366/424/385 365/425/385 380/426/385 381/427/385
f 359/428/386 358/429/386 373/430/386 374/431/386
f 367/432/387 366/424/387 381/427/387 382/433/387
f 360/434/388 359/428/388 374/431/388 375/435/388
f 368/436/389 367/432/389 382/433/389 383/437/389
f 361/438/390 360/434/390 375/435/390 376/439/390
f 369/440/391 368/436/391 383/437/391 384/441/391
f 362/442/392 361/438/392 376/439/392 377/443/392
f 355/444/393 83/445/393 370/446/393
f 114/447/394 369/440/394 384/441/394
f 363/448/395 362/442/395 377/443/395 378/449/395
f 356/450/396 355/444/396 370/446/396 371/451/396
f 364/452/397 363/448/397 378/449/397 379/453/397
f 357/454/398 356/450/398 371/451/398 372/455/398
f 365/425/399 364/452/399 379/453/399 380/426/399
f 358/429/400 357/454/400 372/455/400 373/430/400
f 114/456/401 384/441/401 399/457/401
f 378/449/402 377/443/402 392/458/402 393/459/402
f 371/451/403 370/446/403 385/460/403 386/461/403
f 379/453/404 378/449/404 393/459/404 394/462/404
f 372/455/405 371/451/405 386/461/405 387/463/405
f 380/426/406 379/453/406 394/462/406 395/464/406
f 373/430/407 372/455/407 387/463/407 388/465/407
f 381/427/408 380/426/408 395/464/408 396/466/408
f 374/431/409 373/430/409 388/465/409 389/467/409
f 382/433/410 381/427/410 396/466/410 397/468/410
f 375/435/411 374/431/411 389/467/411 390/469/411
f 383/437/412 382/433/412 397/468/412 398/470/412
f 376/439/413 375/435/413 390/469/413 391/471/413
f 384/441/414 383/437/414 398/470/414 399/457/414
f 377/443/415 376/439/415 391/471/415 392/458/415
f 370/446/416 83/472/416 385/460/416
f 397/468/417 396/466/417 411/473/417 412/474/417
f 390/469/418 389/467/418 404/475/418 405/476/418
f 398/470/419 397/468/419 412/474/419 413/477/419
f 391/471/420 390/469/420 405/476/420 406/478/420
f 399/457/421 398/470/421 413/477/421 414/479/421
f 392/458/422 391/471/422 406/478/422 407/480/422
f 385/460/423 83/481/423 400/482/423
f 114/483/424 399/457/424 414/479/424
f 393/459/425 392/458/425 407/480/425 408/484/425
f 386/461/426 385/460/426 400/482/426 401/485/426
f 394/462/427 393/459/427 408/484/427 409/486/427
f 387/463/428 386/461/428 401/485/428 402/487/428
f 395/464/429 394/462/429 409/486/429 410/488/429
f 388/465/430 387/463/430 402/487/430 403/489/430
f 396/466/431 395/464/431 410/488/431 411/473/431
f 389/467/432 388/465/432 403/489/432 404/475/432
f 401/485/433 400/482/433 415/490/433 416/491/433
f 409/486/434 408/484/434 423/492/434 424/493/434
f 402/487/435 401/485/435 416/491/435 417/494/435
f 410/488/436 409/486/436 424/493/436 425/495/436
f 403/489/437 402/487/437 417/494/437 418/496/437
f 411/473/438 410/488/438 425/495/438 426/497/438
f 404/475/439 403/489/439 418/496/439 419/498/439
f 412/474/440 411/473/440 426/497/440 427/499/440
f 405/476/441 404/475/441 419/498/441 420/500/441
f 413/477/442 412/474/442 427/499/442 428/501/442
f 406/478/443 405/476/443 420/500/443 421/502/443
f 414/479/444 413/477/444 428/501/444 429/503/444
f 407/480/445 406/478/445 421/502/445 422/504/445
f 400/482/446 83/505/446 415/490/446
f 114/506/447 414/479/447 429/503/447
f 408/484/448 407/480/448 422/504/448 423/492/448
f 420/500/449 419/498/449 434/507/449 435/508/449
f 428/501/450 427/499/450 442/509/450 443/510/450
f 421/502/451 420/500/451 435/508/451 436/511/451
f 429/503/452 428/501/452 443/510/452 444/512/452
f 422/504/453 421/502/453 436/511/453 437/513/453
f 415/490/454 83/514/454 430/515/454
f 114/516/455 429/503/455 444/512/455
f 423/492/456 422/504/456 437/513/456 438/517/456
f 416/491/457 415/490/457 430/515/457 431/518/457
f 424/493/458 423/492/458 438/517/458 439/519/458
f 417/494/459 416/491/459 431/518/459 432/520/459
f 425/495/460 424/493/460 439/519/460 440/521/460
f 418/496/461 417/494/461 432/520/461 433/522/461
f 426/497/462 425/495/462 440/521/462 441/523/462
f 419/498/463 418/496/463 433/522/463 434/507/463
f 427/499/464 426/497/464 441/523/464 442/509/464
f 439/519/465 438/517/465 453/524/465 454/525/465
f 432/520/466 431/518/466 446/526/466 447/527/466
f 440/521/467 439/519/467 454/525/467 455/528/467
f 433/522/468 432/520/468 447/527/468 448/529/468
f 441/523/469 440/521/469 455/528/469 456/530/469
f 434/507/470 433/522/470 448/529/470 449/531/470
f 442/509/471 441/523/471 456/530/471 457/532/471
f 435/508/472 434/507/472 449/531/472 450/533/472
f 443/510/473 442/509/473 457/532/473 458/534/473
f 436/511/474 435/508/474 450/533/474 451/535/474
f 444/512/475 443/510/475 458/534/475 459/536/475
f 437/513/476 436/511/476 451/535/476 452/537/476
f 430/515/477 83/538/477 445/539/477
f 114/540/478 444/512/478 459/536/478
f 438/517/479 437/513/479 452/537/479 453/524/479
f 431/518/480 430/515/480 445/539/480 446/526/480
f 458/534/481 457/532/481 472/541/481 473/542/481
f 451/535/482 450/533/482 465/543/482 466/544/482
f 459/536/483 458/534/483 473/542/483 474/545/483
f 452/537/484 451/535/484 466/544/484 467/546/484
f 445/539/485 83/547/485 460/548/485
f 114/549/486 459/536/486 474/545/486
f 453/524/487 452/537/487 467/546/487 468/550/487
f 446/526/488 445/539/488 460/548/488 461/551/488
f 454/525/489 453/524/489 468/550/489 469/552/489
f 447/527/490 446/526/490 461/551/490 462/553/490
f 455/528/491 454/525/491 469/552/491 470/554/491
f 448/529/492 447/527/492 462/553/492 463/555/492
f 456/530/493 455/528/493 470/554/493 471/556/493
f 449/531/494 448/529/494 463/555/494 464/557/494
f 457/532/495 456/530/495 471/556/495 472/541/495
f 450/533/496 449/531/496 464/557/496 465/543/496
f 462/553/497 461/551/497 475/6/497 2/5/497
f 470/554/498 469/552/498 6/1/498 7/9/498
f 463/555/499 462/553/499 2/5/499 3/11/499
f 471/556/500 470/554/500 7/9/500 479/13/500
f 464/557/501 463/555/501 3/11/501 476/15/501
f 472/541/502 471/556/502 479/13/502 480/17/502
f 465/543/503 464/557/503 476/15/503 4/19/503
f 473/542/504 472/541/504 480/17/504 481/21/504
f 466/544/505 465/543/505 4/19/505 477/23/505
f 474/545/506 473/542/506 481/21/506 482/25/506
f 467/546/507 466/544/507 477/23/507 5/27/507
f 460/548/508 83/558/508 1/29/508
f 114/559/509 474/545/509 482/25/509
f 468/550/510 467/546/510 5/27/510 478/2/510
f 461/551/511 460/548/511 1/29/511 475/6/511
f 469/552/512 468/550/512 478/2/512 6/1/512
